%FSLAX25Y25*%
%MOIN*%
G70*
G01*
G75*
G04 Layer_Physical_Order=2*
G04 Layer_Color=16711680*
%ADD10R,0.03189X0.06299*%
%ADD11R,0.08268X0.11811*%
G04:AMPARAMS|DCode=12|XSize=98.43mil|YSize=196.85mil|CornerRadius=24.61mil|HoleSize=0mil|Usage=FLASHONLY|Rotation=180.000|XOffset=0mil|YOffset=0mil|HoleType=Round|Shape=RoundedRectangle|*
%AMROUNDEDRECTD12*
21,1,0.09843,0.14764,0,0,180.0*
21,1,0.04921,0.19685,0,0,180.0*
1,1,0.04921,-0.02461,0.07382*
1,1,0.04921,0.02461,0.07382*
1,1,0.04921,0.02461,-0.07382*
1,1,0.04921,-0.02461,-0.07382*
%
%ADD12ROUNDEDRECTD12*%
%ADD13C,0.05906*%
%ADD14R,0.07087X0.07087*%
%ADD15O,0.00984X0.03543*%
%ADD16O,0.03543X0.00984*%
G04:AMPARAMS|DCode=17|XSize=11.81mil|YSize=47.24mil|CornerRadius=2.95mil|HoleSize=0mil|Usage=FLASHONLY|Rotation=180.000|XOffset=0mil|YOffset=0mil|HoleType=Round|Shape=RoundedRectangle|*
%AMROUNDEDRECTD17*
21,1,0.01181,0.04134,0,0,180.0*
21,1,0.00591,0.04724,0,0,180.0*
1,1,0.00591,-0.00295,0.02067*
1,1,0.00591,0.00295,0.02067*
1,1,0.00591,0.00295,-0.02067*
1,1,0.00591,-0.00295,-0.02067*
%
%ADD17ROUNDEDRECTD17*%
G04:AMPARAMS|DCode=18|XSize=11.81mil|YSize=47.24mil|CornerRadius=2.95mil|HoleSize=0mil|Usage=FLASHONLY|Rotation=90.000|XOffset=0mil|YOffset=0mil|HoleType=Round|Shape=RoundedRectangle|*
%AMROUNDEDRECTD18*
21,1,0.01181,0.04134,0,0,90.0*
21,1,0.00591,0.04724,0,0,90.0*
1,1,0.00591,0.02067,0.00295*
1,1,0.00591,0.02067,-0.00295*
1,1,0.00591,-0.02067,-0.00295*
1,1,0.00591,-0.02067,0.00295*
%
%ADD18ROUNDEDRECTD18*%
G04:AMPARAMS|DCode=19|XSize=145.67mil|YSize=59.06mil|CornerRadius=14.76mil|HoleSize=0mil|Usage=FLASHONLY|Rotation=270.000|XOffset=0mil|YOffset=0mil|HoleType=Round|Shape=RoundedRectangle|*
%AMROUNDEDRECTD19*
21,1,0.14567,0.02953,0,0,270.0*
21,1,0.11614,0.05906,0,0,270.0*
1,1,0.02953,-0.01476,-0.05807*
1,1,0.02953,-0.01476,0.05807*
1,1,0.02953,0.01476,0.05807*
1,1,0.02953,0.01476,-0.05807*
%
%ADD19ROUNDEDRECTD19*%
G04:AMPARAMS|DCode=20|XSize=145.67mil|YSize=59.06mil|CornerRadius=14.76mil|HoleSize=0mil|Usage=FLASHONLY|Rotation=180.000|XOffset=0mil|YOffset=0mil|HoleType=Round|Shape=RoundedRectangle|*
%AMROUNDEDRECTD20*
21,1,0.14567,0.02953,0,0,180.0*
21,1,0.11614,0.05906,0,0,180.0*
1,1,0.02953,-0.05807,0.01476*
1,1,0.02953,0.05807,0.01476*
1,1,0.02953,0.05807,-0.01476*
1,1,0.02953,-0.05807,-0.01476*
%
%ADD20ROUNDEDRECTD20*%
G04:AMPARAMS|DCode=21|XSize=41.34mil|YSize=47.24mil|CornerRadius=10.34mil|HoleSize=0mil|Usage=FLASHONLY|Rotation=270.000|XOffset=0mil|YOffset=0mil|HoleType=Round|Shape=RoundedRectangle|*
%AMROUNDEDRECTD21*
21,1,0.04134,0.02658,0,0,270.0*
21,1,0.02067,0.04724,0,0,270.0*
1,1,0.02067,-0.01329,-0.01034*
1,1,0.02067,-0.01329,0.01034*
1,1,0.02067,0.01329,0.01034*
1,1,0.02067,0.01329,-0.01034*
%
%ADD21ROUNDEDRECTD21*%
G04:AMPARAMS|DCode=22|XSize=41.34mil|YSize=47.24mil|CornerRadius=10.34mil|HoleSize=0mil|Usage=FLASHONLY|Rotation=180.000|XOffset=0mil|YOffset=0mil|HoleType=Round|Shape=RoundedRectangle|*
%AMROUNDEDRECTD22*
21,1,0.04134,0.02658,0,0,180.0*
21,1,0.02067,0.04724,0,0,180.0*
1,1,0.02067,-0.01034,0.01329*
1,1,0.02067,0.01034,0.01329*
1,1,0.02067,0.01034,-0.01329*
1,1,0.02067,-0.01034,-0.01329*
%
%ADD22ROUNDEDRECTD22*%
G04:AMPARAMS|DCode=23|XSize=21.65mil|YSize=39.37mil|CornerRadius=5.41mil|HoleSize=0mil|Usage=FLASHONLY|Rotation=270.000|XOffset=0mil|YOffset=0mil|HoleType=Round|Shape=RoundedRectangle|*
%AMROUNDEDRECTD23*
21,1,0.02165,0.02854,0,0,270.0*
21,1,0.01083,0.03937,0,0,270.0*
1,1,0.01083,-0.01427,-0.00541*
1,1,0.01083,-0.01427,0.00541*
1,1,0.01083,0.01427,0.00541*
1,1,0.01083,0.01427,-0.00541*
%
%ADD23ROUNDEDRECTD23*%
%ADD24C,0.00787*%
%ADD25C,0.00394*%
%ADD26O,0.07087X0.06299*%
G04:AMPARAMS|DCode=27|XSize=37.4mil|YSize=37.4mil|CornerRadius=9.35mil|HoleSize=0mil|Usage=FLASHONLY|Rotation=90.000|XOffset=0mil|YOffset=0mil|HoleType=Round|Shape=RoundedRectangle|*
%AMROUNDEDRECTD27*
21,1,0.03740,0.01870,0,0,90.0*
21,1,0.01870,0.03740,0,0,90.0*
1,1,0.01870,0.00935,0.00935*
1,1,0.01870,0.00935,-0.00935*
1,1,0.01870,-0.00935,-0.00935*
1,1,0.01870,-0.00935,0.00935*
%
%ADD27ROUNDEDRECTD27*%
%ADD28C,0.03740*%
%ADD29C,0.01969*%
%ADD30C,0.03937*%
D12*
X7303Y23031D02*
D03*
X-6476D02*
D03*
D13*
X-4587D02*
D03*
X5413D02*
D03*
X-15197Y307480D02*
D03*
X-5197D02*
D03*
X4803D02*
D03*
X14803D02*
D03*
D24*
X-36909Y272244D02*
X492Y234842D01*
X-36909Y272244D02*
Y278150D01*
X-37697Y278937D02*
X-36909Y278150D01*
X-5197Y294567D02*
Y307480D01*
Y294567D02*
X3051Y286319D01*
Y282087D02*
Y286319D01*
D25*
X124016Y157480D02*
X177165Y157480D01*
X124016Y0D02*
Y157480D01*
X-124016Y-0D02*
X124016Y0D01*
X-124016Y-0D02*
Y157480D01*
X-177165Y157480D02*
X-124016Y157480D01*
X-177165Y157480D02*
X-176965Y165910D01*
X-176363Y174321D01*
X-175362Y182694D01*
X-173964Y191009D01*
X-172171Y199249D01*
X-169989Y207394D01*
X-167421Y215425D01*
X-164475Y223326D01*
X-161155Y231077D01*
X-157471Y238662D01*
X-153430Y246063D01*
X-149041Y253263D01*
X-144315Y260246D01*
X-139261Y266997D01*
X-133893Y273499D01*
X-128221Y279738D01*
X-122258Y285701D01*
X-116019Y291373D01*
X-109517Y296742D01*
X-102766Y301795D01*
X-95783Y306521D01*
X-88583Y310910D01*
X-81182Y314951D01*
X-73597Y318636D01*
X-65846Y321955D01*
X-57945Y324902D01*
X-49913Y327469D01*
X-41768Y329652D01*
X-33529Y331444D01*
X-25213Y332842D01*
X-16841Y333843D01*
X-8430Y334445D01*
X-0Y334646D01*
X8430Y334445D01*
X16841Y333843D01*
X25213Y332842D01*
X33529Y331444D01*
X41768Y329652D01*
X49913Y327469D01*
X57945Y324902D01*
X65846Y321955D01*
X73597Y318636D01*
X81182Y314951D01*
X88583Y310910D01*
X95783Y306521D01*
X102766Y301795D01*
X109516Y296742D01*
X116019Y291373D01*
X122258Y285701D01*
X128220Y279738D01*
X133893Y273499D01*
X139261Y266997D01*
X144315Y260246D01*
X149041Y253263D01*
X153430Y246063D01*
X157471Y238662D01*
X161155Y231078D01*
X164474Y223326D01*
X167421Y215425D01*
X169989Y207394D01*
X172171Y199249D01*
X173964Y191009D01*
X175362Y182694D01*
X176363Y174321D01*
X176965Y165910D01*
X177165Y157480D01*
D26*
X-106595Y224173D02*
D03*
Y234173D02*
D03*
Y254173D02*
D03*
Y244173D02*
D03*
D27*
X63130Y224350D02*
D03*
D28*
X58130D02*
D03*
X63130Y229350D02*
D03*
Y234350D02*
D03*
X58130Y229350D02*
D03*
Y234350D02*
D03*
X63130Y239350D02*
D03*
Y244350D02*
D03*
X58130Y239350D02*
D03*
Y244350D02*
D03*
D29*
X1969Y133957D02*
D03*
X-2362D02*
D03*
X1969Y138287D02*
D03*
X-2362D02*
D03*
D30*
X-37697Y278937D02*
D03*
X3051Y282087D02*
D03*
M02*
