%FSLAX25Y25*%
%MOIN*%
G70*
G01*
G75*
G04 Layer_Color=65535*
%ADD10R,0.03189X0.06299*%
%ADD11R,0.08268X0.11811*%
G04:AMPARAMS|DCode=12|XSize=98.43mil|YSize=196.85mil|CornerRadius=24.61mil|HoleSize=0mil|Usage=FLASHONLY|Rotation=180.000|XOffset=0mil|YOffset=0mil|HoleType=Round|Shape=RoundedRectangle|*
%AMROUNDEDRECTD12*
21,1,0.09843,0.14764,0,0,180.0*
21,1,0.04921,0.19685,0,0,180.0*
1,1,0.04921,-0.02461,0.07382*
1,1,0.04921,0.02461,0.07382*
1,1,0.04921,0.02461,-0.07382*
1,1,0.04921,-0.02461,-0.07382*
%
%ADD12ROUNDEDRECTD12*%
%ADD13C,0.05906*%
%ADD14R,0.07087X0.07087*%
%ADD15O,0.00984X0.03543*%
%ADD16O,0.03543X0.00984*%
G04:AMPARAMS|DCode=17|XSize=11.81mil|YSize=47.24mil|CornerRadius=2.95mil|HoleSize=0mil|Usage=FLASHONLY|Rotation=180.000|XOffset=0mil|YOffset=0mil|HoleType=Round|Shape=RoundedRectangle|*
%AMROUNDEDRECTD17*
21,1,0.01181,0.04134,0,0,180.0*
21,1,0.00591,0.04724,0,0,180.0*
1,1,0.00591,-0.00295,0.02067*
1,1,0.00591,0.00295,0.02067*
1,1,0.00591,0.00295,-0.02067*
1,1,0.00591,-0.00295,-0.02067*
%
%ADD17ROUNDEDRECTD17*%
G04:AMPARAMS|DCode=18|XSize=11.81mil|YSize=47.24mil|CornerRadius=2.95mil|HoleSize=0mil|Usage=FLASHONLY|Rotation=90.000|XOffset=0mil|YOffset=0mil|HoleType=Round|Shape=RoundedRectangle|*
%AMROUNDEDRECTD18*
21,1,0.01181,0.04134,0,0,90.0*
21,1,0.00591,0.04724,0,0,90.0*
1,1,0.00591,0.02067,0.00295*
1,1,0.00591,0.02067,-0.00295*
1,1,0.00591,-0.02067,-0.00295*
1,1,0.00591,-0.02067,0.00295*
%
%ADD18ROUNDEDRECTD18*%
G04:AMPARAMS|DCode=19|XSize=145.67mil|YSize=59.06mil|CornerRadius=14.76mil|HoleSize=0mil|Usage=FLASHONLY|Rotation=270.000|XOffset=0mil|YOffset=0mil|HoleType=Round|Shape=RoundedRectangle|*
%AMROUNDEDRECTD19*
21,1,0.14567,0.02953,0,0,270.0*
21,1,0.11614,0.05906,0,0,270.0*
1,1,0.02953,-0.01476,-0.05807*
1,1,0.02953,-0.01476,0.05807*
1,1,0.02953,0.01476,0.05807*
1,1,0.02953,0.01476,-0.05807*
%
%ADD19ROUNDEDRECTD19*%
G04:AMPARAMS|DCode=20|XSize=145.67mil|YSize=59.06mil|CornerRadius=14.76mil|HoleSize=0mil|Usage=FLASHONLY|Rotation=180.000|XOffset=0mil|YOffset=0mil|HoleType=Round|Shape=RoundedRectangle|*
%AMROUNDEDRECTD20*
21,1,0.14567,0.02953,0,0,180.0*
21,1,0.11614,0.05906,0,0,180.0*
1,1,0.02953,-0.05807,0.01476*
1,1,0.02953,0.05807,0.01476*
1,1,0.02953,0.05807,-0.01476*
1,1,0.02953,-0.05807,-0.01476*
%
%ADD20ROUNDEDRECTD20*%
G04:AMPARAMS|DCode=21|XSize=41.34mil|YSize=47.24mil|CornerRadius=10.34mil|HoleSize=0mil|Usage=FLASHONLY|Rotation=270.000|XOffset=0mil|YOffset=0mil|HoleType=Round|Shape=RoundedRectangle|*
%AMROUNDEDRECTD21*
21,1,0.04134,0.02658,0,0,270.0*
21,1,0.02067,0.04724,0,0,270.0*
1,1,0.02067,-0.01329,-0.01034*
1,1,0.02067,-0.01329,0.01034*
1,1,0.02067,0.01329,0.01034*
1,1,0.02067,0.01329,-0.01034*
%
%ADD21ROUNDEDRECTD21*%
G04:AMPARAMS|DCode=22|XSize=41.34mil|YSize=47.24mil|CornerRadius=10.34mil|HoleSize=0mil|Usage=FLASHONLY|Rotation=180.000|XOffset=0mil|YOffset=0mil|HoleType=Round|Shape=RoundedRectangle|*
%AMROUNDEDRECTD22*
21,1,0.04134,0.02658,0,0,180.0*
21,1,0.02067,0.04724,0,0,180.0*
1,1,0.02067,-0.01034,0.01329*
1,1,0.02067,0.01034,0.01329*
1,1,0.02067,0.01034,-0.01329*
1,1,0.02067,-0.01034,-0.01329*
%
%ADD22ROUNDEDRECTD22*%
G04:AMPARAMS|DCode=23|XSize=21.65mil|YSize=39.37mil|CornerRadius=5.41mil|HoleSize=0mil|Usage=FLASHONLY|Rotation=270.000|XOffset=0mil|YOffset=0mil|HoleType=Round|Shape=RoundedRectangle|*
%AMROUNDEDRECTD23*
21,1,0.02165,0.02854,0,0,270.0*
21,1,0.01083,0.03937,0,0,270.0*
1,1,0.01083,-0.01427,-0.00541*
1,1,0.01083,-0.01427,0.00541*
1,1,0.01083,0.01427,0.00541*
1,1,0.01083,0.01427,-0.00541*
%
%ADD23ROUNDEDRECTD23*%
%ADD24C,0.00787*%
%ADD25C,0.00394*%
%ADD26O,0.07087X0.06299*%
G04:AMPARAMS|DCode=27|XSize=37.4mil|YSize=37.4mil|CornerRadius=9.35mil|HoleSize=0mil|Usage=FLASHONLY|Rotation=90.000|XOffset=0mil|YOffset=0mil|HoleType=Round|Shape=RoundedRectangle|*
%AMROUNDEDRECTD27*
21,1,0.03740,0.01870,0,0,90.0*
21,1,0.01870,0.03740,0,0,90.0*
1,1,0.01870,0.00935,0.00935*
1,1,0.01870,0.00935,-0.00935*
1,1,0.01870,-0.00935,-0.00935*
1,1,0.01870,-0.00935,0.00935*
%
%ADD27ROUNDEDRECTD27*%
%ADD28C,0.03740*%
%ADD29C,0.01969*%
%ADD30C,0.03937*%
%ADD31C,0.00984*%
%ADD32C,0.01000*%
G36*
X76401Y262996D02*
Y261863D01*
X73009Y260582D01*
Y261677D01*
X75454Y262439D01*
X73009Y263194D01*
Y264259D01*
X76401Y262996D01*
D02*
G37*
G36*
X75429Y260371D02*
X75503Y260359D01*
X75596Y260340D01*
X75689Y260309D01*
X75788Y260272D01*
X75893Y260216D01*
X75906Y260210D01*
X75937Y260186D01*
X75986Y260155D01*
X76048Y260105D01*
X76116Y260037D01*
X76184Y259963D01*
X76252Y259876D01*
X76314Y259771D01*
Y259765D01*
X76320Y259758D01*
X76327Y259740D01*
X76339Y259715D01*
X76345Y259690D01*
X76357Y259653D01*
X76382Y259567D01*
X76413Y259455D01*
X76432Y259325D01*
X76450Y259170D01*
X76456Y259003D01*
Y258997D01*
Y258985D01*
Y258960D01*
Y258929D01*
X76450Y258892D01*
Y258842D01*
X76444Y258743D01*
X76432Y258626D01*
X76413Y258502D01*
X76388Y258384D01*
X76351Y258273D01*
X76345Y258260D01*
X76333Y258229D01*
X76308Y258180D01*
X76271Y258118D01*
X76227Y258050D01*
X76172Y257976D01*
X76110Y257901D01*
X76036Y257833D01*
X76023Y257827D01*
X75998Y257802D01*
X75955Y257771D01*
X75893Y257734D01*
X75813Y257691D01*
X75726Y257654D01*
X75621Y257611D01*
X75509Y257573D01*
X75379Y258514D01*
X75392D01*
X75423Y258527D01*
X75472Y258539D01*
X75534Y258558D01*
X75664Y258607D01*
X75726Y258644D01*
X75776Y258681D01*
X75782Y258688D01*
X75794Y258700D01*
X75806Y258731D01*
X75825Y258762D01*
X75850Y258805D01*
X75862Y258861D01*
X75875Y258917D01*
X75881Y258985D01*
Y258991D01*
Y259016D01*
X75875Y259053D01*
X75862Y259096D01*
X75850Y259146D01*
X75825Y259201D01*
X75788Y259251D01*
X75745Y259300D01*
X75738Y259307D01*
X75720Y259319D01*
X75689Y259344D01*
X75646Y259368D01*
X75596Y259387D01*
X75528Y259412D01*
X75454Y259424D01*
X75373Y259430D01*
X75336D01*
X75293Y259424D01*
X75237Y259418D01*
X75181Y259399D01*
X75119Y259381D01*
X75064Y259350D01*
X75008Y259307D01*
X75002Y259300D01*
X74989Y259282D01*
X74965Y259257D01*
X74940Y259220D01*
X74921Y259170D01*
X74897Y259115D01*
X74884Y259047D01*
X74878Y258972D01*
Y258966D01*
Y258954D01*
Y258929D01*
X74884Y258892D01*
X74890Y258849D01*
X74903Y258799D01*
X74915Y258737D01*
X74934Y258669D01*
X74265Y258712D01*
Y258718D01*
Y258725D01*
Y258756D01*
X74271Y258799D01*
Y258836D01*
Y258842D01*
Y258867D01*
X74265Y258904D01*
X74259Y258948D01*
X74247Y258991D01*
X74222Y259047D01*
X74197Y259096D01*
X74160Y259146D01*
X74154Y259152D01*
X74141Y259164D01*
X74117Y259189D01*
X74080Y259214D01*
X74042Y259232D01*
X73993Y259257D01*
X73937Y259269D01*
X73881Y259276D01*
X73857D01*
X73826Y259269D01*
X73795Y259263D01*
X73751Y259251D01*
X73714Y259239D01*
X73671Y259214D01*
X73634Y259183D01*
X73628Y259177D01*
X73621Y259164D01*
X73603Y259146D01*
X73584Y259115D01*
X73572Y259078D01*
X73553Y259034D01*
X73547Y258985D01*
X73541Y258923D01*
Y258917D01*
Y258898D01*
X73547Y258867D01*
X73553Y258824D01*
X73566Y258780D01*
X73584Y258737D01*
X73609Y258694D01*
X73646Y258650D01*
X73652Y258644D01*
X73665Y258632D01*
X73690Y258619D01*
X73727Y258595D01*
X73776Y258576D01*
X73832Y258551D01*
X73906Y258533D01*
X73993Y258514D01*
X73838Y257623D01*
X73832D01*
X73820Y257629D01*
X73795Y257635D01*
X73770Y257642D01*
X73733Y257660D01*
X73690Y257672D01*
X73597Y257716D01*
X73492Y257771D01*
X73380Y257846D01*
X73275Y257932D01*
X73182Y258044D01*
Y258050D01*
X73170Y258056D01*
X73163Y258075D01*
X73145Y258106D01*
X73126Y258137D01*
X73108Y258174D01*
X73089Y258223D01*
X73064Y258279D01*
X73046Y258335D01*
X73027Y258403D01*
X73009Y258477D01*
X72990Y258558D01*
X72971Y258644D01*
X72965Y258737D01*
X72953Y258941D01*
Y258948D01*
Y258972D01*
Y259003D01*
X72959Y259053D01*
Y259108D01*
X72965Y259170D01*
X72971Y259239D01*
X72984Y259313D01*
X73015Y259474D01*
X73058Y259629D01*
X73120Y259783D01*
X73157Y259845D01*
X73201Y259907D01*
Y259913D01*
X73213Y259919D01*
X73244Y259957D01*
X73300Y260000D01*
X73374Y260056D01*
X73461Y260111D01*
X73566Y260161D01*
X73690Y260192D01*
X73758Y260198D01*
X73826Y260204D01*
X73863D01*
X73906Y260198D01*
X73956Y260192D01*
X74018Y260173D01*
X74086Y260155D01*
X74154Y260124D01*
X74222Y260080D01*
X74228Y260074D01*
X74253Y260056D01*
X74284Y260031D01*
X74327Y259994D01*
X74370Y259944D01*
X74426Y259882D01*
X74482Y259808D01*
X74531Y259721D01*
Y259728D01*
X74538Y259752D01*
X74550Y259789D01*
X74562Y259833D01*
X74599Y259926D01*
X74618Y259975D01*
X74643Y260018D01*
X74649Y260025D01*
X74661Y260043D01*
X74686Y260074D01*
X74717Y260111D01*
X74754Y260155D01*
X74804Y260198D01*
X74859Y260241D01*
X74921Y260278D01*
X74928Y260285D01*
X74952Y260297D01*
X74989Y260309D01*
X75033Y260328D01*
X75095Y260347D01*
X75163Y260365D01*
X75237Y260371D01*
X75324Y260377D01*
X75373D01*
X75429Y260371D01*
D02*
G37*
G36*
X81194Y257011D02*
X81256Y257005D01*
X81330Y256987D01*
X81410Y256968D01*
X81491Y256937D01*
X81571Y256894D01*
X81577Y256888D01*
X81608Y256869D01*
X81646Y256844D01*
X81689Y256807D01*
X81744Y256757D01*
X81800Y256696D01*
X81856Y256628D01*
X81906Y256553D01*
Y256547D01*
X81918Y256528D01*
X81930Y256498D01*
X81949Y256454D01*
X81967Y256399D01*
X81986Y256330D01*
X81998Y256250D01*
X82017Y256157D01*
Y256151D01*
Y256145D01*
X82023Y256126D01*
Y256101D01*
X82029Y256040D01*
X82035Y255965D01*
X82048Y255885D01*
X82054Y255810D01*
X82060Y255742D01*
Y255687D01*
Y253879D01*
X78668D01*
Y255841D01*
Y255848D01*
Y255866D01*
Y255891D01*
X78674Y255922D01*
Y255965D01*
X78680Y256009D01*
X78699Y256120D01*
X78730Y256244D01*
X78773Y256368D01*
X78835Y256485D01*
X78916Y256597D01*
Y256603D01*
X78928Y256609D01*
X78959Y256640D01*
X79009Y256683D01*
X79083Y256733D01*
X79169Y256776D01*
X79268Y256819D01*
X79386Y256850D01*
X79448Y256863D01*
X79566D01*
X79621Y256850D01*
X79689Y256838D01*
X79770Y256813D01*
X79857Y256782D01*
X79943Y256733D01*
X80030Y256671D01*
X80036Y256665D01*
X80055Y256646D01*
X80079Y256621D01*
X80110Y256578D01*
X80147Y256528D01*
X80185Y256467D01*
X80222Y256392D01*
X80259Y256306D01*
Y256312D01*
X80265Y256324D01*
Y256343D01*
X80278Y256368D01*
X80296Y256430D01*
X80327Y256510D01*
X80370Y256597D01*
X80426Y256689D01*
X80488Y256770D01*
X80562Y256844D01*
X80575Y256850D01*
X80599Y256869D01*
X80649Y256900D01*
X80711Y256931D01*
X80785Y256962D01*
X80878Y256993D01*
X80983Y257011D01*
X81101Y257017D01*
X81144D01*
X81194Y257011D01*
D02*
G37*
G36*
X75429Y267224D02*
X75503Y267211D01*
X75596Y267193D01*
X75689Y267162D01*
X75788Y267125D01*
X75893Y267069D01*
X75906Y267063D01*
X75937Y267038D01*
X75986Y267007D01*
X76048Y266957D01*
X76116Y266889D01*
X76184Y266815D01*
X76252Y266728D01*
X76314Y266623D01*
Y266617D01*
X76320Y266611D01*
X76327Y266592D01*
X76339Y266567D01*
X76345Y266543D01*
X76357Y266506D01*
X76382Y266419D01*
X76413Y266307D01*
X76432Y266178D01*
X76450Y266023D01*
X76456Y265856D01*
Y265849D01*
Y265837D01*
Y265812D01*
Y265781D01*
X76450Y265744D01*
Y265695D01*
X76444Y265596D01*
X76432Y265478D01*
X76413Y265354D01*
X76388Y265237D01*
X76351Y265125D01*
X76345Y265113D01*
X76333Y265082D01*
X76308Y265032D01*
X76271Y264970D01*
X76227Y264902D01*
X76172Y264828D01*
X76110Y264754D01*
X76036Y264686D01*
X76023Y264680D01*
X75998Y264655D01*
X75955Y264624D01*
X75893Y264587D01*
X75813Y264543D01*
X75726Y264506D01*
X75621Y264463D01*
X75509Y264426D01*
X75379Y265367D01*
X75392D01*
X75423Y265379D01*
X75472Y265391D01*
X75534Y265410D01*
X75664Y265459D01*
X75726Y265497D01*
X75776Y265534D01*
X75782Y265540D01*
X75794Y265552D01*
X75806Y265583D01*
X75825Y265614D01*
X75850Y265657D01*
X75862Y265713D01*
X75875Y265769D01*
X75881Y265837D01*
Y265843D01*
Y265868D01*
X75875Y265905D01*
X75862Y265948D01*
X75850Y265998D01*
X75825Y266054D01*
X75788Y266103D01*
X75745Y266153D01*
X75738Y266159D01*
X75720Y266171D01*
X75689Y266196D01*
X75646Y266221D01*
X75596Y266239D01*
X75528Y266264D01*
X75454Y266277D01*
X75373Y266283D01*
X75336D01*
X75293Y266277D01*
X75237Y266270D01*
X75181Y266252D01*
X75119Y266233D01*
X75064Y266202D01*
X75008Y266159D01*
X75002Y266153D01*
X74989Y266134D01*
X74965Y266109D01*
X74940Y266072D01*
X74921Y266023D01*
X74897Y265967D01*
X74884Y265899D01*
X74878Y265825D01*
Y265818D01*
Y265806D01*
Y265781D01*
X74884Y265744D01*
X74890Y265701D01*
X74903Y265651D01*
X74915Y265589D01*
X74934Y265521D01*
X74265Y265565D01*
Y265571D01*
Y265577D01*
Y265608D01*
X74271Y265651D01*
Y265688D01*
Y265695D01*
Y265719D01*
X74265Y265757D01*
X74259Y265800D01*
X74247Y265843D01*
X74222Y265899D01*
X74197Y265948D01*
X74160Y265998D01*
X74154Y266004D01*
X74141Y266017D01*
X74117Y266041D01*
X74080Y266066D01*
X74042Y266085D01*
X73993Y266109D01*
X73937Y266122D01*
X73881Y266128D01*
X73857D01*
X73826Y266122D01*
X73795Y266116D01*
X73751Y266103D01*
X73714Y266091D01*
X73671Y266066D01*
X73634Y266035D01*
X73628Y266029D01*
X73621Y266017D01*
X73603Y265998D01*
X73584Y265967D01*
X73572Y265930D01*
X73553Y265886D01*
X73547Y265837D01*
X73541Y265775D01*
Y265769D01*
Y265750D01*
X73547Y265719D01*
X73553Y265676D01*
X73566Y265633D01*
X73584Y265589D01*
X73609Y265546D01*
X73646Y265503D01*
X73652Y265497D01*
X73665Y265484D01*
X73690Y265472D01*
X73727Y265447D01*
X73776Y265428D01*
X73832Y265404D01*
X73906Y265385D01*
X73993Y265367D01*
X73838Y264475D01*
X73832D01*
X73820Y264481D01*
X73795Y264488D01*
X73770Y264494D01*
X73733Y264512D01*
X73690Y264525D01*
X73597Y264568D01*
X73492Y264624D01*
X73380Y264698D01*
X73275Y264785D01*
X73182Y264896D01*
Y264902D01*
X73170Y264909D01*
X73163Y264927D01*
X73145Y264958D01*
X73126Y264989D01*
X73108Y265026D01*
X73089Y265076D01*
X73064Y265131D01*
X73046Y265187D01*
X73027Y265255D01*
X73009Y265329D01*
X72990Y265410D01*
X72971Y265497D01*
X72965Y265589D01*
X72953Y265794D01*
Y265800D01*
Y265825D01*
Y265856D01*
X72959Y265905D01*
Y265961D01*
X72965Y266023D01*
X72971Y266091D01*
X72984Y266165D01*
X73015Y266326D01*
X73058Y266481D01*
X73120Y266635D01*
X73157Y266697D01*
X73201Y266759D01*
Y266765D01*
X73213Y266772D01*
X73244Y266809D01*
X73300Y266852D01*
X73374Y266908D01*
X73461Y266964D01*
X73566Y267013D01*
X73690Y267044D01*
X73758Y267050D01*
X73826Y267056D01*
X73863D01*
X73906Y267050D01*
X73956Y267044D01*
X74018Y267025D01*
X74086Y267007D01*
X74154Y266976D01*
X74222Y266933D01*
X74228Y266927D01*
X74253Y266908D01*
X74284Y266883D01*
X74327Y266846D01*
X74370Y266796D01*
X74426Y266735D01*
X74482Y266660D01*
X74531Y266574D01*
Y266580D01*
X74538Y266605D01*
X74550Y266642D01*
X74562Y266685D01*
X74599Y266778D01*
X74618Y266827D01*
X74643Y266871D01*
X74649Y266877D01*
X74661Y266896D01*
X74686Y266927D01*
X74717Y266964D01*
X74754Y267007D01*
X74804Y267050D01*
X74859Y267094D01*
X74921Y267131D01*
X74928Y267137D01*
X74952Y267149D01*
X74989Y267162D01*
X75033Y267180D01*
X75095Y267199D01*
X75163Y267217D01*
X75237Y267224D01*
X75324Y267230D01*
X75373D01*
X75429Y267224D01*
D02*
G37*
G36*
X-68028Y278197D02*
X-68981D01*
Y280451D01*
X-68993Y280444D01*
X-69018Y280419D01*
X-69067Y280389D01*
X-69123Y280345D01*
X-69191Y280302D01*
X-69272Y280252D01*
X-69352Y280203D01*
X-69433Y280160D01*
X-69445Y280153D01*
X-69470Y280141D01*
X-69519Y280122D01*
X-69581Y280098D01*
X-69662Y280067D01*
X-69748Y280030D01*
X-69854Y279999D01*
X-69971Y279961D01*
Y280729D01*
X-69965D01*
X-69953Y280735D01*
X-69928Y280748D01*
X-69891Y280754D01*
X-69854Y280772D01*
X-69804Y280791D01*
X-69699Y280834D01*
X-69581Y280890D01*
X-69457Y280952D01*
X-69334Y281020D01*
X-69228Y281101D01*
X-69222D01*
X-69216Y281113D01*
X-69185Y281138D01*
X-69135Y281187D01*
X-69074Y281255D01*
X-69006Y281329D01*
X-68937Y281422D01*
X-68869Y281528D01*
X-68807Y281645D01*
X-68028D01*
Y278197D01*
D02*
G37*
G36*
X63727Y277832D02*
X62774D01*
Y280085D01*
X62761Y280079D01*
X62736Y280054D01*
X62687Y280023D01*
X62631Y279979D01*
X62563Y279936D01*
X62483Y279887D01*
X62402Y279837D01*
X62322Y279794D01*
X62309Y279787D01*
X62285Y279775D01*
X62235Y279757D01*
X62173Y279732D01*
X62093Y279701D01*
X62006Y279664D01*
X61901Y279633D01*
X61783Y279596D01*
Y280363D01*
X61789D01*
X61802Y280369D01*
X61826Y280382D01*
X61864Y280388D01*
X61901Y280406D01*
X61950Y280425D01*
X62056Y280468D01*
X62173Y280524D01*
X62297Y280586D01*
X62421Y280654D01*
X62526Y280735D01*
X62532D01*
X62538Y280747D01*
X62569Y280772D01*
X62619Y280821D01*
X62681Y280889D01*
X62749Y280964D01*
X62817Y281056D01*
X62885Y281162D01*
X62947Y281279D01*
X63727D01*
Y277832D01*
D02*
G37*
G36*
X59976Y281217D02*
X60087Y281211D01*
X60205Y281205D01*
X60329Y281187D01*
X60446Y281168D01*
X60551Y281137D01*
X60564Y281131D01*
X60595Y281118D01*
X60644Y281100D01*
X60700Y281069D01*
X60768Y281026D01*
X60836Y280970D01*
X60904Y280908D01*
X60966Y280827D01*
X60972Y280815D01*
X60991Y280790D01*
X61016Y280741D01*
X61047Y280673D01*
X61078Y280592D01*
X61102Y280499D01*
X61121Y280394D01*
X61127Y280276D01*
Y280264D01*
Y280227D01*
X61121Y280177D01*
X61115Y280109D01*
X61096Y280035D01*
X61078Y279955D01*
X61047Y279868D01*
X61003Y279787D01*
X60997Y279781D01*
X60985Y279757D01*
X60954Y279719D01*
X60917Y279670D01*
X60867Y279620D01*
X60811Y279565D01*
X60743Y279509D01*
X60669Y279460D01*
X60663Y279453D01*
X60644Y279447D01*
X60613Y279429D01*
X60576Y279410D01*
X60520Y279391D01*
X60459Y279367D01*
X60384Y279348D01*
X60304Y279323D01*
X60310D01*
X60335Y279311D01*
X60366Y279298D01*
X60409Y279286D01*
X60496Y279243D01*
X60539Y279224D01*
X60576Y279200D01*
X60589Y279193D01*
X60601Y279181D01*
X60619Y279162D01*
X60644Y279138D01*
X60669Y279107D01*
X60706Y279069D01*
X60743Y279020D01*
X60750Y279014D01*
X60762Y278995D01*
X60780Y278971D01*
X60805Y278946D01*
X60855Y278871D01*
X60873Y278840D01*
X60892Y278809D01*
X61406Y277832D01*
X60217D01*
X59654Y278865D01*
X59648Y278871D01*
X59635Y278896D01*
X59617Y278933D01*
X59592Y278971D01*
X59530Y279057D01*
X59493Y279094D01*
X59462Y279125D01*
X59456Y279131D01*
X59443Y279138D01*
X59419Y279150D01*
X59388Y279169D01*
X59351Y279181D01*
X59307Y279193D01*
X59258Y279200D01*
X59202Y279206D01*
X59115D01*
Y277832D01*
X58063D01*
Y281224D01*
X59932D01*
X59976Y281217D01*
D02*
G37*
G36*
X-71191Y278197D02*
X-72144D01*
Y280451D01*
X-72156Y280444D01*
X-72181Y280419D01*
X-72230Y280389D01*
X-72286Y280345D01*
X-72354Y280302D01*
X-72435Y280252D01*
X-72515Y280203D01*
X-72596Y280160D01*
X-72608Y280153D01*
X-72633Y280141D01*
X-72682Y280122D01*
X-72744Y280098D01*
X-72825Y280067D01*
X-72911Y280030D01*
X-73017Y279999D01*
X-73134Y279961D01*
Y280729D01*
X-73128D01*
X-73116Y280735D01*
X-73091Y280748D01*
X-73054Y280754D01*
X-73017Y280772D01*
X-72967Y280791D01*
X-72862Y280834D01*
X-72744Y280890D01*
X-72620Y280952D01*
X-72497Y281020D01*
X-72391Y281101D01*
X-72385D01*
X-72379Y281113D01*
X-72348Y281138D01*
X-72299Y281187D01*
X-72237Y281255D01*
X-72169Y281329D01*
X-72101Y281422D01*
X-72032Y281528D01*
X-71970Y281645D01*
X-71191D01*
Y278197D01*
D02*
G37*
G36*
X-74942Y281583D02*
X-74830Y281577D01*
X-74713Y281571D01*
X-74589Y281552D01*
X-74471Y281534D01*
X-74366Y281503D01*
X-74354Y281497D01*
X-74323Y281484D01*
X-74273Y281466D01*
X-74217Y281435D01*
X-74149Y281391D01*
X-74081Y281336D01*
X-74013Y281274D01*
X-73951Y281193D01*
X-73945Y281181D01*
X-73927Y281156D01*
X-73902Y281107D01*
X-73871Y281038D01*
X-73840Y280958D01*
X-73815Y280865D01*
X-73797Y280760D01*
X-73790Y280642D01*
Y280630D01*
Y280593D01*
X-73797Y280543D01*
X-73803Y280475D01*
X-73821Y280401D01*
X-73840Y280321D01*
X-73871Y280234D01*
X-73914Y280153D01*
X-73920Y280147D01*
X-73933Y280122D01*
X-73964Y280085D01*
X-74001Y280036D01*
X-74050Y279986D01*
X-74106Y279930D01*
X-74174Y279875D01*
X-74248Y279825D01*
X-74255Y279819D01*
X-74273Y279813D01*
X-74304Y279794D01*
X-74341Y279776D01*
X-74397Y279757D01*
X-74459Y279732D01*
X-74533Y279714D01*
X-74614Y279689D01*
X-74607D01*
X-74583Y279677D01*
X-74552Y279664D01*
X-74508Y279652D01*
X-74422Y279609D01*
X-74378Y279590D01*
X-74341Y279565D01*
X-74329Y279559D01*
X-74317Y279547D01*
X-74298Y279528D01*
X-74273Y279503D01*
X-74248Y279472D01*
X-74211Y279435D01*
X-74174Y279386D01*
X-74168Y279380D01*
X-74156Y279361D01*
X-74137Y279336D01*
X-74112Y279311D01*
X-74063Y279237D01*
X-74044Y279206D01*
X-74026Y279175D01*
X-73512Y278197D01*
X-74700D01*
X-75264Y279231D01*
X-75270Y279237D01*
X-75282Y279262D01*
X-75301Y279299D01*
X-75326Y279336D01*
X-75387Y279423D01*
X-75424Y279460D01*
X-75455Y279491D01*
X-75462Y279497D01*
X-75474Y279503D01*
X-75499Y279516D01*
X-75530Y279534D01*
X-75567Y279547D01*
X-75610Y279559D01*
X-75660Y279565D01*
X-75716Y279572D01*
X-75802D01*
Y278197D01*
X-76854D01*
Y281590D01*
X-74985D01*
X-74942Y281583D01*
D02*
G37*
G36*
X80488Y260948D02*
X80550Y260942D01*
X80612Y260936D01*
X80686Y260930D01*
X80841Y260905D01*
X81002Y260868D01*
X81163Y260818D01*
X81317Y260750D01*
X81324D01*
X81336Y260744D01*
X81355Y260732D01*
X81379Y260713D01*
X81447Y260670D01*
X81534Y260601D01*
X81627Y260521D01*
X81726Y260422D01*
X81819Y260311D01*
X81906Y260174D01*
Y260168D01*
X81912Y260156D01*
X81924Y260137D01*
X81936Y260106D01*
X81955Y260069D01*
X81974Y260026D01*
X81992Y259976D01*
X82011Y259914D01*
X82029Y259846D01*
X82048Y259778D01*
X82085Y259617D01*
X82110Y259432D01*
X82116Y259227D01*
Y259221D01*
Y259203D01*
Y259172D01*
Y259135D01*
X82110Y259085D01*
X82104Y259029D01*
Y258967D01*
X82091Y258893D01*
X82073Y258745D01*
X82042Y258590D01*
X81998Y258429D01*
X81936Y258280D01*
Y258274D01*
X81930Y258262D01*
X81918Y258243D01*
X81899Y258218D01*
X81856Y258150D01*
X81794Y258064D01*
X81720Y257965D01*
X81615Y257866D01*
X81497Y257760D01*
X81361Y257667D01*
X81355D01*
X81342Y257655D01*
X81317Y257649D01*
X81287Y257630D01*
X81249Y257612D01*
X81206Y257593D01*
X81150Y257575D01*
X81088Y257556D01*
X81020Y257531D01*
X80946Y257513D01*
X80866Y257494D01*
X80773Y257476D01*
X80581Y257451D01*
X80370Y257438D01*
X80333D01*
X80290Y257445D01*
X80234D01*
X80166Y257451D01*
X80086Y257463D01*
X79993Y257476D01*
X79900Y257494D01*
X79795Y257519D01*
X79689Y257550D01*
X79584Y257587D01*
X79473Y257630D01*
X79368Y257686D01*
X79262Y257748D01*
X79169Y257816D01*
X79077Y257896D01*
X79071Y257903D01*
X79058Y257921D01*
X79033Y257946D01*
X79002Y257983D01*
X78971Y258033D01*
X78928Y258088D01*
X78885Y258156D01*
X78841Y258231D01*
X78798Y258317D01*
X78761Y258417D01*
X78718Y258522D01*
X78687Y258639D01*
X78656Y258763D01*
X78631Y258899D01*
X78619Y259042D01*
X78612Y259190D01*
Y259203D01*
Y259227D01*
Y259271D01*
X78619Y259326D01*
X78625Y259401D01*
X78637Y259481D01*
X78649Y259574D01*
X78668Y259667D01*
X78693Y259772D01*
X78724Y259877D01*
X78761Y259989D01*
X78804Y260094D01*
X78860Y260199D01*
X78922Y260304D01*
X78990Y260397D01*
X79071Y260490D01*
X79077Y260496D01*
X79089Y260509D01*
X79120Y260533D01*
X79151Y260564D01*
X79200Y260595D01*
X79256Y260639D01*
X79324Y260682D01*
X79399Y260725D01*
X79485Y260769D01*
X79578Y260806D01*
X79683Y260849D01*
X79795Y260880D01*
X79918Y260911D01*
X80049Y260936D01*
X80191Y260948D01*
X80339Y260954D01*
X80438D01*
X80488Y260948D01*
D02*
G37*
G36*
X-31347Y186053D02*
X-32381Y185490D01*
X-32387Y185484D01*
X-32412Y185472D01*
X-32449Y185453D01*
X-32486Y185428D01*
X-32573Y185366D01*
X-32610Y185329D01*
X-32641Y185298D01*
X-32647Y185292D01*
X-32653Y185280D01*
X-32665Y185255D01*
X-32684Y185224D01*
X-32696Y185187D01*
X-32709Y185143D01*
X-32715Y185094D01*
X-32721Y185038D01*
Y184952D01*
X-31347D01*
Y183899D01*
X-34739D01*
Y185645D01*
Y185651D01*
Y185670D01*
Y185694D01*
Y185725D01*
Y185769D01*
X-34733Y185812D01*
X-34727Y185924D01*
X-34721Y186041D01*
X-34702Y186165D01*
X-34683Y186283D01*
X-34652Y186388D01*
X-34646Y186400D01*
X-34634Y186431D01*
X-34615Y186481D01*
X-34584Y186536D01*
X-34541Y186604D01*
X-34485Y186672D01*
X-34423Y186741D01*
X-34343Y186802D01*
X-34330Y186809D01*
X-34306Y186827D01*
X-34256Y186852D01*
X-34188Y186883D01*
X-34108Y186914D01*
X-34015Y186939D01*
X-33910Y186957D01*
X-33792Y186963D01*
X-33742D01*
X-33693Y186957D01*
X-33625Y186951D01*
X-33551Y186932D01*
X-33470Y186914D01*
X-33384Y186883D01*
X-33303Y186840D01*
X-33297Y186833D01*
X-33272Y186821D01*
X-33235Y186790D01*
X-33185Y186753D01*
X-33136Y186703D01*
X-33080Y186648D01*
X-33024Y186580D01*
X-32975Y186505D01*
X-32969Y186499D01*
X-32963Y186481D01*
X-32944Y186450D01*
X-32925Y186413D01*
X-32907Y186357D01*
X-32882Y186295D01*
X-32864Y186221D01*
X-32839Y186140D01*
Y186146D01*
X-32826Y186171D01*
X-32814Y186202D01*
X-32802Y186245D01*
X-32758Y186332D01*
X-32740Y186375D01*
X-32715Y186413D01*
X-32709Y186425D01*
X-32696Y186437D01*
X-32678Y186456D01*
X-32653Y186481D01*
X-32622Y186505D01*
X-32585Y186542D01*
X-32535Y186580D01*
X-32529Y186586D01*
X-32511Y186598D01*
X-32486Y186617D01*
X-32461Y186642D01*
X-32387Y186691D01*
X-32356Y186710D01*
X-32325Y186728D01*
X-31347Y187242D01*
Y186053D01*
D02*
G37*
G36*
X-39729Y193604D02*
X-39654Y193592D01*
X-39561Y193573D01*
X-39469Y193542D01*
X-39369Y193505D01*
X-39264Y193449D01*
X-39252Y193443D01*
X-39221Y193418D01*
X-39171Y193387D01*
X-39110Y193338D01*
X-39041Y193270D01*
X-38973Y193195D01*
X-38905Y193109D01*
X-38843Y193004D01*
Y192997D01*
X-38837Y192991D01*
X-38831Y192973D01*
X-38819Y192948D01*
X-38812Y192923D01*
X-38800Y192886D01*
X-38775Y192799D01*
X-38744Y192688D01*
X-38726Y192558D01*
X-38707Y192403D01*
X-38701Y192236D01*
Y192230D01*
Y192218D01*
Y192193D01*
Y192162D01*
X-38707Y192125D01*
Y192075D01*
X-38713Y191976D01*
X-38726Y191858D01*
X-38744Y191735D01*
X-38769Y191617D01*
X-38806Y191506D01*
X-38812Y191493D01*
X-38825Y191462D01*
X-38849Y191413D01*
X-38887Y191351D01*
X-38930Y191283D01*
X-38986Y191209D01*
X-39048Y191134D01*
X-39122Y191066D01*
X-39134Y191060D01*
X-39159Y191035D01*
X-39202Y191004D01*
X-39264Y190967D01*
X-39345Y190924D01*
X-39431Y190887D01*
X-39537Y190843D01*
X-39648Y190806D01*
X-39778Y191747D01*
X-39766D01*
X-39735Y191759D01*
X-39685Y191772D01*
X-39623Y191790D01*
X-39493Y191840D01*
X-39431Y191877D01*
X-39382Y191914D01*
X-39376Y191920D01*
X-39363Y191933D01*
X-39351Y191964D01*
X-39332Y191995D01*
X-39308Y192038D01*
X-39295Y192094D01*
X-39283Y192149D01*
X-39277Y192218D01*
Y192224D01*
Y192248D01*
X-39283Y192286D01*
X-39295Y192329D01*
X-39308Y192378D01*
X-39332Y192434D01*
X-39369Y192484D01*
X-39413Y192533D01*
X-39419Y192539D01*
X-39438Y192552D01*
X-39469Y192577D01*
X-39512Y192601D01*
X-39561Y192620D01*
X-39630Y192645D01*
X-39704Y192657D01*
X-39784Y192663D01*
X-39821D01*
X-39865Y192657D01*
X-39920Y192651D01*
X-39976Y192632D01*
X-40038Y192614D01*
X-40094Y192583D01*
X-40150Y192539D01*
X-40156Y192533D01*
X-40168Y192515D01*
X-40193Y192490D01*
X-40218Y192453D01*
X-40236Y192403D01*
X-40261Y192348D01*
X-40273Y192279D01*
X-40279Y192205D01*
Y192199D01*
Y192186D01*
Y192162D01*
X-40273Y192125D01*
X-40267Y192081D01*
X-40255Y192032D01*
X-40242Y191970D01*
X-40224Y191902D01*
X-40892Y191945D01*
Y191951D01*
Y191957D01*
Y191988D01*
X-40886Y192032D01*
Y192069D01*
Y192075D01*
Y192100D01*
X-40892Y192137D01*
X-40898Y192180D01*
X-40911Y192224D01*
X-40936Y192279D01*
X-40960Y192329D01*
X-40997Y192378D01*
X-41004Y192385D01*
X-41016Y192397D01*
X-41041Y192422D01*
X-41078Y192446D01*
X-41115Y192465D01*
X-41165Y192490D01*
X-41220Y192502D01*
X-41276Y192508D01*
X-41301D01*
X-41332Y192502D01*
X-41363Y192496D01*
X-41406Y192484D01*
X-41443Y192471D01*
X-41486Y192446D01*
X-41524Y192415D01*
X-41530Y192409D01*
X-41536Y192397D01*
X-41555Y192378D01*
X-41573Y192348D01*
X-41585Y192310D01*
X-41604Y192267D01*
X-41610Y192218D01*
X-41616Y192156D01*
Y192149D01*
Y192131D01*
X-41610Y192100D01*
X-41604Y192057D01*
X-41592Y192013D01*
X-41573Y191970D01*
X-41548Y191927D01*
X-41511Y191883D01*
X-41505Y191877D01*
X-41493Y191865D01*
X-41468Y191852D01*
X-41431Y191827D01*
X-41381Y191809D01*
X-41326Y191784D01*
X-41251Y191766D01*
X-41165Y191747D01*
X-41319Y190856D01*
X-41326D01*
X-41338Y190862D01*
X-41363Y190868D01*
X-41388Y190874D01*
X-41425Y190893D01*
X-41468Y190905D01*
X-41561Y190948D01*
X-41666Y191004D01*
X-41777Y191078D01*
X-41883Y191165D01*
X-41976Y191277D01*
Y191283D01*
X-41988Y191289D01*
X-41994Y191307D01*
X-42013Y191339D01*
X-42031Y191369D01*
X-42050Y191407D01*
X-42068Y191456D01*
X-42093Y191512D01*
X-42112Y191568D01*
X-42130Y191636D01*
X-42149Y191710D01*
X-42167Y191790D01*
X-42186Y191877D01*
X-42192Y191970D01*
X-42204Y192174D01*
Y192180D01*
Y192205D01*
Y192236D01*
X-42198Y192286D01*
Y192341D01*
X-42192Y192403D01*
X-42186Y192471D01*
X-42174Y192545D01*
X-42143Y192707D01*
X-42099Y192861D01*
X-42037Y193016D01*
X-42000Y193078D01*
X-41957Y193140D01*
Y193146D01*
X-41945Y193152D01*
X-41914Y193189D01*
X-41858Y193233D01*
X-41784Y193288D01*
X-41697Y193344D01*
X-41592Y193394D01*
X-41468Y193424D01*
X-41400Y193431D01*
X-41332Y193437D01*
X-41295D01*
X-41251Y193431D01*
X-41202Y193424D01*
X-41140Y193406D01*
X-41072Y193387D01*
X-41004Y193356D01*
X-40936Y193313D01*
X-40929Y193307D01*
X-40905Y193288D01*
X-40874Y193264D01*
X-40830Y193226D01*
X-40787Y193177D01*
X-40731Y193115D01*
X-40676Y193041D01*
X-40626Y192954D01*
Y192960D01*
X-40620Y192985D01*
X-40608Y193022D01*
X-40595Y193066D01*
X-40558Y193158D01*
X-40539Y193208D01*
X-40515Y193251D01*
X-40508Y193257D01*
X-40496Y193276D01*
X-40471Y193307D01*
X-40440Y193344D01*
X-40403Y193387D01*
X-40354Y193431D01*
X-40298Y193474D01*
X-40236Y193511D01*
X-40230Y193517D01*
X-40205Y193530D01*
X-40168Y193542D01*
X-40125Y193561D01*
X-40063Y193579D01*
X-39995Y193598D01*
X-39920Y193604D01*
X-39834Y193610D01*
X-39784D01*
X-39729Y193604D01*
D02*
G37*
G36*
X-31978Y193036D02*
X-31347D01*
Y192212D01*
X-31978D01*
Y190492D01*
X-32752D01*
X-34795Y192212D01*
Y193036D01*
X-32709D01*
Y193463D01*
X-31978D01*
Y193036D01*
D02*
G37*
G36*
X-31347Y188610D02*
X-33600D01*
X-33594Y188598D01*
X-33569Y188573D01*
X-33538Y188523D01*
X-33495Y188468D01*
X-33452Y188400D01*
X-33402Y188319D01*
X-33353Y188239D01*
X-33309Y188158D01*
X-33303Y188146D01*
X-33291Y188121D01*
X-33272Y188071D01*
X-33247Y188010D01*
X-33216Y187929D01*
X-33179Y187842D01*
X-33148Y187737D01*
X-33111Y187619D01*
X-33879D01*
Y187626D01*
X-33885Y187638D01*
X-33897Y187663D01*
X-33903Y187700D01*
X-33922Y187737D01*
X-33941Y187787D01*
X-33984Y187892D01*
X-34040Y188010D01*
X-34102Y188133D01*
X-34170Y188257D01*
X-34250Y188362D01*
Y188368D01*
X-34262Y188375D01*
X-34287Y188406D01*
X-34337Y188455D01*
X-34405Y188517D01*
X-34479Y188585D01*
X-34572Y188653D01*
X-34677Y188721D01*
X-34795Y188783D01*
Y189563D01*
X-31347D01*
Y188610D01*
D02*
G37*
G36*
X-38757Y188856D02*
X-41010D01*
X-41004Y188844D01*
X-40979Y188819D01*
X-40948Y188770D01*
X-40905Y188714D01*
X-40861Y188646D01*
X-40812Y188565D01*
X-40762Y188485D01*
X-40719Y188404D01*
X-40713Y188392D01*
X-40700Y188367D01*
X-40682Y188318D01*
X-40657Y188256D01*
X-40626Y188175D01*
X-40589Y188089D01*
X-40558Y187984D01*
X-40521Y187866D01*
X-41288D01*
Y187872D01*
X-41295Y187884D01*
X-41307Y187909D01*
X-41313Y187946D01*
X-41332Y187984D01*
X-41350Y188033D01*
X-41394Y188138D01*
X-41449Y188256D01*
X-41511Y188380D01*
X-41579Y188504D01*
X-41660Y188609D01*
Y188615D01*
X-41672Y188621D01*
X-41697Y188652D01*
X-41747Y188701D01*
X-41815Y188763D01*
X-41889Y188831D01*
X-41982Y188900D01*
X-42087Y188968D01*
X-42204Y189030D01*
Y189810D01*
X-38757D01*
Y188856D01*
D02*
G37*
G36*
X79504Y267342D02*
X82060D01*
Y266296D01*
X79504D01*
Y265226D01*
X78668D01*
Y268413D01*
X79504D01*
Y267342D01*
D02*
G37*
G36*
X80488Y264897D02*
X80550Y264891D01*
X80612Y264885D01*
X80686Y264879D01*
X80841Y264854D01*
X81002Y264817D01*
X81163Y264767D01*
X81317Y264699D01*
X81324D01*
X81336Y264693D01*
X81355Y264681D01*
X81379Y264662D01*
X81447Y264619D01*
X81534Y264551D01*
X81627Y264470D01*
X81726Y264371D01*
X81819Y264260D01*
X81906Y264124D01*
Y264118D01*
X81912Y264105D01*
X81924Y264087D01*
X81936Y264055D01*
X81955Y264018D01*
X81974Y263975D01*
X81992Y263926D01*
X82011Y263864D01*
X82029Y263796D01*
X82048Y263727D01*
X82085Y263566D01*
X82110Y263381D01*
X82116Y263177D01*
Y263170D01*
Y263152D01*
Y263121D01*
Y263084D01*
X82110Y263034D01*
X82104Y262979D01*
Y262917D01*
X82091Y262842D01*
X82073Y262694D01*
X82042Y262539D01*
X81998Y262378D01*
X81936Y262229D01*
Y262223D01*
X81930Y262211D01*
X81918Y262192D01*
X81899Y262168D01*
X81856Y262100D01*
X81794Y262013D01*
X81720Y261914D01*
X81615Y261815D01*
X81497Y261709D01*
X81361Y261617D01*
X81355D01*
X81342Y261604D01*
X81317Y261598D01*
X81287Y261580D01*
X81249Y261561D01*
X81206Y261542D01*
X81150Y261524D01*
X81088Y261505D01*
X81020Y261480D01*
X80946Y261462D01*
X80866Y261443D01*
X80773Y261425D01*
X80581Y261400D01*
X80370Y261388D01*
X80333D01*
X80290Y261394D01*
X80234D01*
X80166Y261400D01*
X80086Y261412D01*
X79993Y261425D01*
X79900Y261443D01*
X79795Y261468D01*
X79689Y261499D01*
X79584Y261536D01*
X79473Y261580D01*
X79368Y261635D01*
X79262Y261697D01*
X79169Y261765D01*
X79077Y261846D01*
X79071Y261852D01*
X79058Y261871D01*
X79033Y261895D01*
X79002Y261932D01*
X78971Y261982D01*
X78928Y262038D01*
X78885Y262106D01*
X78841Y262180D01*
X78798Y262267D01*
X78761Y262366D01*
X78718Y262471D01*
X78687Y262589D01*
X78656Y262712D01*
X78631Y262848D01*
X78619Y262991D01*
X78612Y263139D01*
Y263152D01*
Y263177D01*
Y263220D01*
X78619Y263276D01*
X78625Y263350D01*
X78637Y263430D01*
X78649Y263523D01*
X78668Y263616D01*
X78693Y263721D01*
X78724Y263826D01*
X78761Y263938D01*
X78804Y264043D01*
X78860Y264148D01*
X78922Y264254D01*
X78990Y264347D01*
X79071Y264439D01*
X79077Y264445D01*
X79089Y264458D01*
X79120Y264483D01*
X79151Y264514D01*
X79200Y264545D01*
X79256Y264588D01*
X79324Y264631D01*
X79399Y264674D01*
X79485Y264718D01*
X79578Y264755D01*
X79683Y264798D01*
X79795Y264829D01*
X79918Y264860D01*
X80049Y264885D01*
X80191Y264897D01*
X80339Y264904D01*
X80438D01*
X80488Y264897D01*
D02*
G37*
G36*
X-38757Y186300D02*
X-39790Y185737D01*
X-39797Y185730D01*
X-39821Y185718D01*
X-39858Y185699D01*
X-39896Y185675D01*
X-39982Y185613D01*
X-40020Y185576D01*
X-40050Y185545D01*
X-40057Y185538D01*
X-40063Y185526D01*
X-40075Y185501D01*
X-40094Y185470D01*
X-40106Y185433D01*
X-40119Y185390D01*
X-40125Y185340D01*
X-40131Y185285D01*
Y185198D01*
X-38757D01*
Y184146D01*
X-42149D01*
Y185891D01*
Y185898D01*
Y185916D01*
Y185941D01*
Y185972D01*
Y186015D01*
X-42143Y186058D01*
X-42136Y186170D01*
X-42130Y186287D01*
X-42112Y186411D01*
X-42093Y186529D01*
X-42062Y186634D01*
X-42056Y186646D01*
X-42044Y186677D01*
X-42025Y186727D01*
X-41994Y186783D01*
X-41951Y186851D01*
X-41895Y186919D01*
X-41833Y186987D01*
X-41753Y187049D01*
X-41740Y187055D01*
X-41715Y187074D01*
X-41666Y187098D01*
X-41598Y187129D01*
X-41517Y187160D01*
X-41425Y187185D01*
X-41319Y187204D01*
X-41202Y187210D01*
X-41152D01*
X-41103Y187204D01*
X-41035Y187197D01*
X-40960Y187179D01*
X-40880Y187160D01*
X-40793Y187129D01*
X-40713Y187086D01*
X-40707Y187080D01*
X-40682Y187067D01*
X-40645Y187036D01*
X-40595Y186999D01*
X-40546Y186950D01*
X-40490Y186894D01*
X-40434Y186826D01*
X-40385Y186752D01*
X-40378Y186746D01*
X-40372Y186727D01*
X-40354Y186696D01*
X-40335Y186659D01*
X-40317Y186603D01*
X-40292Y186541D01*
X-40273Y186467D01*
X-40249Y186387D01*
Y186393D01*
X-40236Y186417D01*
X-40224Y186448D01*
X-40211Y186492D01*
X-40168Y186578D01*
X-40150Y186622D01*
X-40125Y186659D01*
X-40119Y186671D01*
X-40106Y186684D01*
X-40088Y186702D01*
X-40063Y186727D01*
X-40032Y186752D01*
X-39995Y186789D01*
X-39945Y186826D01*
X-39939Y186832D01*
X-39920Y186845D01*
X-39896Y186863D01*
X-39871Y186888D01*
X-39797Y186937D01*
X-39766Y186956D01*
X-39735Y186975D01*
X-38757Y187488D01*
Y186300D01*
D02*
G37*
G36*
X80488Y271508D02*
X80568Y271502D01*
X80655Y271496D01*
X80748Y271490D01*
X80853Y271477D01*
X81076Y271440D01*
X81299Y271385D01*
X81404Y271347D01*
X81509Y271304D01*
X81602Y271254D01*
X81689Y271199D01*
X81695Y271193D01*
X81707Y271186D01*
X81726Y271168D01*
X81757Y271137D01*
X81788Y271100D01*
X81825Y271056D01*
X81862Y271007D01*
X81899Y270945D01*
X81943Y270877D01*
X81980Y270796D01*
X82017Y270710D01*
X82048Y270611D01*
X82079Y270505D01*
X82097Y270388D01*
X82110Y270258D01*
X82116Y270122D01*
Y270116D01*
Y270103D01*
Y270078D01*
Y270047D01*
X82110Y270010D01*
Y269973D01*
X82097Y269874D01*
X82085Y269763D01*
X82060Y269645D01*
X82023Y269528D01*
X81980Y269422D01*
X81974Y269410D01*
X81955Y269379D01*
X81924Y269329D01*
X81881Y269274D01*
X81825Y269199D01*
X81757Y269131D01*
X81676Y269057D01*
X81584Y268989D01*
X81577Y268983D01*
X81546Y268970D01*
X81509Y268946D01*
X81447Y268921D01*
X81379Y268890D01*
X81293Y268859D01*
X81187Y268828D01*
X81076Y268803D01*
X81064D01*
X81045Y268797D01*
X81020Y268791D01*
X80952Y268785D01*
X80859Y268772D01*
X80754Y268760D01*
X80630Y268748D01*
X80494Y268741D01*
X80352Y268735D01*
X80259D01*
X80197Y268741D01*
X80117Y268748D01*
X80024Y268754D01*
X79925Y268766D01*
X79819Y268778D01*
X79597Y268822D01*
X79374Y268884D01*
X79268Y268921D01*
X79169Y268970D01*
X79083Y269020D01*
X79002Y269082D01*
X78996Y269088D01*
X78984Y269100D01*
X78965Y269119D01*
X78940Y269150D01*
X78909Y269187D01*
X78879Y269230D01*
X78841Y269286D01*
X78804Y269348D01*
X78773Y269416D01*
X78736Y269497D01*
X78705Y269583D01*
X78674Y269676D01*
X78649Y269781D01*
X78631Y269893D01*
X78619Y270017D01*
X78612Y270146D01*
Y270153D01*
Y270159D01*
Y270178D01*
Y270202D01*
X78619Y270264D01*
X78625Y270345D01*
X78631Y270431D01*
X78649Y270524D01*
X78668Y270617D01*
X78699Y270704D01*
X78705Y270716D01*
X78711Y270741D01*
X78736Y270784D01*
X78761Y270834D01*
X78792Y270889D01*
X78829Y270951D01*
X78872Y271007D01*
X78922Y271063D01*
X78928Y271069D01*
X78947Y271087D01*
X78971Y271112D01*
X79009Y271143D01*
X79046Y271180D01*
X79095Y271217D01*
X79207Y271286D01*
X79213Y271292D01*
X79231Y271298D01*
X79262Y271316D01*
X79306Y271335D01*
X79355Y271354D01*
X79417Y271372D01*
X79479Y271397D01*
X79553Y271415D01*
X79559D01*
X79572Y271422D01*
X79590Y271428D01*
X79621Y271434D01*
X79652Y271440D01*
X79696Y271446D01*
X79795Y271465D01*
X79912Y271484D01*
X80042Y271502D01*
X80191Y271508D01*
X80339Y271515D01*
X80426D01*
X80488Y271508D01*
D02*
G37*
G36*
X66277Y281273D02*
X66358Y281267D01*
X66444Y281261D01*
X66537Y281242D01*
X66630Y281224D01*
X66717Y281193D01*
X66729Y281187D01*
X66754Y281180D01*
X66797Y281155D01*
X66847Y281131D01*
X66902Y281100D01*
X66964Y281063D01*
X67020Y281019D01*
X67076Y280970D01*
X67082Y280964D01*
X67100Y280945D01*
X67125Y280920D01*
X67156Y280883D01*
X67193Y280846D01*
X67230Y280797D01*
X67299Y280685D01*
X67305Y280679D01*
X67311Y280660D01*
X67330Y280629D01*
X67348Y280586D01*
X67367Y280537D01*
X67385Y280475D01*
X67410Y280413D01*
X67428Y280339D01*
Y280332D01*
X67435Y280320D01*
X67441Y280301D01*
X67447Y280270D01*
X67453Y280239D01*
X67459Y280196D01*
X67478Y280097D01*
X67497Y279979D01*
X67515Y279849D01*
X67521Y279701D01*
X67528Y279552D01*
Y279540D01*
Y279509D01*
Y279466D01*
X67521Y279404D01*
X67515Y279323D01*
X67509Y279237D01*
X67503Y279144D01*
X67490Y279039D01*
X67453Y278816D01*
X67398Y278593D01*
X67360Y278488D01*
X67317Y278382D01*
X67268Y278290D01*
X67212Y278203D01*
X67206Y278197D01*
X67199Y278184D01*
X67181Y278166D01*
X67150Y278135D01*
X67113Y278104D01*
X67070Y278067D01*
X67020Y278030D01*
X66958Y277992D01*
X66890Y277949D01*
X66809Y277912D01*
X66723Y277875D01*
X66624Y277844D01*
X66519Y277813D01*
X66401Y277794D01*
X66271Y277782D01*
X66135Y277776D01*
X66061D01*
X66023Y277782D01*
X65986D01*
X65887Y277794D01*
X65776Y277807D01*
X65658Y277832D01*
X65540Y277869D01*
X65435Y277912D01*
X65423Y277918D01*
X65392Y277937D01*
X65342Y277968D01*
X65287Y278011D01*
X65213Y278067D01*
X65144Y278135D01*
X65070Y278215D01*
X65002Y278308D01*
X64996Y278314D01*
X64983Y278345D01*
X64959Y278382D01*
X64934Y278444D01*
X64903Y278512D01*
X64872Y278599D01*
X64841Y278704D01*
X64816Y278816D01*
Y278822D01*
Y278828D01*
X64810Y278847D01*
X64804Y278871D01*
X64798Y278940D01*
X64785Y279032D01*
X64773Y279138D01*
X64761Y279261D01*
X64754Y279398D01*
X64748Y279540D01*
Y279552D01*
Y279583D01*
Y279633D01*
X64754Y279695D01*
X64761Y279775D01*
X64767Y279868D01*
X64779Y279967D01*
X64792Y280072D01*
X64835Y280295D01*
X64897Y280518D01*
X64934Y280623D01*
X64983Y280722D01*
X65033Y280809D01*
X65095Y280889D01*
X65101Y280896D01*
X65113Y280908D01*
X65132Y280926D01*
X65163Y280951D01*
X65200Y280982D01*
X65243Y281013D01*
X65299Y281050D01*
X65361Y281087D01*
X65429Y281118D01*
X65510Y281155D01*
X65596Y281187D01*
X65689Y281217D01*
X65794Y281242D01*
X65906Y281261D01*
X66030Y281273D01*
X66160Y281279D01*
X66215D01*
X66277Y281273D01*
D02*
G37*
G36*
X42994Y199505D02*
X43050D01*
X43118Y199498D01*
X43186Y199492D01*
X43267Y199480D01*
X43428Y199449D01*
X43595Y199399D01*
X43756Y199337D01*
X43824Y199294D01*
X43892Y199251D01*
X43898D01*
X43904Y199239D01*
X43941Y199201D01*
X43997Y199146D01*
X44059Y199071D01*
X44115Y198978D01*
X44170Y198867D01*
X44208Y198743D01*
X44214Y198675D01*
X44220Y198601D01*
Y198589D01*
Y198564D01*
X44214Y198520D01*
X44201Y198465D01*
X44189Y198397D01*
X44164Y198322D01*
X44133Y198248D01*
X44090Y198174D01*
X44084Y198168D01*
X44071Y198149D01*
X44047Y198118D01*
X44016Y198081D01*
X43972Y198038D01*
X43917Y197994D01*
X43855Y197939D01*
X43780Y197889D01*
X43787D01*
X43793Y197883D01*
X43824Y197864D01*
X43873Y197833D01*
X43935Y197796D01*
X44003Y197747D01*
X44071Y197685D01*
X44139Y197617D01*
X44195Y197536D01*
X44201Y197524D01*
X44214Y197499D01*
X44238Y197456D01*
X44263Y197394D01*
X44288Y197326D01*
X44313Y197239D01*
X44325Y197152D01*
X44331Y197053D01*
Y197041D01*
Y197010D01*
X44325Y196960D01*
X44319Y196899D01*
X44300Y196824D01*
X44282Y196744D01*
X44251Y196663D01*
X44214Y196577D01*
X44208Y196564D01*
X44195Y196540D01*
X44170Y196502D01*
X44133Y196453D01*
X44090Y196397D01*
X44040Y196342D01*
X43985Y196286D01*
X43923Y196236D01*
X43917Y196230D01*
X43892Y196218D01*
X43855Y196199D01*
X43805Y196168D01*
X43743Y196143D01*
X43675Y196113D01*
X43589Y196088D01*
X43496Y196063D01*
X43483D01*
X43452Y196057D01*
X43403Y196044D01*
X43335Y196038D01*
X43254Y196026D01*
X43161Y196013D01*
X43062Y196007D01*
X42871D01*
X42821Y196013D01*
X42771D01*
X42654Y196026D01*
X42518Y196038D01*
X42382Y196057D01*
X42245Y196088D01*
X42128Y196131D01*
X42115Y196137D01*
X42078Y196156D01*
X42029Y196187D01*
X41967Y196230D01*
X41899Y196280D01*
X41824Y196348D01*
X41756Y196422D01*
X41694Y196509D01*
X41688Y196521D01*
X41670Y196552D01*
X41651Y196601D01*
X41626Y196670D01*
X41595Y196750D01*
X41577Y196843D01*
X41558Y196948D01*
X41552Y197060D01*
Y197066D01*
Y197072D01*
Y197109D01*
X41558Y197165D01*
X41571Y197239D01*
X41583Y197320D01*
X41608Y197400D01*
X41645Y197487D01*
X41688Y197567D01*
X41694Y197580D01*
X41713Y197604D01*
X41744Y197641D01*
X41793Y197685D01*
X41855Y197740D01*
X41923Y197790D01*
X42016Y197846D01*
X42115Y197889D01*
X42103Y197895D01*
X42078Y197908D01*
X42041Y197932D01*
X41991Y197963D01*
X41942Y198007D01*
X41886Y198050D01*
X41837Y198100D01*
X41793Y198149D01*
X41787Y198155D01*
X41775Y198186D01*
X41750Y198223D01*
X41725Y198279D01*
X41701Y198347D01*
X41676Y198428D01*
X41663Y198514D01*
X41657Y198607D01*
Y198613D01*
Y198626D01*
Y198650D01*
X41663Y198675D01*
X41670Y198712D01*
X41676Y198756D01*
X41707Y198855D01*
X41756Y198960D01*
X41787Y199022D01*
X41824Y199077D01*
X41868Y199133D01*
X41923Y199195D01*
X41985Y199251D01*
X42053Y199300D01*
X42060D01*
X42066Y199306D01*
X42084Y199319D01*
X42109Y199331D01*
X42140Y199350D01*
X42183Y199369D01*
X42227Y199387D01*
X42276Y199406D01*
X42394Y199443D01*
X42536Y199480D01*
X42697Y199505D01*
X42883Y199511D01*
X42951D01*
X42994Y199505D01*
D02*
G37*
G36*
X34387Y207934D02*
X34393Y207922D01*
X34412Y207903D01*
X34437Y207878D01*
X34505Y207810D01*
X34591Y207730D01*
X34690Y207631D01*
X34814Y207532D01*
X34944Y207426D01*
X35080Y207333D01*
X35086Y207327D01*
X35099Y207321D01*
X35124Y207309D01*
X35161Y207284D01*
X35204Y207259D01*
X35254Y207235D01*
X35315Y207204D01*
X35377Y207166D01*
X35452Y207129D01*
X35532Y207092D01*
X35705Y207018D01*
X35897Y206943D01*
X36102Y206875D01*
X36108D01*
X36120Y206869D01*
X36145Y206863D01*
X36176Y206851D01*
X36219Y206844D01*
X36269Y206832D01*
X36324Y206814D01*
X36393Y206801D01*
X36467Y206789D01*
X36541Y206770D01*
X36721Y206745D01*
X36913Y206715D01*
X37129Y206696D01*
Y205755D01*
X37117D01*
X37092Y205761D01*
X37049Y205767D01*
X36993Y205774D01*
X36919Y205786D01*
X36838Y205798D01*
X36745Y205817D01*
X36646Y205836D01*
X36535Y205860D01*
X36424Y205885D01*
X36194Y205947D01*
X35959Y206015D01*
X35848Y206058D01*
X35743Y206102D01*
X35736D01*
X35718Y206114D01*
X35687Y206126D01*
X35644Y206145D01*
X35594Y206176D01*
X35532Y206207D01*
X35458Y206244D01*
X35377Y206287D01*
X35291Y206337D01*
X35198Y206393D01*
X35099Y206454D01*
X34994Y206523D01*
X34888Y206597D01*
X34771Y206677D01*
X34653Y206764D01*
X34536Y206857D01*
Y205186D01*
X33737D01*
Y207940D01*
X34381D01*
X34387Y207934D01*
D02*
G37*
G36*
X-34011Y258560D02*
X-33962D01*
X-33850Y258541D01*
X-33720Y258523D01*
X-33584Y258492D01*
X-33454Y258448D01*
X-33331Y258386D01*
X-33324D01*
X-33318Y258380D01*
X-33281Y258355D01*
X-33225Y258312D01*
X-33151Y258250D01*
X-33070Y258176D01*
X-32990Y258077D01*
X-32910Y257965D01*
X-32835Y257829D01*
Y257823D01*
X-32829Y257811D01*
X-32817Y257792D01*
X-32804Y257761D01*
X-32792Y257724D01*
X-32773Y257675D01*
X-32761Y257625D01*
X-32742Y257563D01*
X-32724Y257495D01*
X-32705Y257421D01*
X-32693Y257334D01*
X-32680Y257247D01*
X-32668Y257148D01*
X-32656Y257049D01*
X-32650Y256826D01*
Y256814D01*
Y256789D01*
Y256740D01*
X-32656Y256678D01*
X-32662Y256604D01*
X-32668Y256517D01*
X-32680Y256418D01*
X-32699Y256313D01*
X-32742Y256096D01*
X-32773Y255985D01*
X-32817Y255873D01*
X-32860Y255768D01*
X-32910Y255663D01*
X-32972Y255570D01*
X-33040Y255483D01*
X-33046Y255477D01*
X-33058Y255465D01*
X-33077Y255446D01*
X-33108Y255415D01*
X-33151Y255384D01*
X-33194Y255353D01*
X-33250Y255310D01*
X-33318Y255273D01*
X-33386Y255236D01*
X-33467Y255199D01*
X-33553Y255161D01*
X-33652Y255131D01*
X-33751Y255100D01*
X-33863Y255081D01*
X-33980Y255069D01*
X-34104Y255062D01*
X-34172D01*
X-34247Y255069D01*
X-34339Y255075D01*
X-34438Y255087D01*
X-34550Y255100D01*
X-34655Y255124D01*
X-34748Y255155D01*
X-34760Y255161D01*
X-34785Y255174D01*
X-34828Y255192D01*
X-34884Y255223D01*
X-34940Y255260D01*
X-35008Y255310D01*
X-35070Y255366D01*
X-35132Y255428D01*
X-35138Y255434D01*
X-35157Y255459D01*
X-35188Y255502D01*
X-35218Y255551D01*
X-35256Y255620D01*
X-35299Y255694D01*
X-35336Y255780D01*
X-35367Y255879D01*
X-34432Y256003D01*
Y255997D01*
X-34426Y255972D01*
X-34420Y255935D01*
X-34407Y255892D01*
X-34370Y255805D01*
X-34346Y255762D01*
X-34315Y255725D01*
X-34308Y255718D01*
X-34296Y255712D01*
X-34278Y255700D01*
X-34253Y255688D01*
X-34185Y255657D01*
X-34141Y255650D01*
X-34098Y255644D01*
X-34086D01*
X-34061Y255650D01*
X-34018Y255657D01*
X-33968Y255675D01*
X-33912Y255700D01*
X-33850Y255737D01*
X-33795Y255793D01*
X-33745Y255867D01*
X-33739Y255873D01*
X-33727Y255904D01*
X-33714Y255954D01*
X-33702Y255985D01*
X-33689Y256022D01*
X-33683Y256065D01*
X-33671Y256121D01*
X-33659Y256177D01*
X-33646Y256245D01*
X-33634Y256319D01*
X-33621Y256399D01*
X-33615Y256486D01*
X-33603Y256585D01*
X-33609Y256579D01*
X-33634Y256554D01*
X-33665Y256523D01*
X-33714Y256486D01*
X-33764Y256449D01*
X-33826Y256406D01*
X-33888Y256368D01*
X-33956Y256331D01*
X-33962Y256325D01*
X-33987Y256319D01*
X-34024Y256307D01*
X-34073Y256294D01*
X-34129Y256276D01*
X-34203Y256263D01*
X-34278Y256257D01*
X-34364Y256251D01*
X-34407D01*
X-34438Y256257D01*
X-34476Y256263D01*
X-34525Y256270D01*
X-34630Y256294D01*
X-34748Y256331D01*
X-34878Y256387D01*
X-34946Y256424D01*
X-35008Y256468D01*
X-35070Y256517D01*
X-35132Y256573D01*
X-35138Y256579D01*
X-35144Y256585D01*
X-35163Y256604D01*
X-35181Y256628D01*
X-35206Y256666D01*
X-35231Y256703D01*
X-35256Y256746D01*
X-35287Y256796D01*
X-35342Y256913D01*
X-35392Y257056D01*
X-35429Y257210D01*
X-35435Y257297D01*
X-35441Y257390D01*
Y257396D01*
Y257402D01*
Y257421D01*
Y257446D01*
X-35435Y257507D01*
X-35423Y257594D01*
X-35404Y257687D01*
X-35373Y257792D01*
X-35336Y257897D01*
X-35287Y258003D01*
Y258009D01*
X-35280Y258015D01*
X-35256Y258046D01*
X-35218Y258096D01*
X-35169Y258157D01*
X-35107Y258225D01*
X-35033Y258300D01*
X-34946Y258368D01*
X-34847Y258424D01*
X-34841D01*
X-34835Y258430D01*
X-34797Y258448D01*
X-34736Y258467D01*
X-34655Y258498D01*
X-34550Y258523D01*
X-34432Y258541D01*
X-34296Y258560D01*
X-34141Y258566D01*
X-34055D01*
X-34011Y258560D01*
D02*
G37*
G36*
X39714Y199505D02*
X39769D01*
X39831Y199498D01*
X39899Y199492D01*
X39974Y199480D01*
X40141Y199449D01*
X40308Y199399D01*
X40469Y199337D01*
X40543Y199294D01*
X40617Y199251D01*
X40624D01*
X40636Y199239D01*
X40654Y199226D01*
X40679Y199201D01*
X40710Y199177D01*
X40747Y199139D01*
X40784Y199102D01*
X40828Y199053D01*
X40871Y199003D01*
X40914Y198941D01*
X40964Y198879D01*
X41007Y198805D01*
X41051Y198725D01*
X41094Y198644D01*
X41131Y198551D01*
X41168Y198452D01*
X40240Y198248D01*
Y198254D01*
X40233Y198273D01*
X40221Y198304D01*
X40209Y198335D01*
X40172Y198409D01*
X40153Y198440D01*
X40135Y198471D01*
X40128Y198477D01*
X40122Y198489D01*
X40097Y198514D01*
X40073Y198539D01*
X40005Y198601D01*
X39918Y198657D01*
X39912Y198663D01*
X39899Y198669D01*
X39868Y198681D01*
X39837Y198694D01*
X39794Y198706D01*
X39744Y198712D01*
X39689Y198725D01*
X39596D01*
X39577Y198719D01*
X39509Y198712D01*
X39429Y198688D01*
X39342Y198657D01*
X39249Y198601D01*
X39163Y198533D01*
X39125Y198483D01*
X39088Y198434D01*
X39082Y198421D01*
X39064Y198397D01*
X39045Y198341D01*
X39020Y198273D01*
X38989Y198180D01*
X38971Y198069D01*
X38952Y197932D01*
X38946Y197771D01*
Y197765D01*
Y197747D01*
Y197716D01*
Y197679D01*
X38952Y197635D01*
Y197580D01*
X38965Y197462D01*
X38989Y197338D01*
X39014Y197208D01*
X39057Y197090D01*
X39082Y197041D01*
X39113Y196998D01*
X39119Y196992D01*
X39144Y196967D01*
X39187Y196936D01*
X39237Y196899D01*
X39305Y196855D01*
X39392Y196824D01*
X39485Y196800D01*
X39596Y196793D01*
X39645D01*
X39701Y196800D01*
X39769Y196812D01*
X39843Y196837D01*
X39918Y196862D01*
X39992Y196905D01*
X40054Y196960D01*
X40060Y196967D01*
X40079Y196992D01*
X40110Y197029D01*
X40141Y197084D01*
X40178Y197152D01*
X40215Y197239D01*
X40252Y197338D01*
X40283Y197456D01*
X41199Y197171D01*
Y197165D01*
X41193Y197152D01*
X41187Y197134D01*
X41181Y197109D01*
X41162Y197035D01*
X41125Y196948D01*
X41088Y196843D01*
X41032Y196738D01*
X40976Y196633D01*
X40902Y196527D01*
X40896Y196515D01*
X40865Y196484D01*
X40822Y196441D01*
X40766Y196379D01*
X40692Y196317D01*
X40611Y196255D01*
X40512Y196193D01*
X40407Y196137D01*
X40401D01*
X40394Y196131D01*
X40376Y196125D01*
X40357Y196119D01*
X40289Y196094D01*
X40203Y196075D01*
X40097Y196051D01*
X39967Y196026D01*
X39819Y196013D01*
X39658Y196007D01*
X39565D01*
X39516Y196013D01*
X39466D01*
X39404Y196020D01*
X39336Y196026D01*
X39194Y196044D01*
X39039Y196075D01*
X38890Y196113D01*
X38748Y196162D01*
X38742D01*
X38735Y196168D01*
X38717Y196181D01*
X38692Y196193D01*
X38624Y196236D01*
X38544Y196292D01*
X38451Y196372D01*
X38346Y196465D01*
X38247Y196583D01*
X38148Y196725D01*
Y196731D01*
X38135Y196744D01*
X38123Y196769D01*
X38110Y196800D01*
X38092Y196837D01*
X38067Y196886D01*
X38042Y196942D01*
X38024Y197010D01*
X37999Y197078D01*
X37974Y197159D01*
X37956Y197245D01*
X37931Y197338D01*
X37918Y197437D01*
X37906Y197542D01*
X37894Y197765D01*
Y197778D01*
Y197802D01*
X37900Y197846D01*
Y197901D01*
X37906Y197976D01*
X37918Y198056D01*
X37931Y198143D01*
X37949Y198242D01*
X37974Y198347D01*
X38005Y198452D01*
X38036Y198558D01*
X38079Y198669D01*
X38135Y198774D01*
X38191Y198873D01*
X38259Y198972D01*
X38339Y199059D01*
X38346Y199065D01*
X38358Y199077D01*
X38389Y199102D01*
X38420Y199127D01*
X38469Y199164D01*
X38525Y199201D01*
X38587Y199245D01*
X38668Y199288D01*
X38748Y199325D01*
X38847Y199369D01*
X38952Y199406D01*
X39064Y199443D01*
X39187Y199468D01*
X39317Y199492D01*
X39460Y199505D01*
X39608Y199511D01*
X39670D01*
X39714Y199505D01*
D02*
G37*
G36*
X36040Y204808D02*
X36058Y204802D01*
X36083Y204796D01*
X36157Y204777D01*
X36244Y204740D01*
X36349Y204703D01*
X36454Y204647D01*
X36560Y204591D01*
X36665Y204517D01*
X36677Y204511D01*
X36708Y204480D01*
X36751Y204437D01*
X36813Y204381D01*
X36875Y204307D01*
X36937Y204226D01*
X36999Y204127D01*
X37055Y204022D01*
Y204016D01*
X37061Y204010D01*
X37067Y203991D01*
X37073Y203972D01*
X37098Y203904D01*
X37117Y203818D01*
X37141Y203712D01*
X37166Y203582D01*
X37179Y203434D01*
X37185Y203273D01*
Y203267D01*
Y203248D01*
Y203217D01*
Y203180D01*
X37179Y203131D01*
Y203081D01*
X37172Y203019D01*
X37166Y202951D01*
X37148Y202809D01*
X37117Y202654D01*
X37080Y202505D01*
X37030Y202363D01*
Y202357D01*
X37024Y202350D01*
X37012Y202332D01*
X36999Y202307D01*
X36956Y202239D01*
X36900Y202159D01*
X36820Y202066D01*
X36727Y201961D01*
X36609Y201862D01*
X36467Y201763D01*
X36461D01*
X36448Y201750D01*
X36424Y201738D01*
X36393Y201725D01*
X36355Y201707D01*
X36306Y201682D01*
X36250Y201657D01*
X36182Y201639D01*
X36114Y201614D01*
X36033Y201589D01*
X35947Y201571D01*
X35854Y201546D01*
X35755Y201534D01*
X35650Y201521D01*
X35427Y201509D01*
X35390D01*
X35346Y201515D01*
X35291D01*
X35216Y201521D01*
X35136Y201534D01*
X35049Y201546D01*
X34950Y201564D01*
X34845Y201589D01*
X34740Y201620D01*
X34635Y201651D01*
X34523Y201694D01*
X34418Y201750D01*
X34319Y201806D01*
X34220Y201874D01*
X34133Y201954D01*
X34127Y201961D01*
X34115Y201973D01*
X34090Y202004D01*
X34065Y202035D01*
X34028Y202084D01*
X33991Y202140D01*
X33948Y202202D01*
X33904Y202282D01*
X33867Y202363D01*
X33824Y202462D01*
X33786Y202567D01*
X33749Y202679D01*
X33725Y202802D01*
X33700Y202932D01*
X33687Y203075D01*
X33681Y203223D01*
Y203229D01*
Y203254D01*
Y203285D01*
X33687Y203329D01*
Y203384D01*
X33694Y203446D01*
X33700Y203514D01*
X33712Y203589D01*
X33743Y203756D01*
X33793Y203923D01*
X33855Y204084D01*
X33898Y204158D01*
X33941Y204232D01*
Y204239D01*
X33954Y204251D01*
X33966Y204269D01*
X33991Y204294D01*
X34016Y204325D01*
X34053Y204362D01*
X34090Y204399D01*
X34139Y204443D01*
X34189Y204486D01*
X34251Y204529D01*
X34313Y204579D01*
X34387Y204622D01*
X34467Y204666D01*
X34548Y204709D01*
X34641Y204746D01*
X34740Y204783D01*
X34944Y203855D01*
X34938D01*
X34919Y203849D01*
X34888Y203836D01*
X34857Y203824D01*
X34783Y203787D01*
X34752Y203768D01*
X34721Y203749D01*
X34715Y203743D01*
X34703Y203737D01*
X34678Y203712D01*
X34653Y203688D01*
X34591Y203620D01*
X34536Y203533D01*
X34529Y203527D01*
X34523Y203514D01*
X34511Y203483D01*
X34498Y203452D01*
X34486Y203409D01*
X34480Y203360D01*
X34467Y203304D01*
Y203248D01*
Y203242D01*
Y203229D01*
Y203211D01*
X34474Y203192D01*
X34480Y203124D01*
X34505Y203044D01*
X34536Y202957D01*
X34591Y202864D01*
X34659Y202778D01*
X34709Y202741D01*
X34758Y202703D01*
X34771Y202697D01*
X34795Y202679D01*
X34851Y202660D01*
X34919Y202635D01*
X35012Y202604D01*
X35124Y202586D01*
X35260Y202567D01*
X35421Y202561D01*
X35513D01*
X35557Y202567D01*
X35613D01*
X35730Y202580D01*
X35854Y202604D01*
X35984Y202629D01*
X36102Y202672D01*
X36151Y202697D01*
X36194Y202728D01*
X36201Y202734D01*
X36225Y202759D01*
X36256Y202802D01*
X36294Y202852D01*
X36337Y202920D01*
X36368Y203007D01*
X36393Y203099D01*
X36399Y203211D01*
Y203217D01*
Y203223D01*
Y203260D01*
X36393Y203316D01*
X36380Y203384D01*
X36355Y203458D01*
X36331Y203533D01*
X36287Y203607D01*
X36232Y203669D01*
X36225Y203675D01*
X36201Y203694D01*
X36163Y203725D01*
X36108Y203756D01*
X36040Y203793D01*
X35953Y203830D01*
X35854Y203867D01*
X35736Y203898D01*
X36021Y204814D01*
X36027D01*
X36040Y204808D01*
D02*
G37*
G36*
X-6546Y69104D02*
X-8799D01*
X-8793Y69091D01*
X-8768Y69067D01*
X-8737Y69017D01*
X-8694Y68961D01*
X-8650Y68893D01*
X-8601Y68813D01*
X-8551Y68732D01*
X-8508Y68652D01*
X-8502Y68639D01*
X-8489Y68615D01*
X-8471Y68565D01*
X-8446Y68503D01*
X-8415Y68423D01*
X-8378Y68336D01*
X-8347Y68231D01*
X-8310Y68113D01*
X-9077D01*
Y68120D01*
X-9083Y68132D01*
X-9096Y68157D01*
X-9102Y68194D01*
X-9121Y68231D01*
X-9139Y68281D01*
X-9183Y68386D01*
X-9238Y68503D01*
X-9300Y68627D01*
X-9368Y68751D01*
X-9449Y68856D01*
Y68862D01*
X-9461Y68869D01*
X-9486Y68900D01*
X-9535Y68949D01*
X-9604Y69011D01*
X-9678Y69079D01*
X-9771Y69147D01*
X-9876Y69215D01*
X-9994Y69277D01*
Y70057D01*
X-6546D01*
Y69104D01*
D02*
G37*
G36*
Y66541D02*
X-9133D01*
X-6546Y65879D01*
Y65099D01*
X-9133Y64443D01*
X-6546D01*
Y63582D01*
X-9938D01*
Y64963D01*
X-7870Y65489D01*
X-9938Y66021D01*
Y67401D01*
X-6546D01*
Y66541D01*
D02*
G37*
G36*
Y74638D02*
X-8799D01*
X-8793Y74625D01*
X-8768Y74600D01*
X-8737Y74551D01*
X-8694Y74495D01*
X-8650Y74427D01*
X-8601Y74347D01*
X-8551Y74266D01*
X-8508Y74186D01*
X-8502Y74173D01*
X-8489Y74149D01*
X-8471Y74099D01*
X-8446Y74037D01*
X-8415Y73957D01*
X-8378Y73870D01*
X-8347Y73765D01*
X-8310Y73647D01*
X-9077D01*
Y73653D01*
X-9083Y73666D01*
X-9096Y73691D01*
X-9102Y73728D01*
X-9121Y73765D01*
X-9139Y73814D01*
X-9183Y73920D01*
X-9238Y74037D01*
X-9300Y74161D01*
X-9368Y74285D01*
X-9449Y74390D01*
Y74396D01*
X-9461Y74402D01*
X-9486Y74433D01*
X-9535Y74483D01*
X-9604Y74545D01*
X-9678Y74613D01*
X-9771Y74681D01*
X-9876Y74749D01*
X-9994Y74811D01*
Y75591D01*
X-6546D01*
Y74638D01*
D02*
G37*
G36*
X-5951Y70862D02*
X-6187D01*
Y73282D01*
X-5951D01*
Y70862D01*
D02*
G37*
G36*
X-37255Y258560D02*
X-37199D01*
X-37137Y258554D01*
X-37069Y258547D01*
X-36995Y258535D01*
X-36828Y258504D01*
X-36661Y258454D01*
X-36500Y258393D01*
X-36426Y258349D01*
X-36351Y258306D01*
X-36345D01*
X-36333Y258294D01*
X-36314Y258281D01*
X-36289Y258256D01*
X-36258Y258232D01*
X-36221Y258194D01*
X-36184Y258157D01*
X-36141Y258108D01*
X-36097Y258058D01*
X-36054Y257997D01*
X-36005Y257935D01*
X-35961Y257860D01*
X-35918Y257780D01*
X-35875Y257699D01*
X-35837Y257607D01*
X-35800Y257507D01*
X-36729Y257303D01*
Y257309D01*
X-36735Y257328D01*
X-36747Y257359D01*
X-36760Y257390D01*
X-36797Y257464D01*
X-36815Y257495D01*
X-36834Y257526D01*
X-36840Y257532D01*
X-36846Y257545D01*
X-36871Y257569D01*
X-36896Y257594D01*
X-36964Y257656D01*
X-37051Y257712D01*
X-37057Y257718D01*
X-37069Y257724D01*
X-37100Y257736D01*
X-37131Y257749D01*
X-37174Y257761D01*
X-37224Y257767D01*
X-37280Y257780D01*
X-37373D01*
X-37391Y257774D01*
X-37459Y257767D01*
X-37540Y257743D01*
X-37626Y257712D01*
X-37719Y257656D01*
X-37806Y257588D01*
X-37843Y257538D01*
X-37880Y257489D01*
X-37886Y257476D01*
X-37905Y257452D01*
X-37923Y257396D01*
X-37948Y257328D01*
X-37979Y257235D01*
X-37998Y257124D01*
X-38016Y256988D01*
X-38023Y256826D01*
Y256820D01*
Y256802D01*
Y256771D01*
Y256734D01*
X-38016Y256690D01*
Y256635D01*
X-38004Y256517D01*
X-37979Y256393D01*
X-37954Y256263D01*
X-37911Y256146D01*
X-37886Y256096D01*
X-37855Y256053D01*
X-37849Y256047D01*
X-37824Y256022D01*
X-37781Y255991D01*
X-37732Y255954D01*
X-37663Y255910D01*
X-37577Y255879D01*
X-37484Y255855D01*
X-37373Y255849D01*
X-37323D01*
X-37267Y255855D01*
X-37199Y255867D01*
X-37125Y255892D01*
X-37051Y255917D01*
X-36976Y255960D01*
X-36915Y256016D01*
X-36908Y256022D01*
X-36890Y256047D01*
X-36859Y256084D01*
X-36828Y256139D01*
X-36791Y256207D01*
X-36754Y256294D01*
X-36716Y256393D01*
X-36685Y256511D01*
X-35769Y256226D01*
Y256220D01*
X-35776Y256207D01*
X-35782Y256189D01*
X-35788Y256164D01*
X-35807Y256090D01*
X-35844Y256003D01*
X-35881Y255898D01*
X-35936Y255793D01*
X-35992Y255688D01*
X-36066Y255582D01*
X-36073Y255570D01*
X-36104Y255539D01*
X-36147Y255496D01*
X-36203Y255434D01*
X-36277Y255372D01*
X-36357Y255310D01*
X-36456Y255248D01*
X-36562Y255192D01*
X-36568D01*
X-36574Y255186D01*
X-36593Y255180D01*
X-36611Y255174D01*
X-36679Y255149D01*
X-36766Y255131D01*
X-36871Y255106D01*
X-37001Y255081D01*
X-37150Y255069D01*
X-37311Y255062D01*
X-37404D01*
X-37453Y255069D01*
X-37503D01*
X-37564Y255075D01*
X-37633Y255081D01*
X-37775Y255100D01*
X-37930Y255131D01*
X-38078Y255168D01*
X-38221Y255217D01*
X-38227D01*
X-38233Y255223D01*
X-38252Y255236D01*
X-38276Y255248D01*
X-38344Y255291D01*
X-38425Y255347D01*
X-38518Y255428D01*
X-38623Y255521D01*
X-38722Y255638D01*
X-38821Y255780D01*
Y255787D01*
X-38833Y255799D01*
X-38846Y255824D01*
X-38858Y255855D01*
X-38877Y255892D01*
X-38901Y255941D01*
X-38926Y255997D01*
X-38945Y256065D01*
X-38970Y256133D01*
X-38994Y256214D01*
X-39013Y256300D01*
X-39038Y256393D01*
X-39050Y256492D01*
X-39062Y256597D01*
X-39075Y256820D01*
Y256833D01*
Y256857D01*
X-39069Y256901D01*
Y256957D01*
X-39062Y257031D01*
X-39050Y257111D01*
X-39038Y257198D01*
X-39019Y257297D01*
X-38994Y257402D01*
X-38963Y257507D01*
X-38932Y257613D01*
X-38889Y257724D01*
X-38833Y257829D01*
X-38778Y257928D01*
X-38710Y258027D01*
X-38629Y258114D01*
X-38623Y258120D01*
X-38611Y258133D01*
X-38580Y258157D01*
X-38549Y258182D01*
X-38499Y258219D01*
X-38443Y258256D01*
X-38381Y258300D01*
X-38301Y258343D01*
X-38221Y258380D01*
X-38122Y258424D01*
X-38016Y258461D01*
X-37905Y258498D01*
X-37781Y258523D01*
X-37651Y258547D01*
X-37509Y258560D01*
X-37360Y258566D01*
X-37298D01*
X-37255Y258560D01*
D02*
G37*
G36*
X33388Y231375D02*
X32434D01*
Y233628D01*
X32422Y233622D01*
X32397Y233597D01*
X32348Y233566D01*
X32292Y233523D01*
X32224Y233479D01*
X32144Y233430D01*
X32063Y233380D01*
X31983Y233337D01*
X31970Y233331D01*
X31945Y233318D01*
X31896Y233300D01*
X31834Y233275D01*
X31754Y233244D01*
X31667Y233207D01*
X31562Y233176D01*
X31444Y233139D01*
Y233907D01*
X31450D01*
X31463Y233913D01*
X31487Y233925D01*
X31525Y233931D01*
X31562Y233950D01*
X31611Y233968D01*
X31716Y234012D01*
X31834Y234068D01*
X31958Y234129D01*
X32082Y234197D01*
X32187Y234278D01*
X32193D01*
X32199Y234290D01*
X32230Y234315D01*
X32280Y234365D01*
X32342Y234433D01*
X32410Y234507D01*
X32478Y234600D01*
X32546Y234705D01*
X32608Y234823D01*
X33388D01*
Y231375D01*
D02*
G37*
G36*
X-55122Y229206D02*
X-55067D01*
X-55005Y229200D01*
X-54937Y229194D01*
X-54862Y229181D01*
X-54695Y229151D01*
X-54528Y229101D01*
X-54367Y229039D01*
X-54293Y228996D01*
X-54219Y228952D01*
X-54212D01*
X-54200Y228940D01*
X-54181Y228928D01*
X-54157Y228903D01*
X-54126Y228878D01*
X-54089Y228841D01*
X-54052Y228804D01*
X-54008Y228754D01*
X-53965Y228705D01*
X-53922Y228643D01*
X-53872Y228581D01*
X-53829Y228507D01*
X-53785Y228426D01*
X-53742Y228346D01*
X-53705Y228253D01*
X-53668Y228154D01*
X-54596Y227950D01*
Y227956D01*
X-54602Y227974D01*
X-54615Y228005D01*
X-54627Y228036D01*
X-54664Y228111D01*
X-54683Y228141D01*
X-54701Y228172D01*
X-54708Y228179D01*
X-54714Y228191D01*
X-54738Y228216D01*
X-54763Y228241D01*
X-54831Y228303D01*
X-54918Y228358D01*
X-54924Y228364D01*
X-54937Y228371D01*
X-54968Y228383D01*
X-54998Y228395D01*
X-55042Y228408D01*
X-55091Y228414D01*
X-55147Y228426D01*
X-55240D01*
X-55259Y228420D01*
X-55327Y228414D01*
X-55407Y228389D01*
X-55494Y228358D01*
X-55587Y228303D01*
X-55673Y228234D01*
X-55710Y228185D01*
X-55747Y228135D01*
X-55754Y228123D01*
X-55772Y228098D01*
X-55791Y228043D01*
X-55816Y227974D01*
X-55847Y227882D01*
X-55865Y227770D01*
X-55884Y227634D01*
X-55890Y227473D01*
Y227467D01*
Y227448D01*
Y227417D01*
Y227380D01*
X-55884Y227337D01*
Y227281D01*
X-55871Y227164D01*
X-55847Y227040D01*
X-55822Y226910D01*
X-55778Y226792D01*
X-55754Y226743D01*
X-55723Y226699D01*
X-55717Y226693D01*
X-55692Y226668D01*
X-55648Y226637D01*
X-55599Y226600D01*
X-55531Y226557D01*
X-55444Y226526D01*
X-55351Y226501D01*
X-55240Y226495D01*
X-55190D01*
X-55135Y226501D01*
X-55067Y226514D01*
X-54992Y226538D01*
X-54918Y226563D01*
X-54844Y226606D01*
X-54782Y226662D01*
X-54776Y226668D01*
X-54757Y226693D01*
X-54726Y226730D01*
X-54695Y226786D01*
X-54658Y226854D01*
X-54621Y226941D01*
X-54584Y227040D01*
X-54553Y227157D01*
X-53637Y226873D01*
Y226866D01*
X-53643Y226854D01*
X-53649Y226835D01*
X-53655Y226811D01*
X-53674Y226736D01*
X-53711Y226650D01*
X-53748Y226544D01*
X-53804Y226439D01*
X-53860Y226334D01*
X-53934Y226229D01*
X-53940Y226216D01*
X-53971Y226185D01*
X-54014Y226142D01*
X-54070Y226080D01*
X-54144Y226018D01*
X-54225Y225957D01*
X-54324Y225895D01*
X-54429Y225839D01*
X-54435D01*
X-54441Y225833D01*
X-54460Y225827D01*
X-54479Y225820D01*
X-54547Y225796D01*
X-54633Y225777D01*
X-54738Y225752D01*
X-54869Y225727D01*
X-55017Y225715D01*
X-55178Y225709D01*
X-55271D01*
X-55320Y225715D01*
X-55370D01*
X-55432Y225721D01*
X-55500Y225727D01*
X-55642Y225746D01*
X-55797Y225777D01*
X-55946Y225814D01*
X-56088Y225864D01*
X-56094D01*
X-56100Y225870D01*
X-56119Y225882D01*
X-56144Y225895D01*
X-56212Y225938D01*
X-56292Y225994D01*
X-56385Y226074D01*
X-56490Y226167D01*
X-56589Y226285D01*
X-56688Y226427D01*
Y226433D01*
X-56701Y226446D01*
X-56713Y226470D01*
X-56726Y226501D01*
X-56744Y226538D01*
X-56769Y226588D01*
X-56794Y226644D01*
X-56812Y226712D01*
X-56837Y226780D01*
X-56862Y226860D01*
X-56880Y226947D01*
X-56905Y227040D01*
X-56917Y227139D01*
X-56930Y227244D01*
X-56942Y227467D01*
Y227479D01*
Y227504D01*
X-56936Y227547D01*
Y227603D01*
X-56930Y227677D01*
X-56917Y227758D01*
X-56905Y227844D01*
X-56887Y227943D01*
X-56862Y228049D01*
X-56831Y228154D01*
X-56800Y228259D01*
X-56757Y228371D01*
X-56701Y228476D01*
X-56645Y228575D01*
X-56577Y228674D01*
X-56497Y228761D01*
X-56490Y228767D01*
X-56478Y228779D01*
X-56447Y228804D01*
X-56416Y228829D01*
X-56366Y228866D01*
X-56311Y228903D01*
X-56249Y228946D01*
X-56168Y228990D01*
X-56088Y229027D01*
X-55989Y229070D01*
X-55884Y229107D01*
X-55772Y229144D01*
X-55648Y229169D01*
X-55519Y229194D01*
X-55376Y229206D01*
X-55228Y229212D01*
X-55166D01*
X-55122Y229206D01*
D02*
G37*
G36*
X29408Y234816D02*
X29463D01*
X29525Y234810D01*
X29593Y234804D01*
X29668Y234792D01*
X29835Y234761D01*
X30002Y234711D01*
X30163Y234649D01*
X30237Y234606D01*
X30311Y234563D01*
X30318D01*
X30330Y234550D01*
X30349Y234538D01*
X30373Y234513D01*
X30404Y234488D01*
X30441Y234451D01*
X30479Y234414D01*
X30522Y234365D01*
X30565Y234315D01*
X30608Y234253D01*
X30658Y234191D01*
X30701Y234117D01*
X30745Y234036D01*
X30788Y233956D01*
X30825Y233863D01*
X30862Y233764D01*
X29934Y233560D01*
Y233566D01*
X29928Y233585D01*
X29915Y233616D01*
X29903Y233646D01*
X29866Y233721D01*
X29847Y233752D01*
X29829Y233783D01*
X29822Y233789D01*
X29816Y233801D01*
X29791Y233826D01*
X29767Y233851D01*
X29699Y233913D01*
X29612Y233968D01*
X29606Y233975D01*
X29593Y233981D01*
X29562Y233993D01*
X29531Y234006D01*
X29488Y234018D01*
X29438Y234024D01*
X29383Y234036D01*
X29290D01*
X29271Y234030D01*
X29203Y234024D01*
X29123Y233999D01*
X29036Y233968D01*
X28943Y233913D01*
X28857Y233845D01*
X28820Y233795D01*
X28782Y233746D01*
X28776Y233733D01*
X28758Y233708D01*
X28739Y233653D01*
X28714Y233585D01*
X28683Y233492D01*
X28665Y233380D01*
X28646Y233244D01*
X28640Y233083D01*
Y233077D01*
Y233059D01*
Y233028D01*
Y232990D01*
X28646Y232947D01*
Y232891D01*
X28659Y232774D01*
X28683Y232650D01*
X28708Y232520D01*
X28752Y232402D01*
X28776Y232353D01*
X28807Y232310D01*
X28813Y232303D01*
X28838Y232278D01*
X28881Y232248D01*
X28931Y232210D01*
X28999Y232167D01*
X29086Y232136D01*
X29179Y232111D01*
X29290Y232105D01*
X29340D01*
X29395Y232111D01*
X29463Y232124D01*
X29538Y232149D01*
X29612Y232173D01*
X29686Y232217D01*
X29748Y232272D01*
X29754Y232278D01*
X29773Y232303D01*
X29804Y232341D01*
X29835Y232396D01*
X29872Y232464D01*
X29909Y232551D01*
X29946Y232650D01*
X29977Y232768D01*
X30893Y232483D01*
Y232477D01*
X30887Y232464D01*
X30881Y232446D01*
X30875Y232421D01*
X30856Y232347D01*
X30819Y232260D01*
X30782Y232155D01*
X30726Y232049D01*
X30670Y231944D01*
X30596Y231839D01*
X30590Y231827D01*
X30559Y231796D01*
X30516Y231752D01*
X30460Y231691D01*
X30386Y231629D01*
X30305Y231567D01*
X30206Y231505D01*
X30101Y231449D01*
X30095D01*
X30088Y231443D01*
X30070Y231437D01*
X30051Y231431D01*
X29983Y231406D01*
X29897Y231387D01*
X29791Y231362D01*
X29661Y231338D01*
X29513Y231325D01*
X29352Y231319D01*
X29259D01*
X29210Y231325D01*
X29160D01*
X29098Y231331D01*
X29030Y231338D01*
X28888Y231356D01*
X28733Y231387D01*
X28584Y231424D01*
X28442Y231474D01*
X28436D01*
X28430Y231480D01*
X28411Y231492D01*
X28386Y231505D01*
X28318Y231548D01*
X28238Y231604D01*
X28145Y231684D01*
X28040Y231777D01*
X27941Y231895D01*
X27841Y232037D01*
Y232043D01*
X27829Y232056D01*
X27817Y232081D01*
X27804Y232111D01*
X27786Y232149D01*
X27761Y232198D01*
X27736Y232254D01*
X27718Y232322D01*
X27693Y232390D01*
X27668Y232470D01*
X27650Y232557D01*
X27625Y232650D01*
X27613Y232749D01*
X27600Y232854D01*
X27588Y233077D01*
Y233089D01*
Y233114D01*
X27594Y233157D01*
Y233213D01*
X27600Y233288D01*
X27613Y233368D01*
X27625Y233455D01*
X27643Y233554D01*
X27668Y233659D01*
X27699Y233764D01*
X27730Y233869D01*
X27773Y233981D01*
X27829Y234086D01*
X27885Y234185D01*
X27953Y234284D01*
X28033Y234371D01*
X28040Y234377D01*
X28052Y234389D01*
X28083Y234414D01*
X28114Y234439D01*
X28163Y234476D01*
X28219Y234513D01*
X28281Y234557D01*
X28361Y234600D01*
X28442Y234637D01*
X28541Y234680D01*
X28646Y234717D01*
X28758Y234755D01*
X28881Y234779D01*
X29011Y234804D01*
X29154Y234816D01*
X29302Y234823D01*
X29364D01*
X29408Y234816D01*
D02*
G37*
G36*
X35901D02*
X35950D01*
X36062Y234810D01*
X36186Y234792D01*
X36316Y234773D01*
X36439Y234742D01*
X36551Y234705D01*
X36557D01*
X36563Y234699D01*
X36594Y234686D01*
X36650Y234655D01*
X36712Y234618D01*
X36780Y234569D01*
X36854Y234513D01*
X36928Y234439D01*
X36990Y234358D01*
X36996Y234346D01*
X37015Y234315D01*
X37040Y234272D01*
X37071Y234204D01*
X37102Y234129D01*
X37126Y234036D01*
X37145Y233938D01*
X37151Y233832D01*
Y233826D01*
Y233820D01*
Y233801D01*
Y233783D01*
X37139Y233721D01*
X37126Y233640D01*
X37108Y233554D01*
X37071Y233449D01*
X37027Y233343D01*
X36966Y233238D01*
X36959Y233226D01*
X36928Y233189D01*
X36885Y233133D01*
X36817Y233059D01*
X36724Y232966D01*
X36669Y232916D01*
X36613Y232860D01*
X36545Y232805D01*
X36470Y232743D01*
X36390Y232681D01*
X36303Y232619D01*
X36291Y232613D01*
X36260Y232588D01*
X36210Y232551D01*
X36149Y232508D01*
X36087Y232464D01*
X36018Y232421D01*
X35963Y232378D01*
X35919Y232341D01*
X35913Y232334D01*
X35901Y232328D01*
X35882Y232310D01*
X35858Y232291D01*
X35789Y232223D01*
X35697Y232142D01*
X37176D01*
Y231375D01*
X34341D01*
Y231381D01*
Y231393D01*
X34347Y231418D01*
X34353Y231443D01*
X34360Y231480D01*
X34366Y231523D01*
X34397Y231629D01*
X34434Y231746D01*
X34483Y231876D01*
X34552Y232019D01*
X34632Y232155D01*
X34638Y232161D01*
X34644Y232173D01*
X34657Y232192D01*
X34681Y232223D01*
X34712Y232254D01*
X34743Y232297D01*
X34793Y232347D01*
X34842Y232402D01*
X34898Y232464D01*
X34966Y232532D01*
X35041Y232600D01*
X35127Y232681D01*
X35220Y232761D01*
X35325Y232848D01*
X35437Y232935D01*
X35561Y233028D01*
X35567Y233034D01*
X35579Y233040D01*
X35598Y233059D01*
X35629Y233077D01*
X35697Y233133D01*
X35783Y233201D01*
X35870Y233281D01*
X35963Y233356D01*
X36037Y233430D01*
X36068Y233467D01*
X36093Y233498D01*
X36099Y233504D01*
X36111Y233523D01*
X36130Y233554D01*
X36155Y233597D01*
X36173Y233640D01*
X36192Y233696D01*
X36204Y233746D01*
X36210Y233801D01*
Y233807D01*
Y233826D01*
X36204Y233857D01*
X36198Y233894D01*
X36180Y233938D01*
X36161Y233981D01*
X36130Y234024D01*
X36093Y234068D01*
X36087Y234074D01*
X36074Y234086D01*
X36050Y234105D01*
X36012Y234123D01*
X35969Y234142D01*
X35919Y234160D01*
X35864Y234173D01*
X35802Y234179D01*
X35771D01*
X35740Y234173D01*
X35697Y234167D01*
X35653Y234148D01*
X35604Y234129D01*
X35554Y234098D01*
X35505Y234061D01*
X35499Y234055D01*
X35486Y234043D01*
X35468Y234012D01*
X35443Y233968D01*
X35418Y233913D01*
X35393Y233845D01*
X35375Y233764D01*
X35356Y233665D01*
X34409Y233739D01*
Y233746D01*
Y233758D01*
X34415Y233776D01*
X34422Y233807D01*
X34434Y233876D01*
X34452Y233968D01*
X34483Y234068D01*
X34514Y234167D01*
X34558Y234265D01*
X34607Y234358D01*
X34613Y234371D01*
X34632Y234396D01*
X34669Y234433D01*
X34719Y234482D01*
X34774Y234538D01*
X34849Y234594D01*
X34929Y234649D01*
X35028Y234699D01*
X35034D01*
X35041Y234705D01*
X35078Y234717D01*
X35140Y234736D01*
X35226Y234761D01*
X35331Y234786D01*
X35461Y234804D01*
X35610Y234816D01*
X35777Y234823D01*
X35858D01*
X35901Y234816D01*
D02*
G37*
G36*
X-47979Y225765D02*
X-48932D01*
Y228018D01*
X-48945Y228011D01*
X-48970Y227987D01*
X-49019Y227956D01*
X-49075Y227912D01*
X-49143Y227869D01*
X-49223Y227820D01*
X-49304Y227770D01*
X-49384Y227727D01*
X-49397Y227721D01*
X-49421Y227708D01*
X-49471Y227690D01*
X-49533Y227665D01*
X-49613Y227634D01*
X-49700Y227597D01*
X-49805Y227566D01*
X-49923Y227529D01*
Y228296D01*
X-49916D01*
X-49904Y228303D01*
X-49879Y228315D01*
X-49842Y228321D01*
X-49805Y228340D01*
X-49756Y228358D01*
X-49650Y228401D01*
X-49533Y228457D01*
X-49409Y228519D01*
X-49285Y228587D01*
X-49180Y228668D01*
X-49174D01*
X-49167Y228680D01*
X-49137Y228705D01*
X-49087Y228754D01*
X-49025Y228822D01*
X-48957Y228897D01*
X-48889Y228990D01*
X-48821Y229095D01*
X-48759Y229212D01*
X-47979D01*
Y225765D01*
D02*
G37*
G36*
X-51166Y212969D02*
X-52119D01*
Y215222D01*
X-52131Y215216D01*
X-52156Y215192D01*
X-52206Y215161D01*
X-52261Y215117D01*
X-52329Y215074D01*
X-52410Y215024D01*
X-52490Y214975D01*
X-52571Y214932D01*
X-52583Y214925D01*
X-52608Y214913D01*
X-52657Y214894D01*
X-52719Y214870D01*
X-52800Y214839D01*
X-52886Y214802D01*
X-52992Y214771D01*
X-53109Y214733D01*
Y215501D01*
X-53103D01*
X-53091Y215507D01*
X-53066Y215520D01*
X-53029Y215526D01*
X-52992Y215544D01*
X-52942Y215563D01*
X-52837Y215606D01*
X-52719Y215662D01*
X-52596Y215724D01*
X-52472Y215792D01*
X-52367Y215872D01*
X-52360D01*
X-52354Y215885D01*
X-52323Y215910D01*
X-52274Y215959D01*
X-52212Y216027D01*
X-52144Y216101D01*
X-52076Y216194D01*
X-52008Y216300D01*
X-51946Y216417D01*
X-51166D01*
Y212969D01*
D02*
G37*
G36*
X-48615Y216411D02*
X-48535Y216405D01*
X-48448Y216399D01*
X-48355Y216380D01*
X-48263Y216361D01*
X-48176Y216331D01*
X-48164Y216324D01*
X-48139Y216318D01*
X-48095Y216293D01*
X-48046Y216269D01*
X-47990Y216238D01*
X-47928Y216200D01*
X-47873Y216157D01*
X-47817Y216108D01*
X-47811Y216101D01*
X-47792Y216083D01*
X-47767Y216058D01*
X-47736Y216021D01*
X-47699Y215984D01*
X-47662Y215934D01*
X-47594Y215823D01*
X-47588Y215817D01*
X-47582Y215798D01*
X-47563Y215767D01*
X-47545Y215724D01*
X-47526Y215674D01*
X-47507Y215612D01*
X-47483Y215550D01*
X-47464Y215476D01*
Y215470D01*
X-47458Y215458D01*
X-47452Y215439D01*
X-47445Y215408D01*
X-47439Y215377D01*
X-47433Y215334D01*
X-47414Y215235D01*
X-47396Y215117D01*
X-47377Y214987D01*
X-47371Y214839D01*
X-47365Y214690D01*
Y214678D01*
Y214647D01*
Y214603D01*
X-47371Y214542D01*
X-47377Y214461D01*
X-47384Y214374D01*
X-47390Y214282D01*
X-47402Y214176D01*
X-47439Y213953D01*
X-47495Y213731D01*
X-47532Y213625D01*
X-47576Y213520D01*
X-47625Y213427D01*
X-47681Y213341D01*
X-47687Y213334D01*
X-47693Y213322D01*
X-47712Y213303D01*
X-47743Y213273D01*
X-47780Y213242D01*
X-47823Y213205D01*
X-47873Y213167D01*
X-47934Y213130D01*
X-48003Y213087D01*
X-48083Y213050D01*
X-48170Y213013D01*
X-48269Y212982D01*
X-48374Y212951D01*
X-48492Y212932D01*
X-48622Y212920D01*
X-48758Y212914D01*
X-48832D01*
X-48869Y212920D01*
X-48906D01*
X-49005Y212932D01*
X-49117Y212945D01*
X-49234Y212969D01*
X-49352Y213006D01*
X-49457Y213050D01*
X-49470Y213056D01*
X-49501Y213074D01*
X-49550Y213106D01*
X-49606Y213149D01*
X-49680Y213205D01*
X-49748Y213273D01*
X-49822Y213353D01*
X-49891Y213446D01*
X-49897Y213452D01*
X-49909Y213483D01*
X-49934Y213520D01*
X-49959Y213582D01*
X-49990Y213650D01*
X-50020Y213737D01*
X-50051Y213842D01*
X-50076Y213953D01*
Y213960D01*
Y213966D01*
X-50082Y213984D01*
X-50089Y214009D01*
X-50095Y214077D01*
X-50107Y214170D01*
X-50120Y214275D01*
X-50132Y214399D01*
X-50138Y214535D01*
X-50144Y214678D01*
Y214690D01*
Y214721D01*
Y214771D01*
X-50138Y214832D01*
X-50132Y214913D01*
X-50126Y215006D01*
X-50113Y215105D01*
X-50101Y215210D01*
X-50058Y215433D01*
X-49996Y215656D01*
X-49959Y215761D01*
X-49909Y215860D01*
X-49860Y215947D01*
X-49798Y216027D01*
X-49791Y216033D01*
X-49779Y216046D01*
X-49760Y216064D01*
X-49730Y216089D01*
X-49692Y216120D01*
X-49649Y216151D01*
X-49593Y216188D01*
X-49531Y216225D01*
X-49463Y216256D01*
X-49383Y216293D01*
X-49296Y216324D01*
X-49203Y216355D01*
X-49098Y216380D01*
X-48987Y216399D01*
X-48863Y216411D01*
X-48733Y216417D01*
X-48677D01*
X-48615Y216411D01*
D02*
G37*
G36*
X-51142Y225765D02*
X-52095D01*
Y228018D01*
X-52108Y228011D01*
X-52133Y227987D01*
X-52182Y227956D01*
X-52238Y227912D01*
X-52306Y227869D01*
X-52386Y227820D01*
X-52467Y227770D01*
X-52547Y227727D01*
X-52560Y227721D01*
X-52584Y227708D01*
X-52634Y227690D01*
X-52696Y227665D01*
X-52776Y227634D01*
X-52863Y227597D01*
X-52968Y227566D01*
X-53086Y227529D01*
Y228296D01*
X-53080D01*
X-53067Y228303D01*
X-53043Y228315D01*
X-53005Y228321D01*
X-52968Y228340D01*
X-52919Y228358D01*
X-52814Y228401D01*
X-52696Y228457D01*
X-52572Y228519D01*
X-52448Y228587D01*
X-52343Y228668D01*
X-52337D01*
X-52331Y228680D01*
X-52300Y228705D01*
X-52250Y228754D01*
X-52188Y228822D01*
X-52120Y228897D01*
X-52052Y228990D01*
X-51984Y229095D01*
X-51922Y229212D01*
X-51142D01*
Y225765D01*
D02*
G37*
G36*
X-55146Y216411D02*
X-55090D01*
X-55028Y216405D01*
X-54960Y216399D01*
X-54886Y216386D01*
X-54719Y216355D01*
X-54552Y216306D01*
X-54391Y216244D01*
X-54316Y216200D01*
X-54242Y216157D01*
X-54236D01*
X-54224Y216145D01*
X-54205Y216132D01*
X-54180Y216108D01*
X-54149Y216083D01*
X-54112Y216046D01*
X-54075Y216009D01*
X-54032Y215959D01*
X-53988Y215910D01*
X-53945Y215848D01*
X-53895Y215786D01*
X-53852Y215711D01*
X-53809Y215631D01*
X-53765Y215550D01*
X-53728Y215458D01*
X-53691Y215359D01*
X-54620Y215154D01*
Y215161D01*
X-54626Y215179D01*
X-54638Y215210D01*
X-54651Y215241D01*
X-54688Y215315D01*
X-54706Y215346D01*
X-54725Y215377D01*
X-54731Y215383D01*
X-54737Y215396D01*
X-54762Y215421D01*
X-54787Y215445D01*
X-54855Y215507D01*
X-54942Y215563D01*
X-54948Y215569D01*
X-54960Y215575D01*
X-54991Y215588D01*
X-55022Y215600D01*
X-55065Y215612D01*
X-55115Y215619D01*
X-55171Y215631D01*
X-55263D01*
X-55282Y215625D01*
X-55350Y215619D01*
X-55431Y215594D01*
X-55517Y215563D01*
X-55610Y215507D01*
X-55697Y215439D01*
X-55734Y215390D01*
X-55771Y215340D01*
X-55777Y215328D01*
X-55796Y215303D01*
X-55814Y215247D01*
X-55839Y215179D01*
X-55870Y215086D01*
X-55889Y214975D01*
X-55907Y214839D01*
X-55913Y214678D01*
Y214671D01*
Y214653D01*
Y214622D01*
Y214585D01*
X-55907Y214542D01*
Y214486D01*
X-55895Y214368D01*
X-55870Y214244D01*
X-55845Y214114D01*
X-55802Y213997D01*
X-55777Y213947D01*
X-55746Y213904D01*
X-55740Y213898D01*
X-55715Y213873D01*
X-55672Y213842D01*
X-55623Y213805D01*
X-55554Y213762D01*
X-55468Y213731D01*
X-55375Y213706D01*
X-55263Y213700D01*
X-55214D01*
X-55158Y213706D01*
X-55090Y213718D01*
X-55016Y213743D01*
X-54942Y213768D01*
X-54867Y213811D01*
X-54805Y213867D01*
X-54799Y213873D01*
X-54781Y213898D01*
X-54750Y213935D01*
X-54719Y213991D01*
X-54682Y214059D01*
X-54644Y214145D01*
X-54607Y214244D01*
X-54576Y214362D01*
X-53660Y214077D01*
Y214071D01*
X-53666Y214059D01*
X-53673Y214040D01*
X-53679Y214015D01*
X-53697Y213941D01*
X-53734Y213855D01*
X-53772Y213749D01*
X-53827Y213644D01*
X-53883Y213539D01*
X-53957Y213434D01*
X-53964Y213421D01*
X-53995Y213390D01*
X-54038Y213347D01*
X-54093Y213285D01*
X-54168Y213223D01*
X-54248Y213161D01*
X-54347Y213099D01*
X-54453Y213044D01*
X-54459D01*
X-54465Y213037D01*
X-54483Y213031D01*
X-54502Y213025D01*
X-54570Y213000D01*
X-54657Y212982D01*
X-54762Y212957D01*
X-54892Y212932D01*
X-55041Y212920D01*
X-55202Y212914D01*
X-55294D01*
X-55344Y212920D01*
X-55393D01*
X-55455Y212926D01*
X-55523Y212932D01*
X-55666Y212951D01*
X-55821Y212982D01*
X-55969Y213019D01*
X-56112Y213068D01*
X-56118D01*
X-56124Y213074D01*
X-56142Y213087D01*
X-56167Y213099D01*
X-56235Y213143D01*
X-56316Y213198D01*
X-56409Y213279D01*
X-56514Y213372D01*
X-56613Y213489D01*
X-56712Y213632D01*
Y213638D01*
X-56724Y213650D01*
X-56737Y213675D01*
X-56749Y213706D01*
X-56768Y213743D01*
X-56792Y213793D01*
X-56817Y213848D01*
X-56836Y213916D01*
X-56861Y213984D01*
X-56885Y214065D01*
X-56904Y214152D01*
X-56928Y214244D01*
X-56941Y214344D01*
X-56953Y214449D01*
X-56966Y214671D01*
Y214684D01*
Y214709D01*
X-56959Y214752D01*
Y214808D01*
X-56953Y214882D01*
X-56941Y214963D01*
X-56928Y215049D01*
X-56910Y215148D01*
X-56885Y215253D01*
X-56854Y215359D01*
X-56823Y215464D01*
X-56780Y215575D01*
X-56724Y215681D01*
X-56669Y215780D01*
X-56600Y215879D01*
X-56520Y215965D01*
X-56514Y215971D01*
X-56501Y215984D01*
X-56471Y216009D01*
X-56440Y216033D01*
X-56390Y216071D01*
X-56334Y216108D01*
X-56272Y216151D01*
X-56192Y216194D01*
X-56112Y216231D01*
X-56012Y216275D01*
X-55907Y216312D01*
X-55796Y216349D01*
X-55672Y216374D01*
X-55542Y216399D01*
X-55400Y216411D01*
X-55251Y216417D01*
X-55189D01*
X-55146Y216411D01*
D02*
G37*
G36*
X-24584Y186100D02*
X-25617Y185537D01*
X-25623Y185530D01*
X-25648Y185518D01*
X-25685Y185500D01*
X-25722Y185475D01*
X-25809Y185413D01*
X-25846Y185376D01*
X-25877Y185345D01*
X-25883Y185338D01*
X-25890Y185326D01*
X-25902Y185301D01*
X-25921Y185270D01*
X-25933Y185233D01*
X-25945Y185190D01*
X-25951Y185140D01*
X-25958Y185085D01*
Y184998D01*
X-24584D01*
Y183946D01*
X-27976D01*
Y185691D01*
Y185697D01*
Y185716D01*
Y185741D01*
Y185772D01*
Y185815D01*
X-27969Y185859D01*
X-27963Y185970D01*
X-27957Y186088D01*
X-27939Y186211D01*
X-27920Y186329D01*
X-27889Y186434D01*
X-27883Y186446D01*
X-27870Y186477D01*
X-27852Y186527D01*
X-27821Y186583D01*
X-27777Y186651D01*
X-27722Y186719D01*
X-27660Y186787D01*
X-27579Y186849D01*
X-27567Y186855D01*
X-27542Y186874D01*
X-27493Y186898D01*
X-27425Y186929D01*
X-27344Y186960D01*
X-27251Y186985D01*
X-27146Y187004D01*
X-27029Y187010D01*
X-26979D01*
X-26930Y187004D01*
X-26861Y186997D01*
X-26787Y186979D01*
X-26707Y186960D01*
X-26620Y186929D01*
X-26539Y186886D01*
X-26533Y186880D01*
X-26509Y186867D01*
X-26471Y186837D01*
X-26422Y186799D01*
X-26372Y186750D01*
X-26317Y186694D01*
X-26261Y186626D01*
X-26212Y186552D01*
X-26205Y186546D01*
X-26199Y186527D01*
X-26180Y186496D01*
X-26162Y186459D01*
X-26143Y186403D01*
X-26119Y186341D01*
X-26100Y186267D01*
X-26075Y186187D01*
Y186193D01*
X-26063Y186217D01*
X-26050Y186248D01*
X-26038Y186292D01*
X-25995Y186378D01*
X-25976Y186422D01*
X-25951Y186459D01*
X-25945Y186471D01*
X-25933Y186484D01*
X-25914Y186502D01*
X-25890Y186527D01*
X-25859Y186552D01*
X-25822Y186589D01*
X-25772Y186626D01*
X-25766Y186632D01*
X-25747Y186645D01*
X-25722Y186663D01*
X-25698Y186688D01*
X-25623Y186737D01*
X-25592Y186756D01*
X-25561Y186775D01*
X-24584Y187288D01*
Y186100D01*
D02*
G37*
G36*
X5043Y188561D02*
X2789D01*
X2796Y188549D01*
X2820Y188524D01*
X2851Y188474D01*
X2895Y188419D01*
X2938Y188351D01*
X2987Y188270D01*
X3037Y188190D01*
X3080Y188109D01*
X3087Y188097D01*
X3099Y188072D01*
X3117Y188022D01*
X3142Y187961D01*
X3173Y187880D01*
X3210Y187794D01*
X3241Y187688D01*
X3278Y187571D01*
X2511D01*
Y187577D01*
X2505Y187589D01*
X2492Y187614D01*
X2486Y187651D01*
X2468Y187688D01*
X2449Y187738D01*
X2406Y187843D01*
X2350Y187961D01*
X2288Y188084D01*
X2220Y188208D01*
X2139Y188313D01*
Y188320D01*
X2127Y188326D01*
X2102Y188357D01*
X2053Y188406D01*
X1985Y188468D01*
X1910Y188536D01*
X1818Y188604D01*
X1712Y188672D01*
X1595Y188734D01*
Y189514D01*
X5043D01*
Y188561D01*
D02*
G37*
G36*
Y186004D02*
X4009Y185441D01*
X4003Y185435D01*
X3978Y185423D01*
X3941Y185404D01*
X3904Y185379D01*
X3817Y185318D01*
X3780Y185280D01*
X3749Y185249D01*
X3743Y185243D01*
X3736Y185231D01*
X3724Y185206D01*
X3706Y185175D01*
X3693Y185138D01*
X3681Y185095D01*
X3675Y185045D01*
X3668Y184989D01*
Y184903D01*
X5043D01*
Y183850D01*
X1650D01*
Y185596D01*
Y185602D01*
Y185621D01*
Y185645D01*
Y185677D01*
Y185720D01*
X1657Y185763D01*
X1663Y185875D01*
X1669Y185992D01*
X1688Y186116D01*
X1706Y186234D01*
X1737Y186339D01*
X1743Y186351D01*
X1756Y186382D01*
X1774Y186432D01*
X1805Y186487D01*
X1849Y186556D01*
X1904Y186624D01*
X1966Y186692D01*
X2047Y186753D01*
X2059Y186760D01*
X2084Y186778D01*
X2133Y186803D01*
X2201Y186834D01*
X2282Y186865D01*
X2375Y186890D01*
X2480Y186908D01*
X2598Y186915D01*
X2647D01*
X2696Y186908D01*
X2765Y186902D01*
X2839Y186883D01*
X2919Y186865D01*
X3006Y186834D01*
X3087Y186791D01*
X3093Y186785D01*
X3117Y186772D01*
X3155Y186741D01*
X3204Y186704D01*
X3254Y186654D01*
X3309Y186599D01*
X3365Y186531D01*
X3415Y186456D01*
X3421Y186450D01*
X3427Y186432D01*
X3446Y186401D01*
X3464Y186364D01*
X3483Y186308D01*
X3507Y186246D01*
X3526Y186172D01*
X3551Y186091D01*
Y186097D01*
X3563Y186122D01*
X3576Y186153D01*
X3588Y186196D01*
X3631Y186283D01*
X3650Y186326D01*
X3675Y186364D01*
X3681Y186376D01*
X3693Y186388D01*
X3712Y186407D01*
X3736Y186432D01*
X3767Y186456D01*
X3805Y186494D01*
X3854Y186531D01*
X3860Y186537D01*
X3879Y186549D01*
X3904Y186568D01*
X3928Y186593D01*
X4003Y186642D01*
X4034Y186661D01*
X4064Y186679D01*
X5043Y187193D01*
Y186004D01*
D02*
G37*
G36*
X4145Y193309D02*
X4207Y193303D01*
X4281Y193284D01*
X4362Y193265D01*
X4442Y193235D01*
X4529Y193197D01*
X4541Y193191D01*
X4566Y193179D01*
X4603Y193154D01*
X4653Y193117D01*
X4708Y193073D01*
X4764Y193024D01*
X4820Y192968D01*
X4869Y192906D01*
X4875Y192900D01*
X4888Y192876D01*
X4906Y192838D01*
X4937Y192789D01*
X4962Y192727D01*
X4993Y192659D01*
X5018Y192572D01*
X5043Y192479D01*
Y192467D01*
X5049Y192436D01*
X5061Y192386D01*
X5067Y192318D01*
X5080Y192238D01*
X5092Y192145D01*
X5098Y192046D01*
Y191941D01*
Y191935D01*
Y191916D01*
Y191891D01*
Y191854D01*
X5092Y191805D01*
Y191755D01*
X5080Y191637D01*
X5067Y191501D01*
X5049Y191365D01*
X5018Y191229D01*
X4974Y191111D01*
X4968Y191099D01*
X4950Y191062D01*
X4919Y191012D01*
X4875Y190950D01*
X4826Y190882D01*
X4758Y190808D01*
X4684Y190740D01*
X4597Y190678D01*
X4584Y190672D01*
X4553Y190653D01*
X4504Y190635D01*
X4436Y190610D01*
X4355Y190579D01*
X4263Y190560D01*
X4157Y190542D01*
X4046Y190536D01*
X3996D01*
X3941Y190542D01*
X3866Y190554D01*
X3786Y190567D01*
X3706Y190591D01*
X3619Y190629D01*
X3538Y190672D01*
X3526Y190678D01*
X3501Y190697D01*
X3464Y190727D01*
X3421Y190777D01*
X3365Y190839D01*
X3316Y190907D01*
X3260Y191000D01*
X3216Y191099D01*
X3210Y191086D01*
X3198Y191062D01*
X3173Y191025D01*
X3142Y190975D01*
X3099Y190926D01*
X3056Y190870D01*
X3006Y190820D01*
X2957Y190777D01*
X2950Y190771D01*
X2919Y190759D01*
X2882Y190734D01*
X2826Y190709D01*
X2758Y190684D01*
X2678Y190659D01*
X2591Y190647D01*
X2498Y190641D01*
X2455D01*
X2430Y190647D01*
X2393Y190653D01*
X2350Y190659D01*
X2251Y190690D01*
X2146Y190740D01*
X2084Y190771D01*
X2028Y190808D01*
X1972Y190851D01*
X1910Y190907D01*
X1855Y190969D01*
X1805Y191037D01*
Y191043D01*
X1799Y191049D01*
X1787Y191068D01*
X1774Y191093D01*
X1756Y191124D01*
X1737Y191167D01*
X1719Y191210D01*
X1700Y191260D01*
X1663Y191377D01*
X1626Y191520D01*
X1601Y191681D01*
X1595Y191867D01*
Y191873D01*
Y191897D01*
Y191935D01*
X1601Y191978D01*
Y192034D01*
X1607Y192102D01*
X1613Y192170D01*
X1626Y192250D01*
X1657Y192411D01*
X1706Y192578D01*
X1768Y192739D01*
X1811Y192807D01*
X1855Y192876D01*
Y192882D01*
X1867Y192888D01*
X1904Y192925D01*
X1960Y192981D01*
X2034Y193043D01*
X2127Y193098D01*
X2238Y193154D01*
X2362Y193191D01*
X2430Y193197D01*
X2505Y193203D01*
X2542D01*
X2585Y193197D01*
X2641Y193185D01*
X2709Y193173D01*
X2783Y193148D01*
X2857Y193117D01*
X2932Y193073D01*
X2938Y193067D01*
X2957Y193055D01*
X2987Y193030D01*
X3025Y192999D01*
X3068Y192956D01*
X3111Y192900D01*
X3167Y192838D01*
X3216Y192764D01*
Y192770D01*
X3223Y192776D01*
X3241Y192807D01*
X3272Y192857D01*
X3309Y192919D01*
X3359Y192987D01*
X3421Y193055D01*
X3489Y193123D01*
X3569Y193179D01*
X3582Y193185D01*
X3606Y193197D01*
X3650Y193222D01*
X3712Y193247D01*
X3780Y193272D01*
X3866Y193296D01*
X3953Y193309D01*
X4052Y193315D01*
X4095D01*
X4145Y193309D01*
D02*
G37*
G36*
X-23850Y201739D02*
Y201733D01*
Y201727D01*
Y201689D01*
X-23856Y201634D01*
X-23862Y201559D01*
X-23875Y201466D01*
X-23893Y201374D01*
X-23918Y201275D01*
X-23949Y201169D01*
X-23955Y201157D01*
X-23968Y201126D01*
X-23986Y201077D01*
X-24023Y201015D01*
X-24060Y200940D01*
X-24116Y200860D01*
X-24172Y200779D01*
X-24246Y200705D01*
X-24252Y200699D01*
X-24283Y200674D01*
X-24320Y200637D01*
X-24370Y200594D01*
X-24432Y200550D01*
X-24506Y200507D01*
X-24580Y200464D01*
X-24661Y200427D01*
X-24667D01*
X-24673Y200420D01*
X-24692Y200414D01*
X-24716Y200408D01*
X-24778Y200389D01*
X-24871Y200371D01*
X-24976Y200352D01*
X-25100Y200334D01*
X-25243Y200321D01*
X-25397Y200315D01*
X-25490D01*
X-25558Y200321D01*
X-25639D01*
X-25732Y200334D01*
X-25831Y200340D01*
X-25942Y200352D01*
X-25954D01*
X-25992Y200359D01*
X-26047Y200365D01*
X-26109Y200383D01*
X-26190Y200396D01*
X-26270Y200420D01*
X-26351Y200451D01*
X-26431Y200482D01*
X-26437Y200488D01*
X-26462Y200501D01*
X-26499Y200526D01*
X-26549Y200557D01*
X-26604Y200600D01*
X-26666Y200649D01*
X-26728Y200705D01*
X-26790Y200773D01*
X-26796Y200779D01*
X-26815Y200804D01*
X-26846Y200848D01*
X-26877Y200897D01*
X-26914Y200953D01*
X-26951Y201021D01*
X-26988Y201095D01*
X-27013Y201169D01*
Y201176D01*
X-27019Y201182D01*
Y201200D01*
X-27025Y201225D01*
X-27044Y201287D01*
X-27056Y201361D01*
X-27075Y201448D01*
X-27093Y201547D01*
X-27100Y201646D01*
X-27106Y201739D01*
Y203763D01*
X-26060D01*
Y201695D01*
Y201683D01*
Y201652D01*
X-26054Y201596D01*
X-26041Y201535D01*
X-26022Y201466D01*
X-25998Y201398D01*
X-25961Y201324D01*
X-25911Y201262D01*
X-25905Y201256D01*
X-25880Y201238D01*
X-25849Y201213D01*
X-25800Y201188D01*
X-25738Y201157D01*
X-25664Y201132D01*
X-25577Y201114D01*
X-25478Y201108D01*
X-25434D01*
X-25385Y201114D01*
X-25323Y201126D01*
X-25255Y201145D01*
X-25181Y201169D01*
X-25113Y201206D01*
X-25051Y201256D01*
X-25045Y201262D01*
X-25026Y201287D01*
X-25001Y201318D01*
X-24970Y201367D01*
X-24946Y201429D01*
X-24921Y201510D01*
X-24902Y201596D01*
X-24896Y201695D01*
Y203763D01*
X-23850D01*
Y201739D01*
D02*
G37*
G36*
X-4660Y193306D02*
X-4654Y193293D01*
X-4635Y193275D01*
X-4611Y193250D01*
X-4542Y193182D01*
X-4456Y193101D01*
X-4357Y193002D01*
X-4233Y192903D01*
X-4103Y192798D01*
X-3967Y192705D01*
X-3960Y192699D01*
X-3948Y192693D01*
X-3923Y192681D01*
X-3886Y192656D01*
X-3843Y192631D01*
X-3793Y192606D01*
X-3731Y192575D01*
X-3670Y192538D01*
X-3595Y192501D01*
X-3515Y192464D01*
X-3342Y192390D01*
X-3150Y192315D01*
X-2945Y192247D01*
X-2939D01*
X-2927Y192241D01*
X-2902Y192235D01*
X-2871Y192222D01*
X-2828Y192216D01*
X-2778Y192204D01*
X-2723Y192185D01*
X-2654Y192173D01*
X-2580Y192160D01*
X-2506Y192142D01*
X-2326Y192117D01*
X-2135Y192086D01*
X-1918Y192068D01*
Y191127D01*
X-1930D01*
X-1955Y191133D01*
X-1998Y191139D01*
X-2054Y191145D01*
X-2128Y191158D01*
X-2209Y191170D01*
X-2302Y191189D01*
X-2401Y191207D01*
X-2512Y191232D01*
X-2623Y191257D01*
X-2853Y191319D01*
X-3088Y191387D01*
X-3199Y191430D01*
X-3304Y191473D01*
X-3311D01*
X-3329Y191486D01*
X-3360Y191498D01*
X-3403Y191517D01*
X-3453Y191548D01*
X-3515Y191579D01*
X-3589Y191616D01*
X-3670Y191659D01*
X-3756Y191709D01*
X-3849Y191764D01*
X-3948Y191826D01*
X-4053Y191894D01*
X-4159Y191969D01*
X-4276Y192049D01*
X-4394Y192136D01*
X-4511Y192229D01*
Y190557D01*
X-5310D01*
Y193312D01*
X-4666D01*
X-4660Y193306D01*
D02*
G37*
G36*
X-1918Y188564D02*
X-4171D01*
X-4165Y188552D01*
X-4140Y188527D01*
X-4109Y188478D01*
X-4066Y188422D01*
X-4022Y188354D01*
X-3973Y188273D01*
X-3923Y188193D01*
X-3880Y188112D01*
X-3874Y188100D01*
X-3861Y188075D01*
X-3843Y188026D01*
X-3818Y187964D01*
X-3787Y187883D01*
X-3750Y187797D01*
X-3719Y187691D01*
X-3682Y187574D01*
X-4450D01*
Y187580D01*
X-4456Y187592D01*
X-4468Y187617D01*
X-4474Y187654D01*
X-4493Y187691D01*
X-4511Y187741D01*
X-4555Y187846D01*
X-4611Y187964D01*
X-4672Y188087D01*
X-4741Y188211D01*
X-4821Y188317D01*
Y188323D01*
X-4833Y188329D01*
X-4858Y188360D01*
X-4908Y188409D01*
X-4976Y188471D01*
X-5050Y188539D01*
X-5143Y188607D01*
X-5248Y188675D01*
X-5366Y188737D01*
Y189517D01*
X-1918D01*
Y188564D01*
D02*
G37*
G36*
X-21857Y203813D02*
X-21801D01*
X-21739Y203806D01*
X-21671Y203800D01*
X-21597Y203788D01*
X-21436Y203757D01*
X-21281Y203713D01*
X-21126Y203652D01*
X-21064Y203614D01*
X-21002Y203571D01*
X-20996D01*
X-20990Y203559D01*
X-20953Y203528D01*
X-20910Y203472D01*
X-20854Y203398D01*
X-20798Y203311D01*
X-20749Y203206D01*
X-20718Y203082D01*
X-20711Y203014D01*
X-20705Y202946D01*
Y202934D01*
Y202909D01*
X-20711Y202865D01*
X-20718Y202816D01*
X-20736Y202754D01*
X-20755Y202686D01*
X-20786Y202618D01*
X-20829Y202550D01*
X-20835Y202544D01*
X-20854Y202519D01*
X-20879Y202488D01*
X-20916Y202445D01*
X-20965Y202401D01*
X-21027Y202345D01*
X-21102Y202290D01*
X-21188Y202240D01*
X-21182D01*
X-21157Y202234D01*
X-21120Y202222D01*
X-21077Y202209D01*
X-20984Y202172D01*
X-20934Y202154D01*
X-20891Y202129D01*
X-20885Y202123D01*
X-20866Y202110D01*
X-20835Y202085D01*
X-20798Y202055D01*
X-20755Y202017D01*
X-20711Y201968D01*
X-20668Y201912D01*
X-20631Y201850D01*
X-20625Y201844D01*
X-20613Y201819D01*
X-20600Y201782D01*
X-20582Y201739D01*
X-20563Y201677D01*
X-20544Y201609D01*
X-20538Y201535D01*
X-20532Y201448D01*
Y201442D01*
Y201435D01*
Y201398D01*
X-20538Y201343D01*
X-20551Y201268D01*
X-20569Y201176D01*
X-20600Y201083D01*
X-20637Y200984D01*
X-20693Y200878D01*
X-20699Y200866D01*
X-20724Y200835D01*
X-20755Y200786D01*
X-20804Y200724D01*
X-20873Y200656D01*
X-20947Y200588D01*
X-21033Y200519D01*
X-21139Y200458D01*
X-21145D01*
X-21151Y200451D01*
X-21170Y200445D01*
X-21194Y200433D01*
X-21219Y200427D01*
X-21256Y200414D01*
X-21343Y200389D01*
X-21454Y200359D01*
X-21584Y200340D01*
X-21739Y200321D01*
X-21906Y200315D01*
X-21981D01*
X-22018Y200321D01*
X-22067D01*
X-22166Y200327D01*
X-22284Y200340D01*
X-22408Y200359D01*
X-22525Y200383D01*
X-22637Y200420D01*
X-22649Y200427D01*
X-22680Y200439D01*
X-22729Y200464D01*
X-22791Y200501D01*
X-22860Y200544D01*
X-22934Y200600D01*
X-23008Y200662D01*
X-23076Y200736D01*
X-23082Y200748D01*
X-23107Y200773D01*
X-23138Y200817D01*
X-23175Y200878D01*
X-23219Y200959D01*
X-23256Y201046D01*
X-23299Y201151D01*
X-23336Y201262D01*
X-22395Y201392D01*
Y201380D01*
X-22383Y201349D01*
X-22370Y201299D01*
X-22352Y201238D01*
X-22302Y201108D01*
X-22265Y201046D01*
X-22228Y200996D01*
X-22222Y200990D01*
X-22209Y200977D01*
X-22179Y200965D01*
X-22148Y200946D01*
X-22104Y200922D01*
X-22049Y200909D01*
X-21993Y200897D01*
X-21925Y200891D01*
X-21894D01*
X-21857Y200897D01*
X-21813Y200909D01*
X-21764Y200922D01*
X-21708Y200946D01*
X-21659Y200984D01*
X-21609Y201027D01*
X-21603Y201033D01*
X-21590Y201052D01*
X-21566Y201083D01*
X-21541Y201126D01*
X-21522Y201176D01*
X-21498Y201244D01*
X-21485Y201318D01*
X-21479Y201398D01*
Y201411D01*
Y201435D01*
X-21485Y201479D01*
X-21492Y201535D01*
X-21510Y201590D01*
X-21529Y201652D01*
X-21560Y201708D01*
X-21603Y201764D01*
X-21609Y201770D01*
X-21628Y201782D01*
X-21652Y201807D01*
X-21689Y201832D01*
X-21739Y201850D01*
X-21795Y201875D01*
X-21863Y201887D01*
X-21937Y201894D01*
X-21981D01*
X-22018Y201887D01*
X-22061Y201881D01*
X-22110Y201869D01*
X-22172Y201856D01*
X-22241Y201838D01*
X-22197Y202506D01*
X-22154D01*
X-22110Y202500D01*
X-22042D01*
X-22005Y202506D01*
X-21962Y202513D01*
X-21919Y202525D01*
X-21863Y202550D01*
X-21813Y202574D01*
X-21764Y202612D01*
X-21758Y202618D01*
X-21745Y202630D01*
X-21721Y202655D01*
X-21696Y202692D01*
X-21677Y202729D01*
X-21652Y202779D01*
X-21640Y202835D01*
X-21634Y202890D01*
Y202896D01*
Y202915D01*
X-21640Y202946D01*
X-21646Y202977D01*
X-21659Y203020D01*
X-21671Y203057D01*
X-21696Y203101D01*
X-21727Y203138D01*
X-21733Y203144D01*
X-21745Y203150D01*
X-21764Y203169D01*
X-21795Y203187D01*
X-21832Y203200D01*
X-21875Y203218D01*
X-21925Y203224D01*
X-21987Y203231D01*
X-22011D01*
X-22042Y203224D01*
X-22086Y203218D01*
X-22129Y203206D01*
X-22172Y203187D01*
X-22216Y203163D01*
X-22259Y203125D01*
X-22265Y203119D01*
X-22278Y203107D01*
X-22290Y203082D01*
X-22315Y203045D01*
X-22333Y202995D01*
X-22358Y202940D01*
X-22377Y202865D01*
X-22395Y202779D01*
X-23287Y202934D01*
Y202940D01*
X-23280Y202952D01*
X-23274Y202977D01*
X-23268Y203002D01*
X-23249Y203039D01*
X-23237Y203082D01*
X-23194Y203175D01*
X-23138Y203280D01*
X-23064Y203392D01*
X-22977Y203497D01*
X-22866Y203590D01*
X-22860D01*
X-22853Y203602D01*
X-22835Y203608D01*
X-22804Y203627D01*
X-22773Y203645D01*
X-22736Y203664D01*
X-22686Y203682D01*
X-22630Y203707D01*
X-22575Y203726D01*
X-22507Y203744D01*
X-22432Y203763D01*
X-22352Y203782D01*
X-22265Y203800D01*
X-22172Y203806D01*
X-21968Y203819D01*
X-21906D01*
X-21857Y203813D01*
D02*
G37*
G36*
X67078Y248402D02*
X66125D01*
Y250656D01*
X66113Y250649D01*
X66088Y250625D01*
X66038Y250594D01*
X65983Y250550D01*
X65914Y250507D01*
X65834Y250458D01*
X65754Y250408D01*
X65673Y250365D01*
X65661Y250358D01*
X65636Y250346D01*
X65586Y250327D01*
X65525Y250303D01*
X65444Y250272D01*
X65357Y250235D01*
X65252Y250204D01*
X65135Y250167D01*
Y250934D01*
X65141D01*
X65153Y250940D01*
X65178Y250953D01*
X65215Y250959D01*
X65252Y250977D01*
X65302Y250996D01*
X65407Y251039D01*
X65525Y251095D01*
X65648Y251157D01*
X65772Y251225D01*
X65877Y251306D01*
X65883D01*
X65890Y251318D01*
X65921Y251343D01*
X65970Y251392D01*
X66032Y251460D01*
X66100Y251535D01*
X66168Y251627D01*
X66236Y251733D01*
X66298Y251850D01*
X67078D01*
Y248402D01*
D02*
G37*
G36*
X-8442Y262782D02*
X-9476Y262219D01*
X-9482Y262213D01*
X-9506Y262200D01*
X-9544Y262182D01*
X-9581Y262157D01*
X-9667Y262095D01*
X-9704Y262058D01*
X-9736Y262027D01*
X-9742Y262021D01*
X-9748Y262009D01*
X-9760Y261984D01*
X-9779Y261953D01*
X-9791Y261916D01*
X-9804Y261872D01*
X-9810Y261823D01*
X-9816Y261767D01*
Y261681D01*
X-8442D01*
Y260628D01*
X-11834D01*
Y262374D01*
Y262380D01*
Y262399D01*
Y262423D01*
Y262454D01*
Y262498D01*
X-11828Y262541D01*
X-11822Y262652D01*
X-11815Y262770D01*
X-11797Y262894D01*
X-11778Y263011D01*
X-11747Y263117D01*
X-11741Y263129D01*
X-11729Y263160D01*
X-11710Y263210D01*
X-11679Y263265D01*
X-11636Y263333D01*
X-11580Y263401D01*
X-11518Y263470D01*
X-11438Y263531D01*
X-11425Y263538D01*
X-11401Y263556D01*
X-11351Y263581D01*
X-11283Y263612D01*
X-11203Y263643D01*
X-11110Y263667D01*
X-11004Y263686D01*
X-10887Y263692D01*
X-10837D01*
X-10788Y263686D01*
X-10720Y263680D01*
X-10645Y263661D01*
X-10565Y263643D01*
X-10478Y263612D01*
X-10398Y263568D01*
X-10392Y263562D01*
X-10367Y263550D01*
X-10330Y263519D01*
X-10280Y263482D01*
X-10231Y263432D01*
X-10175Y263377D01*
X-10119Y263309D01*
X-10070Y263234D01*
X-10063Y263228D01*
X-10057Y263210D01*
X-10039Y263178D01*
X-10020Y263141D01*
X-10002Y263086D01*
X-9977Y263024D01*
X-9958Y262949D01*
X-9933Y262869D01*
Y262875D01*
X-9921Y262900D01*
X-9909Y262931D01*
X-9896Y262974D01*
X-9853Y263061D01*
X-9834Y263104D01*
X-9810Y263141D01*
X-9804Y263154D01*
X-9791Y263166D01*
X-9773Y263185D01*
X-9748Y263210D01*
X-9717Y263234D01*
X-9680Y263271D01*
X-9630Y263309D01*
X-9624Y263315D01*
X-9606Y263327D01*
X-9581Y263346D01*
X-9556Y263370D01*
X-9482Y263420D01*
X-9451Y263439D01*
X-9420Y263457D01*
X-8442Y263971D01*
Y262782D01*
D02*
G37*
G36*
X104363Y272575D02*
X104369Y272563D01*
X104388Y272538D01*
X104406Y272501D01*
X104431Y272464D01*
X104462Y272414D01*
X104530Y272303D01*
X104598Y272173D01*
X104672Y272031D01*
X104740Y271888D01*
X104790Y271752D01*
Y271746D01*
X104796Y271733D01*
X104802Y271715D01*
X104808Y271690D01*
X104815Y271653D01*
X104827Y271616D01*
X104833Y271566D01*
X104846Y271517D01*
X104864Y271393D01*
X104883Y271245D01*
X104895Y271084D01*
X104901Y270904D01*
Y270898D01*
Y270879D01*
Y270848D01*
X104895Y270805D01*
Y270749D01*
X104889Y270694D01*
X104883Y270625D01*
X104877Y270551D01*
X104852Y270396D01*
X104815Y270229D01*
X104765Y270068D01*
X104697Y269914D01*
Y269907D01*
X104685Y269895D01*
X104672Y269877D01*
X104660Y269852D01*
X104610Y269784D01*
X104542Y269697D01*
X104462Y269604D01*
X104357Y269505D01*
X104233Y269412D01*
X104090Y269326D01*
X104084D01*
X104072Y269319D01*
X104047Y269307D01*
X104016Y269295D01*
X103979Y269276D01*
X103936Y269264D01*
X103880Y269245D01*
X103818Y269227D01*
X103756Y269202D01*
X103682Y269183D01*
X103521Y269152D01*
X103341Y269127D01*
X103150Y269121D01*
X103094D01*
X103057Y269127D01*
X103007D01*
X102952Y269134D01*
X102890Y269140D01*
X102822Y269152D01*
X102673Y269177D01*
X102512Y269220D01*
X102351Y269276D01*
X102190Y269350D01*
X102184D01*
X102172Y269363D01*
X102153Y269375D01*
X102122Y269394D01*
X102048Y269443D01*
X101955Y269517D01*
X101856Y269617D01*
X101751Y269728D01*
X101652Y269864D01*
X101565Y270019D01*
Y270025D01*
X101559Y270037D01*
X101546Y270056D01*
X101540Y270081D01*
X101528Y270118D01*
X101509Y270161D01*
X101497Y270211D01*
X101478Y270267D01*
X101466Y270328D01*
X101453Y270403D01*
X101435Y270477D01*
X101423Y270557D01*
X101410Y270650D01*
X101404Y270743D01*
X101398Y270954D01*
Y270960D01*
Y270978D01*
Y271009D01*
Y271046D01*
Y271096D01*
X101404Y271146D01*
X101410Y271269D01*
X101423Y271405D01*
X101441Y271548D01*
X101466Y271678D01*
X101485Y271740D01*
X101503Y271795D01*
Y271802D01*
X101509Y271808D01*
X101522Y271845D01*
X101546Y271895D01*
X101577Y271956D01*
X101621Y272031D01*
X101676Y272111D01*
X101744Y272185D01*
X101819Y272260D01*
X101831Y272266D01*
X101856Y272291D01*
X101905Y272322D01*
X101967Y272365D01*
X102042Y272408D01*
X102134Y272458D01*
X102240Y272501D01*
X102357Y272538D01*
X102537Y271529D01*
X102531D01*
X102506Y271517D01*
X102469Y271498D01*
X102425Y271480D01*
X102382Y271449D01*
X102332Y271412D01*
X102289Y271362D01*
X102246Y271313D01*
X102240Y271306D01*
X102227Y271288D01*
X102215Y271251D01*
X102190Y271207D01*
X102172Y271152D01*
X102159Y271090D01*
X102147Y271016D01*
X102141Y270929D01*
Y270923D01*
Y270916D01*
Y270898D01*
X102147Y270873D01*
X102153Y270811D01*
X102172Y270731D01*
X102196Y270644D01*
X102240Y270551D01*
X102302Y270458D01*
X102382Y270378D01*
X102394Y270372D01*
X102425Y270347D01*
X102487Y270316D01*
X102568Y270279D01*
X102673Y270235D01*
X102735Y270223D01*
X102803Y270205D01*
X102877Y270192D01*
X102958Y270180D01*
X103044Y270174D01*
X103187D01*
X103224Y270180D01*
X103273D01*
X103323Y270186D01*
X103440Y270198D01*
X103570Y270223D01*
X103700Y270260D01*
X103824Y270310D01*
X103874Y270341D01*
X103923Y270378D01*
X103936Y270390D01*
X103961Y270415D01*
X103998Y270465D01*
X104041Y270533D01*
X104084Y270613D01*
X104121Y270712D01*
X104146Y270830D01*
X104159Y270960D01*
Y270966D01*
Y270991D01*
Y271022D01*
X104152Y271065D01*
X104146Y271121D01*
X104140Y271176D01*
X104109Y271294D01*
Y271300D01*
X104097Y271325D01*
X104084Y271356D01*
X104066Y271399D01*
X104047Y271455D01*
X104016Y271517D01*
X103979Y271591D01*
X103936Y271665D01*
X103614D01*
Y270960D01*
X102908D01*
Y272582D01*
X104357D01*
X104363Y272575D01*
D02*
G37*
G36*
X-10002Y270074D02*
X-9927Y270068D01*
X-9841Y270062D01*
X-9742Y270049D01*
X-9636Y270031D01*
X-9420Y269988D01*
X-9308Y269957D01*
X-9197Y269913D01*
X-9092Y269870D01*
X-8986Y269820D01*
X-8894Y269759D01*
X-8807Y269690D01*
X-8801Y269684D01*
X-8788Y269672D01*
X-8770Y269653D01*
X-8739Y269622D01*
X-8708Y269579D01*
X-8677Y269536D01*
X-8634Y269480D01*
X-8597Y269412D01*
X-8559Y269344D01*
X-8522Y269263D01*
X-8485Y269177D01*
X-8454Y269078D01*
X-8423Y268979D01*
X-8405Y268867D01*
X-8392Y268749D01*
X-8386Y268626D01*
Y268619D01*
Y268607D01*
Y268589D01*
Y268558D01*
X-8392Y268483D01*
X-8398Y268390D01*
X-8411Y268291D01*
X-8423Y268180D01*
X-8448Y268075D01*
X-8479Y267982D01*
X-8485Y267970D01*
X-8497Y267945D01*
X-8516Y267901D01*
X-8547Y267846D01*
X-8584Y267790D01*
X-8634Y267722D01*
X-8689Y267660D01*
X-8751Y267598D01*
X-8757Y267592D01*
X-8782Y267573D01*
X-8826Y267543D01*
X-8875Y267512D01*
X-8943Y267474D01*
X-9017Y267431D01*
X-9104Y267394D01*
X-9203Y267363D01*
X-9327Y268298D01*
X-9321D01*
X-9296Y268304D01*
X-9259Y268310D01*
X-9216Y268322D01*
X-9129Y268360D01*
X-9086Y268384D01*
X-9048Y268415D01*
X-9042Y268422D01*
X-9036Y268434D01*
X-9024Y268452D01*
X-9011Y268477D01*
X-8980Y268545D01*
X-8974Y268589D01*
X-8968Y268632D01*
Y268644D01*
X-8974Y268669D01*
X-8980Y268712D01*
X-8999Y268762D01*
X-9024Y268818D01*
X-9061Y268880D01*
X-9116Y268935D01*
X-9191Y268985D01*
X-9197Y268991D01*
X-9228Y269003D01*
X-9277Y269016D01*
X-9308Y269028D01*
X-9346Y269040D01*
X-9389Y269047D01*
X-9444Y269059D01*
X-9500Y269071D01*
X-9568Y269084D01*
X-9643Y269096D01*
X-9723Y269109D01*
X-9810Y269115D01*
X-9909Y269127D01*
X-9903Y269121D01*
X-9878Y269096D01*
X-9847Y269065D01*
X-9810Y269016D01*
X-9773Y268966D01*
X-9729Y268904D01*
X-9692Y268842D01*
X-9655Y268774D01*
X-9649Y268768D01*
X-9643Y268743D01*
X-9630Y268706D01*
X-9618Y268657D01*
X-9599Y268601D01*
X-9587Y268527D01*
X-9581Y268452D01*
X-9574Y268366D01*
Y268360D01*
Y268347D01*
Y268322D01*
X-9581Y268291D01*
X-9587Y268254D01*
X-9593Y268205D01*
X-9618Y268100D01*
X-9655Y267982D01*
X-9711Y267852D01*
X-9748Y267784D01*
X-9791Y267722D01*
X-9841Y267660D01*
X-9896Y267598D01*
X-9903Y267592D01*
X-9909Y267586D01*
X-9927Y267567D01*
X-9952Y267549D01*
X-9989Y267524D01*
X-10026Y267499D01*
X-10070Y267474D01*
X-10119Y267443D01*
X-10237Y267388D01*
X-10379Y267338D01*
X-10534Y267301D01*
X-10621Y267295D01*
X-10713Y267289D01*
X-10769D01*
X-10831Y267295D01*
X-10918Y267307D01*
X-11011Y267326D01*
X-11116Y267357D01*
X-11221Y267394D01*
X-11326Y267443D01*
X-11332D01*
X-11339Y267450D01*
X-11370Y267474D01*
X-11419Y267512D01*
X-11481Y267561D01*
X-11549Y267623D01*
X-11623Y267697D01*
X-11692Y267784D01*
X-11747Y267883D01*
Y267889D01*
X-11753Y267895D01*
X-11772Y267933D01*
X-11790Y267994D01*
X-11822Y268075D01*
X-11846Y268180D01*
X-11865Y268298D01*
X-11883Y268434D01*
X-11890Y268589D01*
Y268595D01*
Y268613D01*
Y268638D01*
Y268675D01*
X-11883Y268719D01*
Y268768D01*
X-11865Y268880D01*
X-11846Y269009D01*
X-11815Y269146D01*
X-11772Y269276D01*
X-11710Y269399D01*
Y269406D01*
X-11704Y269412D01*
X-11679Y269449D01*
X-11636Y269505D01*
X-11574Y269579D01*
X-11500Y269659D01*
X-11401Y269740D01*
X-11289Y269820D01*
X-11153Y269895D01*
X-11147D01*
X-11134Y269901D01*
X-11116Y269913D01*
X-11085Y269926D01*
X-11048Y269938D01*
X-10998Y269957D01*
X-10949Y269969D01*
X-10887Y269988D01*
X-10819Y270006D01*
X-10744Y270025D01*
X-10658Y270037D01*
X-10571Y270049D01*
X-10472Y270062D01*
X-10373Y270074D01*
X-10150Y270080D01*
X-10063D01*
X-10002Y270074D01*
D02*
G37*
G36*
X-8442Y265339D02*
X-10695D01*
X-10689Y265326D01*
X-10664Y265302D01*
X-10633Y265252D01*
X-10590Y265196D01*
X-10546Y265128D01*
X-10497Y265048D01*
X-10447Y264967D01*
X-10404Y264887D01*
X-10398Y264875D01*
X-10385Y264850D01*
X-10367Y264800D01*
X-10342Y264738D01*
X-10311Y264658D01*
X-10274Y264571D01*
X-10243Y264466D01*
X-10206Y264349D01*
X-10973D01*
Y264355D01*
X-10980Y264367D01*
X-10992Y264392D01*
X-10998Y264429D01*
X-11017Y264466D01*
X-11035Y264516D01*
X-11079Y264621D01*
X-11134Y264738D01*
X-11196Y264862D01*
X-11264Y264986D01*
X-11345Y265091D01*
Y265097D01*
X-11357Y265104D01*
X-11382Y265135D01*
X-11432Y265184D01*
X-11500Y265246D01*
X-11574Y265314D01*
X-11667Y265382D01*
X-11772Y265450D01*
X-11890Y265512D01*
Y266292D01*
X-8442D01*
Y265339D01*
D02*
G37*
G36*
X104846Y275466D02*
X102976Y274191D01*
X104846D01*
Y273207D01*
X101453D01*
Y274179D01*
X103335Y275466D01*
X101453D01*
Y276456D01*
X104846D01*
Y275466D01*
D02*
G37*
G36*
X103280Y280282D02*
X103329D01*
X103453Y280270D01*
X103583Y280257D01*
X103725Y280232D01*
X103861Y280201D01*
X103985Y280158D01*
X103991D01*
X103998Y280152D01*
X104035Y280133D01*
X104090Y280109D01*
X104159Y280071D01*
X104239Y280022D01*
X104320Y279960D01*
X104406Y279892D01*
X104487Y279812D01*
X104493Y279799D01*
X104518Y279774D01*
X104555Y279731D01*
X104598Y279675D01*
X104641Y279601D01*
X104685Y279527D01*
X104728Y279440D01*
X104759Y279347D01*
Y279341D01*
X104765Y279335D01*
Y279316D01*
X104771Y279292D01*
X104784Y279223D01*
X104802Y279137D01*
X104821Y279044D01*
X104833Y278932D01*
X104840Y278827D01*
X104846Y278716D01*
Y277162D01*
X101453D01*
Y278716D01*
Y278722D01*
Y278734D01*
Y278759D01*
Y278790D01*
X101460Y278833D01*
Y278877D01*
X101472Y278982D01*
X101485Y279106D01*
X101509Y279230D01*
X101540Y279353D01*
X101584Y279465D01*
Y279471D01*
X101590Y279477D01*
X101608Y279514D01*
X101633Y279564D01*
X101676Y279632D01*
X101726Y279706D01*
X101788Y279787D01*
X101862Y279861D01*
X101943Y279935D01*
X101955Y279941D01*
X101986Y279966D01*
X102029Y279997D01*
X102097Y280041D01*
X102178Y280084D01*
X102271Y280127D01*
X102376Y280164D01*
X102487Y280201D01*
X102494D01*
X102500Y280208D01*
X102518D01*
X102543Y280214D01*
X102605Y280226D01*
X102685Y280245D01*
X102784Y280263D01*
X102896Y280276D01*
X103013Y280282D01*
X103143Y280288D01*
X103230D01*
X103280Y280282D01*
D02*
G37*
G36*
X-8557Y35286D02*
X-9610D01*
Y36660D01*
X-10761D01*
Y35286D01*
X-11807D01*
Y38678D01*
X-10761D01*
Y37496D01*
X-9610D01*
Y38678D01*
X-8557D01*
Y35286D01*
D02*
G37*
G36*
X-6564Y38728D02*
X-6509D01*
X-6447Y38721D01*
X-6379Y38715D01*
X-6304Y38703D01*
X-6143Y38672D01*
X-5988Y38628D01*
X-5834Y38566D01*
X-5772Y38529D01*
X-5710Y38486D01*
X-5704D01*
X-5698Y38474D01*
X-5660Y38443D01*
X-5617Y38387D01*
X-5561Y38313D01*
X-5506Y38226D01*
X-5456Y38121D01*
X-5425Y37997D01*
X-5419Y37929D01*
X-5413Y37861D01*
Y37848D01*
Y37824D01*
X-5419Y37780D01*
X-5425Y37731D01*
X-5444Y37669D01*
X-5462Y37601D01*
X-5493Y37533D01*
X-5537Y37465D01*
X-5543Y37459D01*
X-5561Y37434D01*
X-5586Y37403D01*
X-5623Y37359D01*
X-5673Y37316D01*
X-5735Y37260D01*
X-5809Y37205D01*
X-5896Y37155D01*
X-5889D01*
X-5865Y37149D01*
X-5828Y37137D01*
X-5784Y37124D01*
X-5691Y37087D01*
X-5642Y37069D01*
X-5598Y37044D01*
X-5592Y37038D01*
X-5574Y37025D01*
X-5543Y37001D01*
X-5506Y36970D01*
X-5462Y36932D01*
X-5419Y36883D01*
X-5376Y36827D01*
X-5339Y36765D01*
X-5332Y36759D01*
X-5320Y36734D01*
X-5308Y36697D01*
X-5289Y36654D01*
X-5271Y36592D01*
X-5252Y36524D01*
X-5246Y36450D01*
X-5240Y36363D01*
Y36357D01*
Y36351D01*
Y36313D01*
X-5246Y36258D01*
X-5258Y36183D01*
X-5277Y36090D01*
X-5308Y35998D01*
X-5345Y35899D01*
X-5400Y35793D01*
X-5407Y35781D01*
X-5431Y35750D01*
X-5462Y35701D01*
X-5512Y35639D01*
X-5580Y35571D01*
X-5654Y35502D01*
X-5741Y35434D01*
X-5846Y35372D01*
X-5852D01*
X-5858Y35366D01*
X-5877Y35360D01*
X-5902Y35348D01*
X-5927Y35342D01*
X-5964Y35329D01*
X-6050Y35304D01*
X-6162Y35274D01*
X-6292Y35255D01*
X-6447Y35236D01*
X-6614Y35230D01*
X-6688D01*
X-6725Y35236D01*
X-6775D01*
X-6874Y35243D01*
X-6991Y35255D01*
X-7115Y35274D01*
X-7233Y35298D01*
X-7344Y35335D01*
X-7356Y35342D01*
X-7387Y35354D01*
X-7437Y35379D01*
X-7499Y35416D01*
X-7567Y35459D01*
X-7641Y35515D01*
X-7716Y35577D01*
X-7784Y35651D01*
X-7790Y35663D01*
X-7814Y35688D01*
X-7846Y35732D01*
X-7883Y35793D01*
X-7926Y35874D01*
X-7963Y35961D01*
X-8006Y36066D01*
X-8044Y36177D01*
X-7103Y36307D01*
Y36295D01*
X-7090Y36264D01*
X-7078Y36214D01*
X-7059Y36152D01*
X-7010Y36022D01*
X-6973Y35961D01*
X-6936Y35911D01*
X-6929Y35905D01*
X-6917Y35893D01*
X-6886Y35880D01*
X-6855Y35862D01*
X-6812Y35837D01*
X-6756Y35824D01*
X-6700Y35812D01*
X-6632Y35806D01*
X-6601D01*
X-6564Y35812D01*
X-6521Y35824D01*
X-6471Y35837D01*
X-6416Y35862D01*
X-6366Y35899D01*
X-6317Y35942D01*
X-6310Y35948D01*
X-6298Y35967D01*
X-6273Y35998D01*
X-6248Y36041D01*
X-6230Y36090D01*
X-6205Y36159D01*
X-6193Y36233D01*
X-6187Y36313D01*
Y36326D01*
Y36351D01*
X-6193Y36394D01*
X-6199Y36450D01*
X-6217Y36505D01*
X-6236Y36567D01*
X-6267Y36623D01*
X-6310Y36679D01*
X-6317Y36685D01*
X-6335Y36697D01*
X-6360Y36722D01*
X-6397Y36747D01*
X-6447Y36765D01*
X-6502Y36790D01*
X-6570Y36802D01*
X-6645Y36809D01*
X-6688D01*
X-6725Y36802D01*
X-6768Y36796D01*
X-6818Y36784D01*
X-6880Y36771D01*
X-6948Y36753D01*
X-6905Y37421D01*
X-6861D01*
X-6818Y37415D01*
X-6750D01*
X-6713Y37421D01*
X-6669Y37428D01*
X-6626Y37440D01*
X-6570Y37465D01*
X-6521Y37490D01*
X-6471Y37527D01*
X-6465Y37533D01*
X-6453Y37545D01*
X-6428Y37570D01*
X-6403Y37607D01*
X-6385Y37644D01*
X-6360Y37694D01*
X-6347Y37749D01*
X-6341Y37805D01*
Y37811D01*
Y37830D01*
X-6347Y37861D01*
X-6354Y37892D01*
X-6366Y37935D01*
X-6379Y37972D01*
X-6403Y38016D01*
X-6434Y38053D01*
X-6440Y38059D01*
X-6453Y38065D01*
X-6471Y38084D01*
X-6502Y38102D01*
X-6539Y38115D01*
X-6583Y38133D01*
X-6632Y38139D01*
X-6694Y38146D01*
X-6719D01*
X-6750Y38139D01*
X-6793Y38133D01*
X-6837Y38121D01*
X-6880Y38102D01*
X-6923Y38078D01*
X-6966Y38040D01*
X-6973Y38034D01*
X-6985Y38022D01*
X-6998Y37997D01*
X-7022Y37960D01*
X-7041Y37910D01*
X-7066Y37855D01*
X-7084Y37780D01*
X-7103Y37694D01*
X-7994Y37848D01*
Y37855D01*
X-7988Y37867D01*
X-7982Y37892D01*
X-7976Y37917D01*
X-7957Y37954D01*
X-7944Y37997D01*
X-7901Y38090D01*
X-7846Y38195D01*
X-7771Y38306D01*
X-7685Y38412D01*
X-7573Y38505D01*
X-7567D01*
X-7561Y38517D01*
X-7542Y38523D01*
X-7511Y38542D01*
X-7480Y38560D01*
X-7443Y38579D01*
X-7394Y38598D01*
X-7338Y38622D01*
X-7282Y38641D01*
X-7214Y38659D01*
X-7140Y38678D01*
X-7059Y38697D01*
X-6973Y38715D01*
X-6880Y38721D01*
X-6676Y38734D01*
X-6614D01*
X-6564Y38728D01*
D02*
G37*
G36*
X10088Y69283D02*
X7835D01*
X7841Y69271D01*
X7866Y69246D01*
X7897Y69197D01*
X7940Y69141D01*
X7984Y69073D01*
X8033Y68992D01*
X8083Y68912D01*
X8126Y68831D01*
X8132Y68819D01*
X8145Y68794D01*
X8163Y68745D01*
X8188Y68683D01*
X8219Y68602D01*
X8256Y68516D01*
X8287Y68410D01*
X8324Y68293D01*
X7557D01*
Y68299D01*
X7550Y68312D01*
X7538Y68336D01*
X7532Y68373D01*
X7513Y68410D01*
X7495Y68460D01*
X7451Y68565D01*
X7396Y68683D01*
X7334Y68807D01*
X7266Y68931D01*
X7185Y69036D01*
Y69042D01*
X7173Y69048D01*
X7148Y69079D01*
X7098Y69129D01*
X7030Y69191D01*
X6956Y69259D01*
X6863Y69327D01*
X6758Y69395D01*
X6640Y69457D01*
Y70237D01*
X10088D01*
Y69283D01*
D02*
G37*
G36*
X-25660Y193410D02*
X-25574Y193398D01*
X-25481Y193373D01*
X-25376Y193348D01*
X-25258Y193305D01*
X-25147Y193249D01*
X-25141D01*
X-25134Y193243D01*
X-25097Y193218D01*
X-25041Y193181D01*
X-24973Y193132D01*
X-24899Y193064D01*
X-24825Y192983D01*
X-24751Y192890D01*
X-24682Y192785D01*
Y192779D01*
X-24676Y192773D01*
X-24670Y192754D01*
X-24658Y192729D01*
X-24645Y192705D01*
X-24633Y192667D01*
X-24608Y192581D01*
X-24577Y192469D01*
X-24553Y192333D01*
X-24534Y192185D01*
X-24528Y192017D01*
Y192011D01*
Y192005D01*
Y191987D01*
Y191962D01*
X-24534Y191900D01*
Y191819D01*
X-24540Y191733D01*
X-24553Y191634D01*
X-24571Y191535D01*
X-24590Y191442D01*
X-24596Y191429D01*
X-24602Y191405D01*
X-24614Y191361D01*
X-24639Y191306D01*
X-24664Y191238D01*
X-24695Y191170D01*
X-24775Y191033D01*
X-24782Y191027D01*
X-24800Y191008D01*
X-24825Y190978D01*
X-24862Y190934D01*
X-24899Y190891D01*
X-24949Y190848D01*
X-25060Y190761D01*
X-25066Y190755D01*
X-25091Y190742D01*
X-25122Y190724D01*
X-25172Y190705D01*
X-25227Y190674D01*
X-25295Y190649D01*
X-25376Y190619D01*
X-25462Y190594D01*
X-25568Y191547D01*
X-25555D01*
X-25530Y191553D01*
X-25487Y191566D01*
X-25438Y191578D01*
X-25382Y191597D01*
X-25326Y191628D01*
X-25271Y191658D01*
X-25221Y191702D01*
X-25215Y191708D01*
X-25203Y191727D01*
X-25184Y191751D01*
X-25165Y191788D01*
X-25141Y191832D01*
X-25122Y191887D01*
X-25110Y191949D01*
X-25103Y192011D01*
Y192017D01*
Y192042D01*
X-25110Y192079D01*
X-25122Y192129D01*
X-25141Y192178D01*
X-25165Y192234D01*
X-25203Y192290D01*
X-25252Y192339D01*
X-25258Y192346D01*
X-25283Y192358D01*
X-25314Y192383D01*
X-25363Y192408D01*
X-25425Y192426D01*
X-25500Y192451D01*
X-25586Y192463D01*
X-25692Y192469D01*
X-25741D01*
X-25797Y192463D01*
X-25859Y192451D01*
X-25933Y192438D01*
X-26007Y192414D01*
X-26075Y192383D01*
X-26137Y192339D01*
X-26143Y192333D01*
X-26162Y192315D01*
X-26180Y192290D01*
X-26212Y192247D01*
X-26236Y192197D01*
X-26255Y192141D01*
X-26273Y192067D01*
X-26280Y191993D01*
Y191987D01*
Y191968D01*
X-26273Y191943D01*
Y191906D01*
X-26249Y191826D01*
X-26236Y191776D01*
X-26212Y191727D01*
Y191720D01*
X-26199Y191708D01*
X-26187Y191690D01*
X-26168Y191665D01*
X-26143Y191634D01*
X-26112Y191597D01*
X-26075Y191560D01*
X-26032Y191516D01*
X-26149Y190718D01*
X-27976Y191015D01*
Y193255D01*
X-27220D01*
Y191733D01*
X-26713Y191652D01*
X-26719Y191658D01*
X-26725Y191677D01*
X-26738Y191714D01*
X-26756Y191751D01*
X-26775Y191801D01*
X-26793Y191857D01*
X-26824Y191968D01*
Y191974D01*
X-26831Y191993D01*
X-26837Y192024D01*
X-26843Y192067D01*
X-26849Y192110D01*
X-26855Y192160D01*
X-26861Y192271D01*
Y192278D01*
Y192296D01*
Y192321D01*
X-26855Y192358D01*
Y192401D01*
X-26843Y192451D01*
X-26824Y192562D01*
X-26787Y192698D01*
X-26731Y192835D01*
X-26694Y192903D01*
X-26657Y192971D01*
X-26608Y193033D01*
X-26552Y193095D01*
X-26546Y193101D01*
X-26539Y193107D01*
X-26521Y193125D01*
X-26496Y193144D01*
X-26465Y193169D01*
X-26428Y193194D01*
X-26341Y193255D01*
X-26230Y193317D01*
X-26094Y193367D01*
X-25945Y193404D01*
X-25865Y193410D01*
X-25778Y193417D01*
X-25722D01*
X-25660Y193410D01*
D02*
G37*
G36*
X98067Y242393D02*
X98141Y242380D01*
X98234Y242362D01*
X98327Y242331D01*
X98426Y242294D01*
X98531Y242238D01*
X98543Y242232D01*
X98574Y242207D01*
X98624Y242176D01*
X98686Y242126D01*
X98754Y242058D01*
X98822Y241984D01*
X98890Y241897D01*
X98952Y241792D01*
Y241786D01*
X98958Y241780D01*
X98964Y241761D01*
X98977Y241737D01*
X98983Y241712D01*
X98995Y241674D01*
X99020Y241588D01*
X99051Y241476D01*
X99069Y241347D01*
X99088Y241192D01*
X99094Y241025D01*
Y241018D01*
Y241006D01*
Y240981D01*
Y240950D01*
X99088Y240913D01*
Y240864D01*
X99082Y240765D01*
X99069Y240647D01*
X99051Y240523D01*
X99026Y240406D01*
X98989Y240294D01*
X98983Y240282D01*
X98971Y240251D01*
X98946Y240201D01*
X98909Y240139D01*
X98865Y240071D01*
X98810Y239997D01*
X98748Y239923D01*
X98673Y239855D01*
X98661Y239848D01*
X98636Y239824D01*
X98593Y239793D01*
X98531Y239756D01*
X98450Y239712D01*
X98364Y239675D01*
X98259Y239632D01*
X98147Y239595D01*
X98017Y240536D01*
X98030D01*
X98061Y240548D01*
X98110Y240560D01*
X98172Y240579D01*
X98302Y240628D01*
X98364Y240666D01*
X98413Y240703D01*
X98420Y240709D01*
X98432Y240721D01*
X98444Y240752D01*
X98463Y240783D01*
X98488Y240827D01*
X98500Y240882D01*
X98512Y240938D01*
X98519Y241006D01*
Y241012D01*
Y241037D01*
X98512Y241074D01*
X98500Y241118D01*
X98488Y241167D01*
X98463Y241223D01*
X98426Y241272D01*
X98382Y241322D01*
X98376Y241328D01*
X98358Y241340D01*
X98327Y241365D01*
X98283Y241390D01*
X98234Y241408D01*
X98166Y241433D01*
X98092Y241445D01*
X98011Y241452D01*
X97974D01*
X97931Y241445D01*
X97875Y241439D01*
X97819Y241421D01*
X97757Y241402D01*
X97702Y241371D01*
X97646Y241328D01*
X97640Y241322D01*
X97627Y241303D01*
X97602Y241278D01*
X97578Y241241D01*
X97559Y241192D01*
X97534Y241136D01*
X97522Y241068D01*
X97516Y240994D01*
Y240987D01*
Y240975D01*
Y240950D01*
X97522Y240913D01*
X97528Y240870D01*
X97541Y240820D01*
X97553Y240758D01*
X97572Y240690D01*
X96903Y240734D01*
Y240740D01*
Y240746D01*
Y240777D01*
X96909Y240820D01*
Y240858D01*
Y240864D01*
Y240888D01*
X96903Y240926D01*
X96897Y240969D01*
X96885Y241012D01*
X96860Y241068D01*
X96835Y241118D01*
X96798Y241167D01*
X96792Y241173D01*
X96779Y241185D01*
X96754Y241210D01*
X96717Y241235D01*
X96680Y241254D01*
X96631Y241278D01*
X96575Y241291D01*
X96519Y241297D01*
X96495D01*
X96464Y241291D01*
X96433Y241285D01*
X96389Y241272D01*
X96352Y241260D01*
X96309Y241235D01*
X96272Y241204D01*
X96266Y241198D01*
X96259Y241185D01*
X96241Y241167D01*
X96222Y241136D01*
X96210Y241099D01*
X96191Y241055D01*
X96185Y241006D01*
X96179Y240944D01*
Y240938D01*
Y240919D01*
X96185Y240888D01*
X96191Y240845D01*
X96204Y240802D01*
X96222Y240758D01*
X96247Y240715D01*
X96284Y240672D01*
X96290Y240666D01*
X96303Y240653D01*
X96327Y240641D01*
X96364Y240616D01*
X96414Y240598D01*
X96470Y240573D01*
X96544Y240554D01*
X96631Y240536D01*
X96476Y239644D01*
X96470D01*
X96457Y239650D01*
X96433Y239657D01*
X96408Y239663D01*
X96371Y239681D01*
X96327Y239694D01*
X96235Y239737D01*
X96129Y239793D01*
X96018Y239867D01*
X95913Y239954D01*
X95820Y240065D01*
Y240071D01*
X95807Y240077D01*
X95801Y240096D01*
X95783Y240127D01*
X95764Y240158D01*
X95745Y240195D01*
X95727Y240245D01*
X95702Y240300D01*
X95684Y240356D01*
X95665Y240424D01*
X95647Y240498D01*
X95628Y240579D01*
X95609Y240666D01*
X95603Y240758D01*
X95591Y240963D01*
Y240969D01*
Y240994D01*
Y241025D01*
X95597Y241074D01*
Y241130D01*
X95603Y241192D01*
X95609Y241260D01*
X95622Y241334D01*
X95653Y241495D01*
X95696Y241650D01*
X95758Y241805D01*
X95795Y241866D01*
X95838Y241928D01*
Y241934D01*
X95851Y241941D01*
X95882Y241978D01*
X95937Y242021D01*
X96012Y242077D01*
X96098Y242133D01*
X96204Y242182D01*
X96327Y242213D01*
X96395Y242219D01*
X96464Y242226D01*
X96501D01*
X96544Y242219D01*
X96593Y242213D01*
X96655Y242195D01*
X96724Y242176D01*
X96792Y242145D01*
X96860Y242102D01*
X96866Y242095D01*
X96891Y242077D01*
X96922Y242052D01*
X96965Y242015D01*
X97008Y241966D01*
X97064Y241904D01*
X97120Y241829D01*
X97169Y241743D01*
Y241749D01*
X97175Y241774D01*
X97188Y241811D01*
X97200Y241854D01*
X97237Y241947D01*
X97256Y241996D01*
X97281Y242040D01*
X97287Y242046D01*
X97299Y242064D01*
X97324Y242095D01*
X97355Y242133D01*
X97392Y242176D01*
X97442Y242219D01*
X97497Y242263D01*
X97559Y242300D01*
X97565Y242306D01*
X97590Y242318D01*
X97627Y242331D01*
X97671Y242349D01*
X97733Y242368D01*
X97801Y242386D01*
X97875Y242393D01*
X97961Y242399D01*
X98011D01*
X98067Y242393D01*
D02*
G37*
G36*
X-18690Y193616D02*
X-18604Y193604D01*
X-18511Y193585D01*
X-18406Y193554D01*
X-18300Y193517D01*
X-18195Y193462D01*
X-18183Y193456D01*
X-18152Y193431D01*
X-18102Y193394D01*
X-18040Y193344D01*
X-17972Y193282D01*
X-17898Y193208D01*
X-17836Y193115D01*
X-17774Y193016D01*
X-17768Y193004D01*
X-17756Y192966D01*
X-17731Y192904D01*
X-17706Y192824D01*
X-17681Y192725D01*
X-17657Y192601D01*
X-17644Y192465D01*
X-17638Y192316D01*
Y192310D01*
Y192292D01*
Y192267D01*
Y192230D01*
X-17644Y192186D01*
X-17650Y192137D01*
X-17663Y192026D01*
X-17681Y191896D01*
X-17712Y191759D01*
X-17756Y191623D01*
X-17811Y191499D01*
Y191493D01*
X-17818Y191487D01*
X-17842Y191450D01*
X-17886Y191394D01*
X-17947Y191320D01*
X-18022Y191246D01*
X-18115Y191159D01*
X-18232Y191078D01*
X-18362Y191004D01*
X-18368D01*
X-18381Y190998D01*
X-18399Y190986D01*
X-18430Y190980D01*
X-18467Y190961D01*
X-18517Y190948D01*
X-18566Y190930D01*
X-18628Y190918D01*
X-18697Y190899D01*
X-18777Y190880D01*
X-18857Y190868D01*
X-18950Y190856D01*
X-19043Y190843D01*
X-19148Y190831D01*
X-19254Y190825D01*
X-19458D01*
X-19520Y190831D01*
X-19594Y190837D01*
X-19681Y190843D01*
X-19780Y190856D01*
X-19885Y190874D01*
X-20102Y190918D01*
X-20213Y190948D01*
X-20324Y190986D01*
X-20430Y191029D01*
X-20535Y191085D01*
X-20628Y191140D01*
X-20714Y191209D01*
X-20721Y191215D01*
X-20733Y191227D01*
X-20752Y191246D01*
X-20783Y191277D01*
X-20813Y191320D01*
X-20851Y191369D01*
X-20888Y191425D01*
X-20931Y191487D01*
X-20968Y191561D01*
X-21005Y191642D01*
X-21043Y191728D01*
X-21073Y191821D01*
X-21104Y191927D01*
X-21123Y192038D01*
X-21135Y192156D01*
X-21141Y192279D01*
Y192286D01*
Y192298D01*
Y192316D01*
Y192348D01*
X-21135Y192422D01*
X-21129Y192508D01*
X-21117Y192614D01*
X-21098Y192719D01*
X-21073Y192824D01*
X-21043Y192917D01*
X-21036Y192929D01*
X-21024Y192954D01*
X-21005Y192997D01*
X-20974Y193053D01*
X-20937Y193115D01*
X-20888Y193183D01*
X-20832Y193245D01*
X-20770Y193307D01*
X-20764Y193313D01*
X-20739Y193332D01*
X-20696Y193363D01*
X-20646Y193394D01*
X-20578Y193437D01*
X-20504Y193474D01*
X-20411Y193511D01*
X-20312Y193548D01*
X-20201Y192614D01*
X-20207D01*
X-20232Y192607D01*
X-20269Y192595D01*
X-20306Y192583D01*
X-20399Y192539D01*
X-20436Y192515D01*
X-20473Y192484D01*
X-20479Y192477D01*
X-20485Y192471D01*
X-20498Y192453D01*
X-20516Y192428D01*
X-20547Y192360D01*
X-20553Y192316D01*
X-20560Y192273D01*
Y192261D01*
X-20553Y192236D01*
X-20547Y192193D01*
X-20529Y192143D01*
X-20504Y192081D01*
X-20461Y192026D01*
X-20405Y191964D01*
X-20324Y191914D01*
X-20318Y191908D01*
X-20287Y191902D01*
X-20244Y191883D01*
X-20213Y191871D01*
X-20176Y191865D01*
X-20126Y191852D01*
X-20077Y191840D01*
X-20021Y191827D01*
X-19953Y191815D01*
X-19879Y191809D01*
X-19798Y191797D01*
X-19712Y191784D01*
X-19613Y191778D01*
X-19619Y191784D01*
X-19644Y191809D01*
X-19674Y191840D01*
X-19712Y191883D01*
X-19749Y191939D01*
X-19792Y191995D01*
X-19835Y192057D01*
X-19866Y192125D01*
X-19873Y192131D01*
X-19879Y192156D01*
X-19891Y192193D01*
X-19910Y192242D01*
X-19928Y192304D01*
X-19941Y192372D01*
X-19947Y192453D01*
X-19953Y192533D01*
Y192539D01*
Y192552D01*
Y192577D01*
X-19947Y192607D01*
X-19941Y192651D01*
X-19934Y192694D01*
X-19910Y192799D01*
X-19873Y192923D01*
X-19817Y193053D01*
X-19780Y193121D01*
X-19736Y193183D01*
X-19681Y193245D01*
X-19625Y193307D01*
X-19619Y193313D01*
X-19613Y193319D01*
X-19594Y193338D01*
X-19569Y193356D01*
X-19538Y193381D01*
X-19495Y193406D01*
X-19452Y193437D01*
X-19402Y193468D01*
X-19285Y193524D01*
X-19142Y193573D01*
X-18987Y193610D01*
X-18901Y193616D01*
X-18808Y193623D01*
X-18752D01*
X-18690Y193616D01*
D02*
G37*
G36*
X10088Y66721D02*
X7501D01*
X10088Y66058D01*
Y65278D01*
X7501Y64622D01*
X10088D01*
Y63762D01*
X6696D01*
Y65142D01*
X8764Y65668D01*
X6696Y66201D01*
Y67581D01*
X10088D01*
Y66721D01*
D02*
G37*
G36*
X-17694Y186287D02*
X-18727Y185724D01*
X-18734Y185718D01*
X-18758Y185706D01*
X-18796Y185687D01*
X-18833Y185662D01*
X-18919Y185600D01*
X-18957Y185563D01*
X-18987Y185532D01*
X-18994Y185526D01*
X-19000Y185514D01*
X-19012Y185489D01*
X-19031Y185458D01*
X-19043Y185421D01*
X-19056Y185378D01*
X-19062Y185328D01*
X-19068Y185272D01*
Y185186D01*
X-17694D01*
Y184133D01*
X-21086D01*
Y185879D01*
Y185885D01*
Y185904D01*
Y185928D01*
Y185959D01*
Y186003D01*
X-21080Y186046D01*
X-21073Y186157D01*
X-21067Y186275D01*
X-21049Y186399D01*
X-21030Y186516D01*
X-20999Y186622D01*
X-20993Y186634D01*
X-20981Y186665D01*
X-20962Y186715D01*
X-20931Y186770D01*
X-20888Y186838D01*
X-20832Y186906D01*
X-20770Y186975D01*
X-20690Y187036D01*
X-20677Y187043D01*
X-20652Y187061D01*
X-20603Y187086D01*
X-20535Y187117D01*
X-20454Y187148D01*
X-20362Y187173D01*
X-20256Y187191D01*
X-20139Y187197D01*
X-20089D01*
X-20040Y187191D01*
X-19972Y187185D01*
X-19897Y187166D01*
X-19817Y187148D01*
X-19730Y187117D01*
X-19650Y187074D01*
X-19644Y187067D01*
X-19619Y187055D01*
X-19582Y187024D01*
X-19532Y186987D01*
X-19483Y186937D01*
X-19427Y186882D01*
X-19371Y186814D01*
X-19322Y186739D01*
X-19316Y186733D01*
X-19309Y186715D01*
X-19291Y186684D01*
X-19272Y186646D01*
X-19254Y186591D01*
X-19229Y186529D01*
X-19210Y186455D01*
X-19185Y186374D01*
Y186380D01*
X-19173Y186405D01*
X-19161Y186436D01*
X-19148Y186479D01*
X-19105Y186566D01*
X-19086Y186609D01*
X-19062Y186646D01*
X-19056Y186659D01*
X-19043Y186671D01*
X-19025Y186690D01*
X-19000Y186715D01*
X-18969Y186739D01*
X-18932Y186776D01*
X-18882Y186814D01*
X-18876Y186820D01*
X-18857Y186832D01*
X-18833Y186851D01*
X-18808Y186875D01*
X-18734Y186925D01*
X-18703Y186944D01*
X-18672Y186962D01*
X-17694Y187476D01*
Y186287D01*
D02*
G37*
G36*
Y188844D02*
X-19947D01*
X-19941Y188831D01*
X-19916Y188807D01*
X-19885Y188757D01*
X-19842Y188701D01*
X-19798Y188633D01*
X-19749Y188553D01*
X-19699Y188472D01*
X-19656Y188392D01*
X-19650Y188380D01*
X-19637Y188355D01*
X-19619Y188305D01*
X-19594Y188243D01*
X-19563Y188163D01*
X-19526Y188076D01*
X-19495Y187971D01*
X-19458Y187854D01*
X-20225D01*
Y187860D01*
X-20232Y187872D01*
X-20244Y187897D01*
X-20250Y187934D01*
X-20269Y187971D01*
X-20287Y188021D01*
X-20331Y188126D01*
X-20386Y188243D01*
X-20448Y188367D01*
X-20516Y188491D01*
X-20597Y188596D01*
Y188602D01*
X-20609Y188609D01*
X-20634Y188640D01*
X-20684Y188689D01*
X-20752Y188751D01*
X-20826Y188819D01*
X-20919Y188887D01*
X-21024Y188955D01*
X-21141Y189017D01*
Y189797D01*
X-17694D01*
Y188844D01*
D02*
G37*
G36*
X10088Y73561D02*
X10070D01*
X10045Y73567D01*
X10020Y73573D01*
X9983Y73579D01*
X9940Y73585D01*
X9834Y73616D01*
X9717Y73654D01*
X9587Y73703D01*
X9444Y73771D01*
X9308Y73852D01*
X9302Y73858D01*
X9290Y73864D01*
X9271Y73876D01*
X9240Y73901D01*
X9209Y73932D01*
X9166Y73963D01*
X9116Y74013D01*
X9061Y74062D01*
X8999Y74118D01*
X8931Y74186D01*
X8863Y74260D01*
X8782Y74347D01*
X8702Y74440D01*
X8615Y74545D01*
X8528Y74656D01*
X8435Y74780D01*
X8429Y74786D01*
X8423Y74799D01*
X8405Y74817D01*
X8386Y74848D01*
X8330Y74916D01*
X8262Y75003D01*
X8182Y75090D01*
X8107Y75182D01*
X8033Y75257D01*
X7996Y75288D01*
X7965Y75312D01*
X7959Y75319D01*
X7940Y75331D01*
X7909Y75349D01*
X7866Y75374D01*
X7823Y75393D01*
X7767Y75411D01*
X7717Y75424D01*
X7662Y75430D01*
X7637D01*
X7606Y75424D01*
X7569Y75418D01*
X7525Y75399D01*
X7482Y75380D01*
X7439Y75349D01*
X7396Y75312D01*
X7389Y75306D01*
X7377Y75294D01*
X7358Y75269D01*
X7340Y75232D01*
X7321Y75189D01*
X7303Y75139D01*
X7290Y75083D01*
X7284Y75021D01*
Y75015D01*
Y74990D01*
X7290Y74960D01*
X7297Y74916D01*
X7315Y74873D01*
X7334Y74823D01*
X7365Y74774D01*
X7402Y74724D01*
X7408Y74718D01*
X7420Y74706D01*
X7451Y74687D01*
X7495Y74662D01*
X7550Y74638D01*
X7618Y74613D01*
X7699Y74594D01*
X7798Y74576D01*
X7724Y73629D01*
X7705D01*
X7687Y73635D01*
X7655Y73641D01*
X7587Y73654D01*
X7495Y73672D01*
X7396Y73703D01*
X7297Y73734D01*
X7198Y73777D01*
X7105Y73827D01*
X7092Y73833D01*
X7068Y73852D01*
X7030Y73889D01*
X6981Y73938D01*
X6925Y73994D01*
X6869Y74068D01*
X6814Y74149D01*
X6764Y74248D01*
Y74254D01*
X6758Y74260D01*
X6746Y74297D01*
X6727Y74359D01*
X6702Y74446D01*
X6678Y74551D01*
X6659Y74681D01*
X6647Y74830D01*
X6640Y74997D01*
Y75003D01*
Y75021D01*
Y75046D01*
Y75077D01*
X6647Y75121D01*
Y75170D01*
X6653Y75281D01*
X6671Y75405D01*
X6690Y75535D01*
X6721Y75659D01*
X6758Y75770D01*
Y75777D01*
X6764Y75783D01*
X6777Y75814D01*
X6808Y75870D01*
X6845Y75931D01*
X6894Y75999D01*
X6950Y76074D01*
X7024Y76148D01*
X7105Y76210D01*
X7117Y76216D01*
X7148Y76235D01*
X7191Y76259D01*
X7259Y76290D01*
X7334Y76321D01*
X7427Y76346D01*
X7525Y76365D01*
X7631Y76371D01*
X7680D01*
X7742Y76358D01*
X7823Y76346D01*
X7909Y76328D01*
X8015Y76290D01*
X8120Y76247D01*
X8225Y76185D01*
X8237Y76179D01*
X8275Y76148D01*
X8330Y76105D01*
X8405Y76037D01*
X8497Y75944D01*
X8547Y75888D01*
X8603Y75832D01*
X8658Y75764D01*
X8720Y75690D01*
X8782Y75609D01*
X8844Y75523D01*
X8850Y75511D01*
X8875Y75480D01*
X8912Y75430D01*
X8955Y75368D01*
X8999Y75306D01*
X9042Y75238D01*
X9085Y75182D01*
X9123Y75139D01*
X9129Y75133D01*
X9135Y75121D01*
X9154Y75102D01*
X9172Y75077D01*
X9240Y75009D01*
X9321Y74916D01*
Y76396D01*
X10088D01*
Y73561D01*
D02*
G37*
G36*
X-1918Y186008D02*
X-2952Y185444D01*
X-2958Y185438D01*
X-2983Y185426D01*
X-3020Y185407D01*
X-3057Y185382D01*
X-3143Y185321D01*
X-3181Y185283D01*
X-3212Y185252D01*
X-3218Y185246D01*
X-3224Y185234D01*
X-3236Y185209D01*
X-3255Y185178D01*
X-3267Y185141D01*
X-3280Y185098D01*
X-3286Y185048D01*
X-3292Y184993D01*
Y184906D01*
X-1918D01*
Y183853D01*
X-5310D01*
Y185599D01*
Y185605D01*
Y185624D01*
Y185649D01*
Y185680D01*
Y185723D01*
X-5304Y185766D01*
X-5298Y185878D01*
X-5291Y185995D01*
X-5273Y186119D01*
X-5254Y186237D01*
X-5223Y186342D01*
X-5217Y186354D01*
X-5205Y186385D01*
X-5186Y186435D01*
X-5155Y186490D01*
X-5112Y186559D01*
X-5056Y186627D01*
X-4994Y186695D01*
X-4914Y186757D01*
X-4901Y186763D01*
X-4877Y186781D01*
X-4827Y186806D01*
X-4759Y186837D01*
X-4679Y186868D01*
X-4586Y186893D01*
X-4481Y186911D01*
X-4363Y186918D01*
X-4313D01*
X-4264Y186911D01*
X-4196Y186905D01*
X-4121Y186887D01*
X-4041Y186868D01*
X-3954Y186837D01*
X-3874Y186794D01*
X-3868Y186788D01*
X-3843Y186775D01*
X-3806Y186744D01*
X-3756Y186707D01*
X-3707Y186658D01*
X-3651Y186602D01*
X-3595Y186534D01*
X-3546Y186460D01*
X-3540Y186453D01*
X-3533Y186435D01*
X-3515Y186404D01*
X-3496Y186367D01*
X-3478Y186311D01*
X-3453Y186249D01*
X-3434Y186175D01*
X-3410Y186094D01*
Y186100D01*
X-3397Y186125D01*
X-3385Y186156D01*
X-3373Y186199D01*
X-3329Y186286D01*
X-3311Y186329D01*
X-3286Y186367D01*
X-3280Y186379D01*
X-3267Y186391D01*
X-3249Y186410D01*
X-3224Y186435D01*
X-3193Y186460D01*
X-3156Y186497D01*
X-3106Y186534D01*
X-3100Y186540D01*
X-3082Y186552D01*
X-3057Y186571D01*
X-3032Y186596D01*
X-2958Y186645D01*
X-2927Y186664D01*
X-2896Y186682D01*
X-1918Y187196D01*
Y186008D01*
D02*
G37*
G36*
X64392Y249950D02*
Y249944D01*
Y249925D01*
Y249894D01*
Y249857D01*
Y249808D01*
X64386Y249752D01*
X64379Y249622D01*
X64367Y249479D01*
X64348Y249331D01*
X64324Y249188D01*
X64305Y249127D01*
X64287Y249065D01*
Y249059D01*
X64280Y249052D01*
X64268Y249015D01*
X64237Y248959D01*
X64194Y248885D01*
X64138Y248805D01*
X64070Y248718D01*
X63977Y248631D01*
X63872Y248551D01*
X63866D01*
X63859Y248545D01*
X63841Y248532D01*
X63816Y248520D01*
X63785Y248501D01*
X63748Y248489D01*
X63655Y248452D01*
X63544Y248409D01*
X63407Y248378D01*
X63247Y248353D01*
X63073Y248347D01*
X62987D01*
X62943Y248353D01*
X62894D01*
X62782Y248365D01*
X62652Y248378D01*
X62522Y248402D01*
X62392Y248440D01*
X62275Y248483D01*
X62262Y248489D01*
X62231Y248508D01*
X62176Y248538D01*
X62114Y248582D01*
X62046Y248644D01*
X61978Y248712D01*
X61903Y248792D01*
X61841Y248885D01*
Y248891D01*
X61835Y248898D01*
X61817Y248935D01*
X61792Y248990D01*
X61761Y249071D01*
X61730Y249170D01*
X61699Y249281D01*
X61674Y249411D01*
X61662Y249554D01*
X62665Y249690D01*
Y249677D01*
Y249653D01*
Y249609D01*
X62671Y249560D01*
X62683Y249448D01*
X62690Y249399D01*
X62702Y249349D01*
Y249343D01*
X62708Y249331D01*
X62721Y249312D01*
X62733Y249288D01*
X62770Y249232D01*
X62826Y249182D01*
X62838Y249176D01*
X62869Y249164D01*
X62925Y249145D01*
X62999Y249139D01*
X63030D01*
X63061Y249145D01*
X63098Y249158D01*
X63135Y249170D01*
X63178Y249195D01*
X63222Y249226D01*
X63253Y249269D01*
X63259Y249275D01*
X63265Y249294D01*
X63278Y249325D01*
X63296Y249374D01*
X63315Y249436D01*
X63327Y249510D01*
X63333Y249603D01*
X63339Y249709D01*
Y251795D01*
X64392D01*
Y249950D01*
D02*
G37*
G36*
X10683Y71041D02*
X10447D01*
Y73462D01*
X10683D01*
Y71041D01*
D02*
G37*
G36*
X99039Y237645D02*
X96785D01*
X96792Y237632D01*
X96816Y237608D01*
X96847Y237558D01*
X96891Y237503D01*
X96934Y237434D01*
X96983Y237354D01*
X97033Y237274D01*
X97076Y237193D01*
X97083Y237181D01*
X97095Y237156D01*
X97114Y237106D01*
X97138Y237044D01*
X97169Y236964D01*
X97206Y236877D01*
X97237Y236772D01*
X97274Y236654D01*
X96507D01*
Y236661D01*
X96501Y236673D01*
X96488Y236698D01*
X96482Y236735D01*
X96464Y236772D01*
X96445Y236822D01*
X96402Y236927D01*
X96346Y237044D01*
X96284Y237168D01*
X96216Y237292D01*
X96135Y237397D01*
Y237403D01*
X96123Y237410D01*
X96098Y237441D01*
X96049Y237490D01*
X95981Y237552D01*
X95906Y237620D01*
X95814Y237688D01*
X95708Y237756D01*
X95591Y237818D01*
Y238598D01*
X99039D01*
Y237645D01*
D02*
G37*
G36*
X97949Y236097D02*
X97968Y236091D01*
X97992Y236085D01*
X98067Y236066D01*
X98153Y236029D01*
X98259Y235992D01*
X98364Y235936D01*
X98469Y235881D01*
X98574Y235806D01*
X98587Y235800D01*
X98618Y235769D01*
X98661Y235726D01*
X98723Y235670D01*
X98785Y235596D01*
X98847Y235515D01*
X98909Y235417D01*
X98964Y235311D01*
Y235305D01*
X98971Y235299D01*
X98977Y235280D01*
X98983Y235262D01*
X99008Y235194D01*
X99026Y235107D01*
X99051Y235002D01*
X99076Y234872D01*
X99088Y234723D01*
X99094Y234562D01*
Y234556D01*
Y234538D01*
Y234507D01*
Y234469D01*
X99088Y234420D01*
Y234370D01*
X99082Y234308D01*
X99076Y234240D01*
X99057Y234098D01*
X99026Y233943D01*
X98989Y233795D01*
X98940Y233652D01*
Y233646D01*
X98933Y233640D01*
X98921Y233621D01*
X98909Y233597D01*
X98865Y233528D01*
X98810Y233448D01*
X98729Y233355D01*
X98636Y233250D01*
X98519Y233151D01*
X98376Y233052D01*
X98370D01*
X98358Y233039D01*
X98333Y233027D01*
X98302Y233015D01*
X98265Y232996D01*
X98215Y232971D01*
X98160Y232947D01*
X98092Y232928D01*
X98023Y232903D01*
X97943Y232879D01*
X97856Y232860D01*
X97764Y232835D01*
X97664Y232823D01*
X97559Y232810D01*
X97336Y232798D01*
X97299D01*
X97256Y232804D01*
X97200D01*
X97126Y232810D01*
X97045Y232823D01*
X96959Y232835D01*
X96860Y232854D01*
X96754Y232879D01*
X96649Y232909D01*
X96544Y232941D01*
X96433Y232984D01*
X96327Y233039D01*
X96228Y233095D01*
X96129Y233163D01*
X96043Y233244D01*
X96036Y233250D01*
X96024Y233262D01*
X95999Y233293D01*
X95974Y233324D01*
X95937Y233374D01*
X95900Y233430D01*
X95857Y233491D01*
X95814Y233572D01*
X95776Y233652D01*
X95733Y233751D01*
X95696Y233857D01*
X95659Y233968D01*
X95634Y234092D01*
X95609Y234222D01*
X95597Y234364D01*
X95591Y234513D01*
Y234519D01*
Y234544D01*
Y234575D01*
X95597Y234618D01*
Y234674D01*
X95603Y234736D01*
X95609Y234804D01*
X95622Y234878D01*
X95653Y235045D01*
X95702Y235212D01*
X95764Y235373D01*
X95807Y235447D01*
X95851Y235522D01*
Y235528D01*
X95863Y235540D01*
X95876Y235559D01*
X95900Y235584D01*
X95925Y235614D01*
X95962Y235652D01*
X95999Y235689D01*
X96049Y235732D01*
X96098Y235775D01*
X96160Y235819D01*
X96222Y235868D01*
X96296Y235912D01*
X96377Y235955D01*
X96457Y235998D01*
X96550Y236035D01*
X96649Y236073D01*
X96854Y235144D01*
X96847D01*
X96829Y235138D01*
X96798Y235125D01*
X96767Y235113D01*
X96693Y235076D01*
X96662Y235057D01*
X96631Y235039D01*
X96624Y235033D01*
X96612Y235027D01*
X96587Y235002D01*
X96563Y234977D01*
X96501Y234909D01*
X96445Y234822D01*
X96439Y234816D01*
X96433Y234804D01*
X96420Y234773D01*
X96408Y234742D01*
X96395Y234698D01*
X96389Y234649D01*
X96377Y234593D01*
Y234538D01*
Y234531D01*
Y234519D01*
Y234500D01*
X96383Y234482D01*
X96389Y234414D01*
X96414Y234333D01*
X96445Y234246D01*
X96501Y234154D01*
X96569Y234067D01*
X96618Y234030D01*
X96668Y233993D01*
X96680Y233987D01*
X96705Y233968D01*
X96761Y233949D01*
X96829Y233925D01*
X96922Y233894D01*
X97033Y233875D01*
X97169Y233857D01*
X97330Y233850D01*
X97423D01*
X97466Y233857D01*
X97522D01*
X97640Y233869D01*
X97764Y233894D01*
X97893Y233918D01*
X98011Y233962D01*
X98061Y233987D01*
X98104Y234017D01*
X98110Y234024D01*
X98135Y234049D01*
X98166Y234092D01*
X98203Y234141D01*
X98246Y234209D01*
X98277Y234296D01*
X98302Y234389D01*
X98308Y234500D01*
Y234507D01*
Y234513D01*
Y234550D01*
X98302Y234606D01*
X98290Y234674D01*
X98265Y234748D01*
X98240Y234822D01*
X98197Y234896D01*
X98141Y234958D01*
X98135Y234965D01*
X98110Y234983D01*
X98073Y235014D01*
X98017Y235045D01*
X97949Y235082D01*
X97862Y235119D01*
X97764Y235156D01*
X97646Y235187D01*
X97931Y236104D01*
X97937D01*
X97949Y236097D01*
D02*
G37*
G36*
X-24584Y188656D02*
X-26837D01*
X-26831Y188644D01*
X-26806Y188619D01*
X-26775Y188570D01*
X-26731Y188514D01*
X-26688Y188446D01*
X-26639Y188365D01*
X-26589Y188285D01*
X-26546Y188205D01*
X-26539Y188192D01*
X-26527Y188167D01*
X-26509Y188118D01*
X-26484Y188056D01*
X-26453Y187976D01*
X-26416Y187889D01*
X-26385Y187784D01*
X-26348Y187666D01*
X-27115D01*
Y187672D01*
X-27121Y187685D01*
X-27134Y187709D01*
X-27140Y187746D01*
X-27158Y187784D01*
X-27177Y187833D01*
X-27220Y187938D01*
X-27276Y188056D01*
X-27338Y188180D01*
X-27406Y188303D01*
X-27487Y188409D01*
Y188415D01*
X-27499Y188421D01*
X-27524Y188452D01*
X-27573Y188502D01*
X-27641Y188564D01*
X-27716Y188632D01*
X-27808Y188700D01*
X-27914Y188768D01*
X-28031Y188830D01*
Y189610D01*
X-24584D01*
Y188656D01*
D02*
G37*
%LPC*%
G36*
X-34117Y257978D02*
X-34148D01*
X-34185Y257972D01*
X-34222Y257959D01*
X-34271Y257941D01*
X-34327Y257916D01*
X-34377Y257885D01*
X-34426Y257836D01*
X-34432Y257829D01*
X-34445Y257811D01*
X-34463Y257774D01*
X-34482Y257730D01*
X-34507Y257668D01*
X-34525Y257600D01*
X-34538Y257514D01*
X-34544Y257415D01*
Y257402D01*
Y257365D01*
X-34538Y257316D01*
X-34525Y257254D01*
X-34513Y257186D01*
X-34494Y257111D01*
X-34463Y257043D01*
X-34420Y256981D01*
X-34414Y256975D01*
X-34395Y256957D01*
X-34370Y256932D01*
X-34333Y256907D01*
X-34284Y256882D01*
X-34228Y256857D01*
X-34166Y256839D01*
X-34098Y256833D01*
X-34067D01*
X-34030Y256839D01*
X-33980Y256851D01*
X-33931Y256870D01*
X-33875Y256895D01*
X-33819Y256926D01*
X-33770Y256975D01*
X-33764Y256981D01*
X-33751Y257000D01*
X-33727Y257037D01*
X-33702Y257080D01*
X-33683Y257136D01*
X-33659Y257210D01*
X-33646Y257297D01*
X-33640Y257390D01*
Y257396D01*
Y257402D01*
Y257433D01*
X-33646Y257483D01*
X-33659Y257545D01*
X-33677Y257613D01*
X-33702Y257687D01*
X-33733Y257755D01*
X-33782Y257817D01*
X-33788Y257823D01*
X-33807Y257842D01*
X-33838Y257867D01*
X-33875Y257897D01*
X-33925Y257928D01*
X-33980Y257953D01*
X-34042Y257972D01*
X-34117Y257978D01*
D02*
G37*
G36*
X42932Y198935D02*
X42901D01*
X42871Y198929D01*
X42833Y198923D01*
X42784Y198910D01*
X42740Y198886D01*
X42691Y198861D01*
X42648Y198824D01*
X42641Y198818D01*
X42629Y198805D01*
X42617Y198780D01*
X42598Y198749D01*
X42573Y198712D01*
X42561Y198663D01*
X42549Y198613D01*
X42542Y198551D01*
Y198545D01*
Y198520D01*
X42549Y198489D01*
X42555Y198452D01*
X42567Y198409D01*
X42586Y198360D01*
X42610Y198316D01*
X42648Y198273D01*
X42654Y198267D01*
X42666Y198254D01*
X42691Y198242D01*
X42728Y198223D01*
X42771Y198198D01*
X42821Y198186D01*
X42877Y198174D01*
X42945Y198168D01*
X42976D01*
X43001Y198174D01*
X43044Y198180D01*
X43087Y198192D01*
X43130Y198211D01*
X43174Y198236D01*
X43217Y198267D01*
X43223Y198273D01*
X43236Y198285D01*
X43248Y198310D01*
X43273Y198341D01*
X43291Y198378D01*
X43304Y198428D01*
X43316Y198477D01*
X43322Y198539D01*
Y198545D01*
Y198570D01*
X43316Y198601D01*
X43310Y198638D01*
X43298Y198688D01*
X43273Y198731D01*
X43248Y198780D01*
X43211Y198824D01*
X43205Y198830D01*
X43192Y198842D01*
X43168Y198861D01*
X43137Y198879D01*
X43093Y198898D01*
X43044Y198917D01*
X42994Y198929D01*
X42932Y198935D01*
D02*
G37*
G36*
Y197610D02*
X42901D01*
X42871Y197604D01*
X42827Y197592D01*
X42778Y197573D01*
X42728Y197549D01*
X42672Y197518D01*
X42623Y197468D01*
X42617Y197462D01*
X42604Y197443D01*
X42579Y197412D01*
X42561Y197369D01*
X42536Y197320D01*
X42511Y197251D01*
X42499Y197183D01*
X42493Y197097D01*
Y197084D01*
Y197060D01*
X42499Y197016D01*
X42511Y196967D01*
X42524Y196905D01*
X42549Y196843D01*
X42586Y196781D01*
X42629Y196725D01*
X42635Y196719D01*
X42654Y196707D01*
X42679Y196682D01*
X42722Y196657D01*
X42765Y196633D01*
X42815Y196608D01*
X42877Y196595D01*
X42939Y196589D01*
X42970D01*
X43001Y196595D01*
X43044Y196608D01*
X43093Y196626D01*
X43143Y196651D01*
X43198Y196682D01*
X43248Y196731D01*
X43254Y196738D01*
X43267Y196756D01*
X43291Y196787D01*
X43316Y196830D01*
X43341Y196886D01*
X43366Y196948D01*
X43378Y197016D01*
X43384Y197097D01*
Y197109D01*
Y197134D01*
X43378Y197177D01*
X43366Y197227D01*
X43353Y197282D01*
X43328Y197344D01*
X43291Y197406D01*
X43248Y197462D01*
X43242Y197468D01*
X43223Y197487D01*
X43198Y197511D01*
X43155Y197536D01*
X43112Y197561D01*
X43056Y197586D01*
X43001Y197604D01*
X42932Y197610D01*
D02*
G37*
G36*
X-48764Y215792D02*
X-48776D01*
X-48801Y215786D01*
X-48844Y215780D01*
X-48894Y215761D01*
X-48950Y215736D01*
X-49005Y215693D01*
X-49061Y215631D01*
X-49104Y215550D01*
X-49111Y215538D01*
X-49117Y215526D01*
X-49123Y215501D01*
X-49129Y215476D01*
X-49135Y215445D01*
X-49148Y215402D01*
X-49154Y215352D01*
X-49166Y215297D01*
X-49179Y215235D01*
X-49185Y215161D01*
X-49191Y215086D01*
X-49197Y214993D01*
X-49203Y214901D01*
X-49210Y214795D01*
Y214678D01*
Y214671D01*
Y214647D01*
Y214616D01*
Y214573D01*
X-49203Y214523D01*
Y214461D01*
X-49197Y214325D01*
X-49185Y214176D01*
X-49160Y214028D01*
X-49148Y213960D01*
X-49135Y213898D01*
X-49117Y213842D01*
X-49098Y213793D01*
X-49092Y213780D01*
X-49073Y213755D01*
X-49049Y213718D01*
X-49011Y213675D01*
X-48962Y213632D01*
X-48906Y213595D01*
X-48838Y213570D01*
X-48764Y213557D01*
X-48739D01*
X-48708Y213563D01*
X-48677Y213570D01*
X-48634Y213582D01*
X-48597Y213601D01*
X-48553Y213625D01*
X-48510Y213656D01*
X-48504Y213663D01*
X-48492Y213675D01*
X-48473Y213700D01*
X-48448Y213731D01*
X-48423Y213780D01*
X-48399Y213830D01*
X-48374Y213898D01*
X-48355Y213972D01*
Y213984D01*
X-48349Y214015D01*
X-48337Y214065D01*
X-48324Y214139D01*
X-48318Y214232D01*
X-48306Y214350D01*
X-48300Y214486D01*
Y214647D01*
Y214653D01*
Y214678D01*
Y214709D01*
Y214758D01*
X-48306Y214808D01*
Y214876D01*
X-48312Y215012D01*
X-48331Y215167D01*
X-48349Y215315D01*
X-48362Y215383D01*
X-48380Y215452D01*
X-48399Y215507D01*
X-48417Y215557D01*
X-48423Y215569D01*
X-48442Y215594D01*
X-48467Y215631D01*
X-48504Y215674D01*
X-48553Y215718D01*
X-48615Y215755D01*
X-48684Y215780D01*
X-48764Y215792D01*
D02*
G37*
G36*
X103162Y279236D02*
X103075D01*
X103032Y279230D01*
X102982D01*
X102865Y279211D01*
X102747Y279192D01*
X102623Y279162D01*
X102512Y279118D01*
X102469Y279087D01*
X102425Y279056D01*
X102419Y279050D01*
X102394Y279019D01*
X102364Y278976D01*
X102320Y278914D01*
X102283Y278833D01*
X102252Y278734D01*
X102227Y278611D01*
X102221Y278468D01*
Y278208D01*
X104072D01*
Y278462D01*
Y278468D01*
Y278474D01*
Y278493D01*
Y278518D01*
X104066Y278573D01*
Y278648D01*
X104053Y278722D01*
X104041Y278802D01*
X104029Y278871D01*
X104004Y278932D01*
X103998Y278939D01*
X103991Y278957D01*
X103973Y278982D01*
X103942Y279013D01*
X103911Y279050D01*
X103868Y279087D01*
X103812Y279124D01*
X103750Y279155D01*
X103744Y279162D01*
X103713Y279168D01*
X103670Y279180D01*
X103608Y279199D01*
X103527Y279211D01*
X103422Y279223D01*
X103304Y279230D01*
X103162Y279236D01*
D02*
G37*
G36*
X-10713Y269090D02*
X-10757D01*
X-10806Y269084D01*
X-10868Y269071D01*
X-10936Y269053D01*
X-11011Y269028D01*
X-11079Y268997D01*
X-11141Y268948D01*
X-11147Y268941D01*
X-11165Y268923D01*
X-11190Y268892D01*
X-11221Y268855D01*
X-11252Y268805D01*
X-11277Y268749D01*
X-11295Y268688D01*
X-11302Y268613D01*
Y268607D01*
Y268582D01*
X-11295Y268545D01*
X-11283Y268508D01*
X-11264Y268459D01*
X-11240Y268403D01*
X-11209Y268353D01*
X-11159Y268304D01*
X-11153Y268298D01*
X-11134Y268285D01*
X-11097Y268267D01*
X-11054Y268248D01*
X-10992Y268223D01*
X-10924Y268205D01*
X-10837Y268192D01*
X-10738Y268186D01*
X-10689D01*
X-10639Y268192D01*
X-10577Y268205D01*
X-10509Y268217D01*
X-10435Y268236D01*
X-10367Y268267D01*
X-10305Y268310D01*
X-10299Y268316D01*
X-10280Y268335D01*
X-10255Y268360D01*
X-10231Y268397D01*
X-10206Y268446D01*
X-10181Y268502D01*
X-10163Y268564D01*
X-10156Y268632D01*
Y268638D01*
Y268663D01*
X-10163Y268700D01*
X-10175Y268749D01*
X-10193Y268799D01*
X-10218Y268855D01*
X-10249Y268911D01*
X-10299Y268960D01*
X-10305Y268966D01*
X-10323Y268979D01*
X-10361Y269003D01*
X-10404Y269028D01*
X-10460Y269047D01*
X-10534Y269071D01*
X-10621Y269084D01*
X-10713Y269090D01*
D02*
G37*
G36*
X-18783Y192731D02*
X-18833D01*
X-18882Y192725D01*
X-18944Y192713D01*
X-19012Y192700D01*
X-19086Y192675D01*
X-19154Y192638D01*
X-19216Y192595D01*
X-19223Y192589D01*
X-19241Y192570D01*
X-19266Y192545D01*
X-19297Y192508D01*
X-19322Y192459D01*
X-19346Y192403D01*
X-19365Y192341D01*
X-19371Y192273D01*
Y192267D01*
Y192242D01*
X-19365Y192205D01*
X-19353Y192156D01*
X-19334Y192106D01*
X-19309Y192050D01*
X-19272Y191995D01*
X-19223Y191939D01*
X-19216Y191933D01*
X-19198Y191920D01*
X-19161Y191896D01*
X-19117Y191877D01*
X-19062Y191852D01*
X-18987Y191827D01*
X-18907Y191815D01*
X-18808Y191809D01*
X-18765D01*
X-18715Y191815D01*
X-18653Y191827D01*
X-18585Y191840D01*
X-18511Y191865D01*
X-18443Y191902D01*
X-18381Y191945D01*
X-18375Y191951D01*
X-18356Y191970D01*
X-18331Y192001D01*
X-18306Y192044D01*
X-18276Y192094D01*
X-18251Y192149D01*
X-18232Y192218D01*
X-18226Y192292D01*
Y192298D01*
Y192323D01*
X-18232Y192360D01*
X-18245Y192403D01*
X-18257Y192446D01*
X-18282Y192502D01*
X-18319Y192552D01*
X-18362Y192601D01*
X-18368Y192607D01*
X-18387Y192620D01*
X-18424Y192645D01*
X-18467Y192669D01*
X-18529Y192688D01*
X-18597Y192713D01*
X-18684Y192725D01*
X-18783Y192731D01*
D02*
G37*
G36*
X80544Y270580D02*
X80271D01*
X80222Y270574D01*
X80154D01*
X80018Y270567D01*
X79863Y270549D01*
X79714Y270530D01*
X79646Y270518D01*
X79578Y270499D01*
X79522Y270481D01*
X79473Y270462D01*
X79460Y270456D01*
X79436Y270437D01*
X79399Y270413D01*
X79355Y270375D01*
X79312Y270326D01*
X79275Y270264D01*
X79250Y270196D01*
X79238Y270116D01*
Y270103D01*
X79244Y270078D01*
X79250Y270035D01*
X79268Y269986D01*
X79293Y269930D01*
X79337Y269874D01*
X79399Y269818D01*
X79479Y269775D01*
X79491Y269769D01*
X79504Y269763D01*
X79528Y269757D01*
X79553Y269750D01*
X79584Y269744D01*
X79628Y269732D01*
X79677Y269726D01*
X79733Y269713D01*
X79795Y269701D01*
X79869Y269695D01*
X79943Y269689D01*
X80036Y269682D01*
X80129Y269676D01*
X80234Y269670D01*
X80457D01*
X80506Y269676D01*
X80568D01*
X80705Y269682D01*
X80853Y269695D01*
X81002Y269719D01*
X81070Y269732D01*
X81132Y269744D01*
X81187Y269763D01*
X81237Y269781D01*
X81249Y269788D01*
X81274Y269806D01*
X81311Y269831D01*
X81355Y269868D01*
X81398Y269917D01*
X81435Y269973D01*
X81460Y270041D01*
X81472Y270116D01*
Y270122D01*
Y270140D01*
X81466Y270171D01*
X81460Y270202D01*
X81447Y270246D01*
X81429Y270283D01*
X81404Y270326D01*
X81373Y270369D01*
X81367Y270375D01*
X81355Y270388D01*
X81330Y270407D01*
X81299Y270431D01*
X81249Y270456D01*
X81200Y270481D01*
X81132Y270505D01*
X81057Y270524D01*
X81045D01*
X81014Y270530D01*
X80965Y270543D01*
X80890Y270555D01*
X80797Y270561D01*
X80680Y270574D01*
X80544Y270580D01*
D02*
G37*
G36*
X80432Y263858D02*
X80247D01*
X80209Y263851D01*
X80166Y263845D01*
X80061Y263833D01*
X79949Y263808D01*
X79832Y263777D01*
X79720Y263727D01*
X79628Y263659D01*
X79615Y263653D01*
X79590Y263622D01*
X79559Y263579D01*
X79516Y263523D01*
X79473Y263449D01*
X79442Y263356D01*
X79417Y263251D01*
X79405Y263133D01*
Y263127D01*
Y263121D01*
X79411Y263084D01*
X79417Y263022D01*
X79436Y262954D01*
X79460Y262873D01*
X79504Y262787D01*
X79559Y262700D01*
X79634Y262626D01*
X79646Y262619D01*
X79677Y262595D01*
X79733Y262564D01*
X79807Y262533D01*
X79857Y262514D01*
X79912Y262496D01*
X79974Y262477D01*
X80036Y262465D01*
X80110Y262452D01*
X80191Y262440D01*
X80278Y262434D01*
X80420D01*
X80451Y262440D01*
X80494D01*
X80544Y262446D01*
X80655Y262458D01*
X80773Y262477D01*
X80897Y262514D01*
X81014Y262558D01*
X81064Y262589D01*
X81107Y262619D01*
X81119Y262626D01*
X81144Y262657D01*
X81175Y262700D01*
X81218Y262756D01*
X81262Y262830D01*
X81293Y262923D01*
X81317Y263028D01*
X81330Y263146D01*
Y263152D01*
Y263158D01*
Y263177D01*
X81324Y263201D01*
X81317Y263263D01*
X81305Y263337D01*
X81274Y263418D01*
X81237Y263505D01*
X81187Y263591D01*
X81113Y263666D01*
X81101Y263672D01*
X81070Y263697D01*
X81045Y263709D01*
X81014Y263727D01*
X80977Y263746D01*
X80934Y263765D01*
X80884Y263777D01*
X80828Y263796D01*
X80760Y263814D01*
X80692Y263826D01*
X80612Y263839D01*
X80525Y263851D01*
X80432Y263858D01*
D02*
G37*
G36*
X-4239Y185865D02*
X-4307D01*
X-4338Y185859D01*
X-4375Y185853D01*
X-4412Y185840D01*
X-4456Y185822D01*
X-4493Y185797D01*
X-4530Y185760D01*
X-4536Y185754D01*
X-4542Y185741D01*
X-4561Y185711D01*
X-4580Y185673D01*
X-4592Y185618D01*
X-4611Y185550D01*
X-4617Y185463D01*
X-4623Y185364D01*
Y184906D01*
X-3936D01*
Y185345D01*
Y185352D01*
Y185358D01*
Y185382D01*
X-3942Y185407D01*
X-3948Y185444D01*
X-3954Y185494D01*
X-3967Y185556D01*
X-3979Y185624D01*
Y185630D01*
X-3985Y185642D01*
X-3991Y185661D01*
X-3998Y185686D01*
X-4029Y185741D01*
X-4053Y185772D01*
X-4084Y185797D01*
X-4090Y185803D01*
X-4103Y185810D01*
X-4115Y185822D01*
X-4140Y185834D01*
X-4202Y185853D01*
X-4239Y185865D01*
D02*
G37*
G36*
X-41078Y186157D02*
X-41146D01*
X-41177Y186151D01*
X-41214Y186145D01*
X-41251Y186133D01*
X-41295Y186114D01*
X-41332Y186089D01*
X-41369Y186052D01*
X-41375Y186046D01*
X-41381Y186034D01*
X-41400Y186003D01*
X-41418Y185966D01*
X-41431Y185910D01*
X-41449Y185842D01*
X-41456Y185755D01*
X-41462Y185656D01*
Y185198D01*
X-40775D01*
Y185637D01*
Y185644D01*
Y185650D01*
Y185675D01*
X-40781Y185699D01*
X-40787Y185737D01*
X-40793Y185786D01*
X-40806Y185848D01*
X-40818Y185916D01*
Y185922D01*
X-40824Y185935D01*
X-40830Y185953D01*
X-40837Y185978D01*
X-40867Y186034D01*
X-40892Y186065D01*
X-40923Y186089D01*
X-40929Y186096D01*
X-40942Y186102D01*
X-40954Y186114D01*
X-40979Y186126D01*
X-41041Y186145D01*
X-41078Y186157D01*
D02*
G37*
G36*
X-32709Y192212D02*
X-33780D01*
X-32709Y191296D01*
Y192212D01*
D02*
G37*
G36*
X-26905Y185958D02*
X-26973D01*
X-27004Y185951D01*
X-27041Y185945D01*
X-27078Y185933D01*
X-27121Y185914D01*
X-27158Y185889D01*
X-27196Y185852D01*
X-27202Y185846D01*
X-27208Y185834D01*
X-27227Y185803D01*
X-27245Y185766D01*
X-27258Y185710D01*
X-27276Y185642D01*
X-27282Y185555D01*
X-27288Y185456D01*
Y184998D01*
X-26601D01*
Y185438D01*
Y185444D01*
Y185450D01*
Y185475D01*
X-26608Y185500D01*
X-26614Y185537D01*
X-26620Y185586D01*
X-26632Y185648D01*
X-26645Y185716D01*
Y185722D01*
X-26651Y185735D01*
X-26657Y185753D01*
X-26663Y185778D01*
X-26694Y185834D01*
X-26719Y185865D01*
X-26750Y185889D01*
X-26756Y185896D01*
X-26768Y185902D01*
X-26781Y185914D01*
X-26806Y185927D01*
X-26868Y185945D01*
X-26905Y185958D01*
D02*
G37*
G36*
X-33668Y185911D02*
X-33736D01*
X-33767Y185905D01*
X-33804Y185899D01*
X-33841Y185886D01*
X-33885Y185868D01*
X-33922Y185843D01*
X-33959Y185806D01*
X-33965Y185800D01*
X-33972Y185787D01*
X-33990Y185756D01*
X-34009Y185719D01*
X-34021Y185663D01*
X-34040Y185595D01*
X-34046Y185509D01*
X-34052Y185410D01*
Y184952D01*
X-33365D01*
Y185391D01*
Y185397D01*
Y185404D01*
Y185428D01*
X-33371Y185453D01*
X-33377Y185490D01*
X-33384Y185540D01*
X-33396Y185602D01*
X-33408Y185670D01*
Y185676D01*
X-33414Y185688D01*
X-33421Y185707D01*
X-33427Y185732D01*
X-33458Y185787D01*
X-33483Y185818D01*
X-33514Y185843D01*
X-33520Y185849D01*
X-33532Y185855D01*
X-33544Y185868D01*
X-33569Y185880D01*
X-33631Y185899D01*
X-33668Y185911D01*
D02*
G37*
G36*
X-20015Y186145D02*
X-20083D01*
X-20114Y186139D01*
X-20151Y186133D01*
X-20188Y186120D01*
X-20232Y186102D01*
X-20269Y186077D01*
X-20306Y186040D01*
X-20312Y186034D01*
X-20318Y186021D01*
X-20337Y185990D01*
X-20355Y185953D01*
X-20368Y185898D01*
X-20386Y185829D01*
X-20392Y185743D01*
X-20399Y185644D01*
Y185186D01*
X-19712D01*
Y185625D01*
Y185631D01*
Y185637D01*
Y185662D01*
X-19718Y185687D01*
X-19724Y185724D01*
X-19730Y185774D01*
X-19743Y185836D01*
X-19755Y185904D01*
Y185910D01*
X-19761Y185922D01*
X-19767Y185941D01*
X-19773Y185966D01*
X-19805Y186021D01*
X-19829Y186052D01*
X-19860Y186077D01*
X-19866Y186083D01*
X-19879Y186089D01*
X-19891Y186102D01*
X-19916Y186114D01*
X-19978Y186133D01*
X-20015Y186145D01*
D02*
G37*
G36*
X80432Y259908D02*
X80247D01*
X80209Y259902D01*
X80166Y259896D01*
X80061Y259883D01*
X79949Y259859D01*
X79832Y259828D01*
X79720Y259778D01*
X79628Y259710D01*
X79615Y259704D01*
X79590Y259673D01*
X79559Y259630D01*
X79516Y259574D01*
X79473Y259500D01*
X79442Y259407D01*
X79417Y259302D01*
X79405Y259184D01*
Y259178D01*
Y259172D01*
X79411Y259135D01*
X79417Y259073D01*
X79436Y259004D01*
X79460Y258924D01*
X79504Y258837D01*
X79559Y258751D01*
X79634Y258676D01*
X79646Y258670D01*
X79677Y258646D01*
X79733Y258614D01*
X79807Y258584D01*
X79857Y258565D01*
X79912Y258546D01*
X79974Y258528D01*
X80036Y258516D01*
X80110Y258503D01*
X80191Y258491D01*
X80278Y258485D01*
X80420D01*
X80451Y258491D01*
X80494D01*
X80544Y258497D01*
X80655Y258509D01*
X80773Y258528D01*
X80897Y258565D01*
X81014Y258608D01*
X81064Y258639D01*
X81107Y258670D01*
X81119Y258676D01*
X81144Y258707D01*
X81175Y258751D01*
X81218Y258806D01*
X81262Y258881D01*
X81293Y258974D01*
X81317Y259079D01*
X81330Y259196D01*
Y259203D01*
Y259209D01*
Y259227D01*
X81324Y259252D01*
X81317Y259314D01*
X81305Y259388D01*
X81274Y259469D01*
X81237Y259555D01*
X81187Y259642D01*
X81113Y259716D01*
X81101Y259723D01*
X81070Y259747D01*
X81045Y259760D01*
X81014Y259778D01*
X80977Y259797D01*
X80934Y259815D01*
X80884Y259828D01*
X80828Y259846D01*
X80760Y259865D01*
X80692Y259877D01*
X80612Y259890D01*
X80525Y259902D01*
X80432Y259908D01*
D02*
G37*
G36*
X59573Y280537D02*
X59115D01*
Y279849D01*
X59592D01*
X59617Y279856D01*
X59654Y279862D01*
X59703Y279868D01*
X59765Y279880D01*
X59833Y279893D01*
X59840D01*
X59852Y279899D01*
X59870Y279905D01*
X59895Y279911D01*
X59951Y279942D01*
X59982Y279967D01*
X60007Y279998D01*
X60013Y280004D01*
X60019Y280017D01*
X60031Y280029D01*
X60044Y280054D01*
X60062Y280116D01*
X60075Y280153D01*
Y280196D01*
Y280202D01*
Y280221D01*
X60069Y280252D01*
X60062Y280289D01*
X60050Y280326D01*
X60031Y280369D01*
X60007Y280406D01*
X59970Y280444D01*
X59963Y280450D01*
X59951Y280456D01*
X59920Y280475D01*
X59883Y280493D01*
X59827Y280506D01*
X59759Y280524D01*
X59672Y280530D01*
X59573Y280537D01*
D02*
G37*
G36*
X2567Y192306D02*
X2536D01*
X2505Y192300D01*
X2468Y192294D01*
X2418Y192281D01*
X2375Y192256D01*
X2325Y192232D01*
X2282Y192195D01*
X2276Y192188D01*
X2263Y192176D01*
X2245Y192151D01*
X2226Y192120D01*
X2207Y192077D01*
X2189Y192027D01*
X2176Y191978D01*
X2170Y191916D01*
Y191910D01*
Y191885D01*
X2176Y191854D01*
X2183Y191817D01*
X2195Y191767D01*
X2220Y191724D01*
X2245Y191675D01*
X2282Y191631D01*
X2288Y191625D01*
X2300Y191613D01*
X2325Y191600D01*
X2356Y191582D01*
X2393Y191557D01*
X2443Y191545D01*
X2492Y191532D01*
X2554Y191526D01*
X2585D01*
X2616Y191532D01*
X2653Y191538D01*
X2696Y191551D01*
X2746Y191569D01*
X2789Y191594D01*
X2833Y191631D01*
X2839Y191637D01*
X2851Y191650D01*
X2864Y191675D01*
X2882Y191712D01*
X2907Y191755D01*
X2919Y191805D01*
X2932Y191860D01*
X2938Y191928D01*
Y191935D01*
Y191959D01*
X2932Y191984D01*
X2926Y192027D01*
X2913Y192071D01*
X2895Y192114D01*
X2870Y192157D01*
X2839Y192201D01*
X2833Y192207D01*
X2820Y192219D01*
X2796Y192232D01*
X2765Y192256D01*
X2727Y192275D01*
X2678Y192287D01*
X2628Y192300D01*
X2567Y192306D01*
D02*
G37*
G36*
X-10763Y262640D02*
X-10831D01*
X-10862Y262634D01*
X-10899Y262628D01*
X-10936Y262615D01*
X-10980Y262597D01*
X-11017Y262572D01*
X-11054Y262535D01*
X-11060Y262529D01*
X-11066Y262516D01*
X-11085Y262485D01*
X-11103Y262448D01*
X-11116Y262392D01*
X-11134Y262324D01*
X-11141Y262238D01*
X-11147Y262139D01*
Y261681D01*
X-10460D01*
Y262120D01*
Y262126D01*
Y262132D01*
Y262157D01*
X-10466Y262182D01*
X-10472Y262219D01*
X-10478Y262269D01*
X-10491Y262331D01*
X-10503Y262399D01*
Y262405D01*
X-10509Y262417D01*
X-10515Y262436D01*
X-10522Y262460D01*
X-10553Y262516D01*
X-10577Y262547D01*
X-10608Y262572D01*
X-10614Y262578D01*
X-10627Y262584D01*
X-10639Y262597D01*
X-10664Y262609D01*
X-10726Y262628D01*
X-10763Y262640D01*
D02*
G37*
G36*
X66129Y280654D02*
X66116D01*
X66092Y280648D01*
X66048Y280642D01*
X65999Y280623D01*
X65943Y280598D01*
X65887Y280555D01*
X65832Y280493D01*
X65788Y280413D01*
X65782Y280400D01*
X65776Y280388D01*
X65770Y280363D01*
X65763Y280339D01*
X65757Y280308D01*
X65745Y280264D01*
X65739Y280215D01*
X65726Y280159D01*
X65714Y280097D01*
X65708Y280023D01*
X65702Y279948D01*
X65695Y279856D01*
X65689Y279763D01*
X65683Y279658D01*
Y279540D01*
Y279534D01*
Y279509D01*
Y279478D01*
Y279435D01*
X65689Y279385D01*
Y279323D01*
X65695Y279187D01*
X65708Y279039D01*
X65732Y278890D01*
X65745Y278822D01*
X65757Y278760D01*
X65776Y278704D01*
X65794Y278655D01*
X65800Y278642D01*
X65819Y278618D01*
X65844Y278580D01*
X65881Y278537D01*
X65930Y278494D01*
X65986Y278457D01*
X66054Y278432D01*
X66129Y278419D01*
X66153D01*
X66184Y278426D01*
X66215Y278432D01*
X66259Y278444D01*
X66296Y278463D01*
X66339Y278488D01*
X66382Y278519D01*
X66389Y278525D01*
X66401Y278537D01*
X66420Y278562D01*
X66444Y278593D01*
X66469Y278642D01*
X66494Y278692D01*
X66519Y278760D01*
X66537Y278834D01*
Y278847D01*
X66543Y278878D01*
X66556Y278927D01*
X66568Y279001D01*
X66574Y279094D01*
X66587Y279212D01*
X66593Y279348D01*
Y279509D01*
Y279515D01*
Y279540D01*
Y279571D01*
Y279620D01*
X66587Y279670D01*
Y279738D01*
X66580Y279874D01*
X66562Y280029D01*
X66543Y280177D01*
X66531Y280246D01*
X66512Y280314D01*
X66494Y280369D01*
X66475Y280419D01*
X66469Y280431D01*
X66451Y280456D01*
X66426Y280493D01*
X66389Y280537D01*
X66339Y280580D01*
X66277Y280617D01*
X66209Y280642D01*
X66129Y280654D01*
D02*
G37*
G36*
X4009Y192368D02*
X3972D01*
X3928Y192362D01*
X3879Y192349D01*
X3823Y192337D01*
X3761Y192312D01*
X3699Y192275D01*
X3644Y192232D01*
X3637Y192226D01*
X3619Y192207D01*
X3594Y192182D01*
X3569Y192139D01*
X3545Y192095D01*
X3520Y192040D01*
X3501Y191984D01*
X3495Y191916D01*
Y191910D01*
Y191885D01*
X3501Y191854D01*
X3514Y191811D01*
X3532Y191761D01*
X3557Y191712D01*
X3588Y191656D01*
X3637Y191606D01*
X3644Y191600D01*
X3662Y191588D01*
X3693Y191563D01*
X3736Y191545D01*
X3786Y191520D01*
X3854Y191495D01*
X3922Y191483D01*
X4009Y191477D01*
X4046D01*
X4089Y191483D01*
X4139Y191495D01*
X4201Y191507D01*
X4263Y191532D01*
X4324Y191569D01*
X4380Y191613D01*
X4386Y191619D01*
X4399Y191637D01*
X4423Y191662D01*
X4448Y191706D01*
X4473Y191749D01*
X4498Y191798D01*
X4510Y191860D01*
X4516Y191922D01*
Y191928D01*
Y191953D01*
X4510Y191984D01*
X4498Y192027D01*
X4479Y192077D01*
X4454Y192127D01*
X4423Y192182D01*
X4374Y192232D01*
X4368Y192238D01*
X4349Y192250D01*
X4318Y192275D01*
X4275Y192300D01*
X4219Y192324D01*
X4157Y192349D01*
X4089Y192362D01*
X4009Y192368D01*
D02*
G37*
G36*
X79671Y255835D02*
X79646D01*
X79621Y255829D01*
X79584Y255823D01*
X79547Y255810D01*
X79510Y255792D01*
X79473Y255767D01*
X79442Y255736D01*
X79436Y255730D01*
X79430Y255718D01*
X79417Y255693D01*
X79399Y255656D01*
X79380Y255612D01*
X79368Y255557D01*
X79361Y255482D01*
X79355Y255402D01*
Y254938D01*
X79999D01*
Y255396D01*
Y255408D01*
Y255433D01*
X79993Y255476D01*
X79987Y255532D01*
X79962Y255643D01*
X79943Y255693D01*
X79918Y255736D01*
X79912Y255742D01*
X79900Y255755D01*
X79881Y255767D01*
X79857Y255786D01*
X79819Y255804D01*
X79776Y255823D01*
X79727Y255829D01*
X79671Y255835D01*
D02*
G37*
G36*
X80977Y255965D02*
X80952D01*
X80927Y255959D01*
X80890Y255953D01*
X80853Y255941D01*
X80810Y255916D01*
X80773Y255891D01*
X80736Y255854D01*
X80729Y255848D01*
X80723Y255835D01*
X80705Y255804D01*
X80686Y255761D01*
X80674Y255711D01*
X80655Y255643D01*
X80649Y255563D01*
X80643Y255464D01*
Y254938D01*
X81330D01*
Y255470D01*
Y255476D01*
Y255482D01*
Y255513D01*
X81324Y255563D01*
X81317Y255619D01*
X81305Y255687D01*
X81293Y255749D01*
X81268Y255804D01*
X81237Y255854D01*
X81231Y255860D01*
X81218Y255872D01*
X81200Y255891D01*
X81169Y255909D01*
X81132Y255928D01*
X81082Y255947D01*
X81033Y255959D01*
X80977Y255965D01*
D02*
G37*
G36*
X-75344Y280902D02*
X-75802D01*
Y280215D01*
X-75326D01*
X-75301Y280222D01*
X-75264Y280228D01*
X-75214Y280234D01*
X-75152Y280246D01*
X-75084Y280259D01*
X-75078D01*
X-75065Y280265D01*
X-75047Y280271D01*
X-75022Y280277D01*
X-74967Y280308D01*
X-74936Y280333D01*
X-74911Y280364D01*
X-74905Y280370D01*
X-74898Y280382D01*
X-74886Y280395D01*
X-74874Y280419D01*
X-74855Y280481D01*
X-74843Y280519D01*
Y280562D01*
Y280568D01*
Y280587D01*
X-74849Y280618D01*
X-74855Y280655D01*
X-74867Y280692D01*
X-74886Y280735D01*
X-74911Y280772D01*
X-74948Y280809D01*
X-74954Y280816D01*
X-74967Y280822D01*
X-74997Y280840D01*
X-75035Y280859D01*
X-75090Y280871D01*
X-75158Y280890D01*
X-75245Y280896D01*
X-75344Y280902D01*
D02*
G37*
G36*
X2721Y185862D02*
X2653D01*
X2622Y185856D01*
X2585Y185850D01*
X2548Y185837D01*
X2505Y185819D01*
X2468Y185794D01*
X2430Y185757D01*
X2424Y185751D01*
X2418Y185738D01*
X2399Y185707D01*
X2381Y185670D01*
X2368Y185615D01*
X2350Y185547D01*
X2344Y185460D01*
X2338Y185361D01*
Y184903D01*
X3025D01*
Y185342D01*
Y185348D01*
Y185355D01*
Y185379D01*
X3018Y185404D01*
X3012Y185441D01*
X3006Y185491D01*
X2994Y185553D01*
X2981Y185621D01*
Y185627D01*
X2975Y185639D01*
X2969Y185658D01*
X2963Y185683D01*
X2932Y185738D01*
X2907Y185769D01*
X2876Y185794D01*
X2870Y185800D01*
X2857Y185807D01*
X2845Y185819D01*
X2820Y185831D01*
X2758Y185850D01*
X2721Y185862D01*
D02*
G37*
%LPD*%
D24*
X71463Y209350D02*
G03*
X71463Y209350I-793J0D01*
G01*
X-112992Y156988D02*
X-109252D01*
X-112992Y153445D02*
Y156988D01*
X-118898Y153445D02*
X-112992D01*
X-111221Y141831D02*
X-77165D01*
X-79134Y156988D02*
X-75394D01*
Y153445D02*
X-69488D01*
X-75394D02*
Y156988D01*
X62303Y145374D02*
X66043D01*
X62303Y141831D02*
Y145374D01*
X56398Y141831D02*
X62303D01*
X64075Y130217D02*
X98130D01*
X96161Y145374D02*
X99902D01*
Y141831D02*
X105807D01*
X99902D02*
Y145374D01*
X-6988Y129331D02*
X-5217D01*
X-6988D02*
Y131102D01*
X4823Y129331D02*
X6594D01*
Y131102D01*
Y141142D02*
Y142913D01*
X4823D02*
X6594D01*
X-6988D02*
X-5217D01*
X-6988Y141142D02*
Y142913D01*
X11811Y204724D02*
Y228346D01*
X-11811Y204724D02*
X11811D01*
X-11811D02*
Y228346D01*
X11811D01*
X67618Y221260D02*
Y247441D01*
X53642Y221260D02*
Y247441D01*
Y221260D02*
X67618D01*
X53642Y247441D02*
X67618D01*
X-34252Y102362D02*
Y116929D01*
X-50394Y117815D02*
X-43602D01*
X-50394Y101476D02*
Y117815D01*
Y101476D02*
X-43602D01*
X-25394D02*
X-18110D01*
Y117815D01*
X-25394D02*
X-18110D01*
X35728Y130217D02*
X50295D01*
X51181Y139567D02*
Y146358D01*
X34843D02*
X51181D01*
X34843Y139567D02*
Y146358D01*
Y114075D02*
Y121358D01*
Y114075D02*
X51181D01*
Y121358D01*
X62795Y271850D02*
Y274606D01*
X66732Y270276D02*
X69685D01*
Y276181D01*
X66732D02*
X69685D01*
X55905Y270276D02*
X58858D01*
X55905D02*
Y276181D01*
X58858D01*
X-57776Y278445D02*
Y281201D01*
X-64665Y282776D02*
X-61713D01*
X-64665Y276870D02*
Y282776D01*
Y276870D02*
X-61713D01*
X-53839Y282776D02*
X-50886D01*
Y276870D02*
Y282776D01*
X-53839Y276870D02*
X-50886D01*
X-41634Y175492D02*
X-38878D01*
X-43209Y168602D02*
Y171555D01*
Y168602D02*
X-37303D01*
Y171555D01*
X-43209Y179429D02*
Y182382D01*
X-37303D01*
Y179429D02*
Y182382D01*
X-34547Y175492D02*
X-31791D01*
X-36122Y168602D02*
Y171555D01*
Y168602D02*
X-30217D01*
Y171555D01*
X-36122Y179429D02*
Y182382D01*
X-30217D01*
Y179429D02*
Y182382D01*
X-27657Y175492D02*
X-24902D01*
X-29232Y168602D02*
Y171555D01*
Y168602D02*
X-23327D01*
Y171555D01*
X-29232Y179429D02*
Y182382D01*
X-23327D01*
Y179429D02*
Y182382D01*
X-20768Y175492D02*
X-18012D01*
X-22343Y168602D02*
Y171555D01*
Y168602D02*
X-16437D01*
Y171555D01*
X-22343Y179429D02*
Y182382D01*
X-16437D01*
Y179429D02*
Y182382D01*
X-4823Y175591D02*
X-2067D01*
X-6398Y168701D02*
Y171653D01*
Y168701D02*
X-492D01*
Y171653D01*
X-6398Y179528D02*
Y182480D01*
X-492D01*
Y179528D02*
Y182480D01*
X2165Y175591D02*
X4921D01*
X591Y168701D02*
Y171653D01*
Y168701D02*
X6496D01*
Y171653D01*
X591Y179528D02*
Y182480D01*
X6496D01*
Y179528D02*
Y182480D01*
X-5315Y265256D02*
X-2559D01*
X-984Y269193D02*
Y272146D01*
X-6890D02*
X-984D01*
X-6890Y269193D02*
Y272146D01*
X-984Y258366D02*
Y261319D01*
X-6890Y258366D02*
X-984D01*
X-6890D02*
Y261319D01*
X-86319Y178839D02*
X-83563D01*
X-87894Y171949D02*
Y174902D01*
Y171949D02*
X-81988D01*
Y174902D01*
X-87894Y182776D02*
Y185728D01*
X-81988D01*
Y182776D02*
Y185728D01*
X80315Y163091D02*
X83071D01*
X84646Y167028D02*
Y169980D01*
X78740D02*
X84646D01*
X78740Y167028D02*
Y169980D01*
X84646Y156201D02*
Y159153D01*
X78740Y156201D02*
X84646D01*
X78740D02*
Y159153D01*
X-76575Y178445D02*
X-73819D01*
X-78150Y171555D02*
Y174508D01*
Y171555D02*
X-72244D01*
Y174508D01*
X-78150Y182382D02*
Y185335D01*
X-72244D01*
Y182382D02*
Y185335D01*
X94095Y165059D02*
X96850D01*
X98425Y168996D02*
Y171949D01*
X92520D02*
X98425D01*
X92520Y168996D02*
Y171949D01*
X98425Y158169D02*
Y161122D01*
X92520Y158169D02*
X98425D01*
X92520D02*
Y161122D01*
X4232Y161024D02*
Y163779D01*
X-2657Y165354D02*
X295D01*
X-2657Y159449D02*
Y165354D01*
Y159449D02*
X295D01*
X8169Y165354D02*
X11122D01*
Y159449D02*
Y165354D01*
X8169Y159449D02*
X11122D01*
X-64665Y128150D02*
Y130905D01*
X-60728Y126575D02*
X-57776D01*
Y132480D01*
X-60728D02*
X-57776D01*
X-71555Y126575D02*
X-68602D01*
X-71555D02*
Y132480D01*
X-68602D01*
X15748Y149409D02*
X18504D01*
X14173Y142520D02*
Y145472D01*
Y142520D02*
X20079D01*
Y145472D01*
X14173Y153347D02*
Y156299D01*
X20079D01*
Y153347D02*
Y156299D01*
X17224Y133858D02*
X19980D01*
X21555Y137795D02*
Y140748D01*
X15650D02*
X21555D01*
X15650Y137795D02*
Y140748D01*
X21555Y126969D02*
Y129921D01*
X15650Y126969D02*
X21555D01*
X15650D02*
Y129921D01*
X27264Y133268D02*
X30020D01*
X31594Y137205D02*
Y140157D01*
X25689D02*
X31594D01*
X25689Y137205D02*
Y140157D01*
X31594Y126378D02*
Y129331D01*
X25689Y126378D02*
X31594D01*
X25689D02*
Y129331D01*
X1673Y265256D02*
X4429D01*
X98Y258366D02*
Y261319D01*
Y258366D02*
X6004D01*
Y261319D01*
X98Y269193D02*
Y272146D01*
X6004D01*
Y269193D02*
Y272146D01*
X6496Y283366D02*
X9252D01*
X4921Y276476D02*
Y279429D01*
Y276476D02*
X10827D01*
Y279429D01*
X4921Y287303D02*
Y290256D01*
X10827D01*
Y287303D02*
Y290256D01*
X25689Y197539D02*
Y200492D01*
Y197539D02*
X31594D01*
Y200492D01*
X25689Y208366D02*
Y211319D01*
X31594D01*
Y208366D02*
Y211319D01*
X27264Y204429D02*
X30020D01*
X45079Y188484D02*
X48031D01*
Y194390D01*
X45079D02*
X48031D01*
X34252Y188484D02*
X37205D01*
X34252D02*
Y194390D01*
X37205D01*
X41142Y190059D02*
Y192815D01*
X-44390Y254528D02*
X-41437D01*
Y260433D01*
X-44390D02*
X-41437D01*
X-55216Y254528D02*
X-52264D01*
X-55216D02*
Y260433D01*
X-52264D01*
X-48327Y256102D02*
Y258858D01*
X-31496Y210630D02*
X-28543D01*
Y216535D01*
X-31496D02*
X-28543D01*
X-42323Y210630D02*
X-39370D01*
X-42323D02*
Y216535D01*
X-39370D01*
X-35433Y212205D02*
Y214961D01*
X-31398Y224409D02*
X-28445D01*
Y230315D01*
X-31398D02*
X-28445D01*
X-42224Y224409D02*
X-39272D01*
X-42224D02*
Y230315D01*
X-39272D01*
X-35335Y225984D02*
Y228740D01*
X25886Y230315D02*
X28839D01*
X25886Y224409D02*
Y230315D01*
Y224409D02*
X28839D01*
X36713Y230315D02*
X39665D01*
Y224409D02*
Y230315D01*
X36713Y224409D02*
X39665D01*
X32776Y225984D02*
Y228740D01*
X87697Y230217D02*
Y233169D01*
Y230217D02*
X93602D01*
Y233169D01*
X87697Y241043D02*
Y243996D01*
X93602D01*
Y241043D02*
Y243996D01*
X89272Y237106D02*
X92028D01*
X-91732Y183366D02*
Y186319D01*
X-97638D02*
X-91732D01*
X-97638Y183366D02*
Y186319D01*
X-91732Y172539D02*
Y175492D01*
X-97638Y172539D02*
X-91732D01*
X-97638D02*
Y175492D01*
X-96063Y179429D02*
X-93307D01*
X76476Y168209D02*
Y171161D01*
X70571D02*
X76476D01*
X70571Y168209D02*
Y171161D01*
X76476Y157382D02*
Y160335D01*
X70571Y157382D02*
X76476D01*
X70571D02*
Y160335D01*
X72146Y164272D02*
X74902D01*
X4528Y112992D02*
X7480D01*
Y118898D01*
X4528D02*
X7480D01*
X-6299Y112992D02*
X-3347D01*
X-6299D02*
Y118898D01*
X-3347D01*
X591Y114567D02*
Y117323D01*
X15354Y179035D02*
Y181988D01*
X9449D02*
X15354D01*
X9449Y179035D02*
Y181988D01*
X15354Y168209D02*
Y171161D01*
X9449Y168209D02*
X15354D01*
X9449D02*
Y171161D01*
X11024Y175098D02*
X13780D01*
X43701Y171850D02*
X46654D01*
Y177756D01*
X43701D02*
X46654D01*
X32874Y171850D02*
X35827D01*
X32874D02*
Y177756D01*
X35827D01*
X39764Y173425D02*
Y176181D01*
X93799Y206398D02*
Y209350D01*
X87894D02*
X93799D01*
X87894Y206398D02*
Y209350D01*
X93799Y195571D02*
Y198524D01*
X87894Y195571D02*
X93799D01*
X87894D02*
Y198524D01*
X89468Y202461D02*
X92224D01*
X67323Y206102D02*
Y209055D01*
X61417D02*
X67323D01*
X61417Y206102D02*
Y209055D01*
X67323Y195276D02*
Y198228D01*
X61417Y195276D02*
X67323D01*
X61417D02*
Y198228D01*
X62992Y202165D02*
X65748D01*
X36614Y299902D02*
X39567D01*
X36614Y293996D02*
Y299902D01*
Y293996D02*
X39567D01*
X47441Y299902D02*
X50394D01*
Y293996D02*
Y299902D01*
X47441Y293996D02*
X50394D01*
X43504Y295571D02*
Y298327D01*
X-123228Y231201D02*
Y234154D01*
X-129134D02*
X-123228D01*
X-129134Y231201D02*
Y234154D01*
X-123228Y220374D02*
Y223327D01*
X-129134Y220374D02*
X-123228D01*
X-129134D02*
Y223327D01*
X-127559Y227264D02*
X-124803D01*
X-120669Y219685D02*
Y222638D01*
Y219685D02*
X-114764D01*
Y222638D01*
X-120669Y230512D02*
Y233465D01*
X-114764D01*
Y230512D02*
Y233465D01*
X-119095Y226575D02*
X-116339D01*
X-125984Y47244D02*
X-3937D01*
Y94488D01*
X-125984D02*
X-3937D01*
X3937D02*
X125984D01*
X3937Y47244D02*
Y94488D01*
Y47244D02*
X125984D01*
X84449Y323130D02*
Y375886D01*
X29331Y323130D02*
Y375886D01*
X-84842Y323130D02*
Y375886D01*
X-29724Y323130D02*
Y375886D01*
X29331D02*
X84449D01*
X-84842D02*
X-29724D01*
X88386Y316831D02*
Y323130D01*
X-88779Y316831D02*
Y323130D01*
X88386D01*
X-88779Y316831D02*
X88386D01*
X75591Y196457D02*
Y197047D01*
Y207874D02*
Y208465D01*
X82480Y196457D02*
Y197047D01*
Y207874D02*
Y208465D01*
X81004D02*
X82480D01*
X75591D02*
X77067D01*
X75591Y196457D02*
X77067D01*
X81004D02*
X82480D01*
D25*
X124016Y157480D02*
X177165Y157480D01*
X124016Y0D02*
Y157480D01*
X-124016Y-0D02*
X124016Y0D01*
X-124016Y-0D02*
Y157480D01*
X-177165Y157480D02*
X-124016Y157480D01*
X-177165Y157480D02*
X-176965Y165910D01*
X-176363Y174321D01*
X-175362Y182694D01*
X-173964Y191009D01*
X-172171Y199249D01*
X-169989Y207394D01*
X-167421Y215425D01*
X-164475Y223326D01*
X-161155Y231077D01*
X-157471Y238662D01*
X-153430Y246063D01*
X-149041Y253263D01*
X-144315Y260246D01*
X-139261Y266997D01*
X-133893Y273499D01*
X-128221Y279738D01*
X-122258Y285701D01*
X-116019Y291373D01*
X-109517Y296742D01*
X-102766Y301795D01*
X-95783Y306521D01*
X-88583Y310910D01*
X-81182Y314951D01*
X-73597Y318636D01*
X-65846Y321955D01*
X-57945Y324902D01*
X-49913Y327469D01*
X-41768Y329652D01*
X-33529Y331444D01*
X-25213Y332842D01*
X-16841Y333843D01*
X-8430Y334445D01*
X-0Y334646D01*
X8430Y334445D01*
X16841Y333843D01*
X25213Y332842D01*
X33529Y331444D01*
X41768Y329652D01*
X49913Y327469D01*
X57945Y324902D01*
X65846Y321955D01*
X73597Y318636D01*
X81182Y314951D01*
X88583Y310910D01*
X95783Y306521D01*
X102766Y301795D01*
X109516Y296742D01*
X116019Y291373D01*
X122258Y285701D01*
X128220Y279738D01*
X133893Y273499D01*
X139261Y266997D01*
X144315Y260246D01*
X149041Y253263D01*
X153430Y246063D01*
X157471Y238662D01*
X161155Y231078D01*
X164474Y223326D01*
X167421Y215425D01*
X169989Y207394D01*
X172171Y199249D01*
X173964Y191009D01*
X175362Y182694D01*
X176363Y174321D01*
X176965Y165910D01*
X177165Y157480D01*
D31*
X-109843Y159252D02*
G03*
X-109843Y159252I-492J0D01*
G01*
X65453Y147638D02*
G03*
X65453Y147638I-492J0D01*
G01*
X-9055Y142323D02*
G03*
X-9055Y142323I-492J0D01*
G01*
D32*
X-99574Y257315D02*
G03*
X-99574Y257315I-623J0D01*
G01*
X-19708Y236614D02*
G03*
X-19708Y236614I-1060J0D01*
G01*
X-56004Y104528D02*
X-62002D01*
Y107527D01*
X-61002Y108526D01*
X-59003D01*
X-58003Y107527D01*
Y104528D01*
Y106527D02*
X-56004Y108526D01*
Y113525D02*
X-62002D01*
X-59003Y110526D01*
Y114524D01*
X11909Y119193D02*
Y125191D01*
X14909D01*
X15908Y124191D01*
Y122192D01*
X14909Y121192D01*
X11909D01*
X13909D02*
X15908Y119193D01*
X17908Y124191D02*
X18907Y125191D01*
X20907D01*
X21906Y124191D01*
Y123192D01*
X20907Y122192D01*
X21906Y121192D01*
Y120193D01*
X20907Y119193D01*
X18907D01*
X17908Y120193D01*
Y121192D01*
X18907Y122192D01*
X17908Y123192D01*
Y124191D01*
X18907Y122192D02*
X20907D01*
X24016Y118602D02*
Y124600D01*
X27015D01*
X28014Y123601D01*
Y121601D01*
X27015Y120602D01*
X24016D01*
X26015D02*
X28014Y118602D01*
X30014Y119602D02*
X31014Y118602D01*
X33013D01*
X34012Y119602D01*
Y123601D01*
X33013Y124600D01*
X31014D01*
X30014Y123601D01*
Y122601D01*
X31014Y121601D01*
X34012D01*
X-136199Y223684D02*
X-137199Y222684D01*
Y220685D01*
X-136199Y219685D01*
X-132201D01*
X-131201Y220685D01*
Y222684D01*
X-132201Y223684D01*
X-131201Y225683D02*
Y227682D01*
Y226683D01*
X-137199D01*
X-136199Y225683D01*
X-137199Y234680D02*
Y230681D01*
X-134200D01*
X-135199Y232681D01*
Y233681D01*
X-134200Y234680D01*
X-132201D01*
X-131201Y233681D01*
Y231681D01*
X-132201Y230681D01*
X75295Y218301D02*
Y213303D01*
X76295Y212303D01*
X78294D01*
X79294Y213303D01*
Y218301D01*
X85292Y212303D02*
X81293D01*
X85292Y216302D01*
Y217302D01*
X84292Y218301D01*
X82293D01*
X81293Y217302D01*
X-430Y109624D02*
X-1430Y110624D01*
X-3429D01*
X-4429Y109624D01*
Y105626D01*
X-3429Y104626D01*
X-1430D01*
X-430Y105626D01*
X5568Y104626D02*
X1569D01*
X5568Y108625D01*
Y109624D01*
X4568Y110624D01*
X2569D01*
X1569Y109624D01*
X-787Y151870D02*
Y157868D01*
X2212D01*
X3211Y156869D01*
Y154869D01*
X2212Y153869D01*
X-787D01*
X1212D02*
X3211Y151870D01*
X5211Y156869D02*
X6210Y157868D01*
X8210D01*
X9209Y156869D01*
Y155869D01*
X8210Y154869D01*
X7210D01*
X8210D01*
X9209Y153869D01*
Y152870D01*
X8210Y151870D01*
X6210D01*
X5211Y152870D01*
X19193Y272933D02*
X13195D01*
Y275932D01*
X14195Y276932D01*
X16194D01*
X17194Y275932D01*
Y272933D01*
Y274932D02*
X19193Y276932D01*
Y282930D02*
Y278931D01*
X15194Y282930D01*
X14195D01*
X13195Y281930D01*
Y279931D01*
X14195Y278931D01*
Y284929D02*
X13195Y285929D01*
Y287928D01*
X14195Y288928D01*
X18193D01*
X19193Y287928D01*
Y285929D01*
X18193Y284929D01*
X14195D01*
X97069Y201144D02*
X96069Y200145D01*
Y198145D01*
X97069Y197146D01*
X101067D01*
X102067Y198145D01*
Y200145D01*
X101067Y201144D01*
X96069Y207142D02*
Y203144D01*
X99068D01*
X98068Y205143D01*
Y206143D01*
X99068Y207142D01*
X101067D01*
X102067Y206143D01*
Y204143D01*
X101067Y203144D01*
X83563Y171161D02*
X77565D01*
Y174160D01*
X78565Y175160D01*
X80564D01*
X81564Y174160D01*
Y171161D01*
Y173161D02*
X83563Y175160D01*
Y177160D02*
Y179159D01*
Y178159D01*
X77565D01*
X78565Y177160D01*
X84563Y182158D02*
Y186157D01*
X83563Y192155D02*
Y188156D01*
X79564Y192155D01*
X78565D01*
X77565Y191155D01*
Y189156D01*
X78565Y188156D01*
X98032Y175591D02*
X92033D01*
Y178590D01*
X93033Y179589D01*
X95033D01*
X96032Y178590D01*
Y175591D01*
Y177590D02*
X98032Y179589D01*
Y185587D02*
Y181589D01*
X94033Y185587D01*
X93033D01*
X92033Y184588D01*
Y182588D01*
X93033Y181589D01*
X99031Y187587D02*
Y191585D01*
X98032Y197583D02*
Y193585D01*
X94033Y197583D01*
X93033D01*
X92033Y196584D01*
Y194584D01*
X93033Y193585D01*
X71380Y177227D02*
X70380Y176227D01*
Y174228D01*
X71380Y173228D01*
X75378D01*
X76378Y174228D01*
Y176227D01*
X75378Y177227D01*
X76378Y179226D02*
Y181226D01*
Y180226D01*
X70380D01*
X71380Y179226D01*
X77378Y184225D02*
Y188224D01*
X76378Y194222D02*
Y190223D01*
X72379Y194222D01*
X71380D01*
X70380Y193222D01*
Y191223D01*
X71380Y190223D01*
X-96140Y195829D02*
X-97140Y194830D01*
Y192830D01*
X-96140Y191831D01*
X-92141D01*
X-91142Y192830D01*
Y194830D01*
X-92141Y195829D01*
X-91142Y197829D02*
Y199828D01*
Y198828D01*
X-97140D01*
X-96140Y197829D01*
X-90142Y202827D02*
Y206826D01*
X-91142Y208825D02*
Y210825D01*
Y209825D01*
X-97140D01*
X-96140Y208825D01*
X-81595Y191043D02*
X-87593D01*
Y194042D01*
X-86593Y195042D01*
X-84593D01*
X-83594Y194042D01*
Y191043D01*
Y193043D02*
X-81595Y195042D01*
Y201040D02*
Y197041D01*
X-85593Y201040D01*
X-86593D01*
X-87593Y200040D01*
Y198041D01*
X-86593Y197041D01*
X-80595Y203039D02*
Y207038D01*
X-81595Y209037D02*
Y211037D01*
Y210037D01*
X-87593D01*
X-86593Y209037D01*
X-71949Y191043D02*
X-77947D01*
Y194042D01*
X-76947Y195042D01*
X-74948D01*
X-73948Y194042D01*
Y191043D01*
Y193043D02*
X-71949Y195042D01*
Y197041D02*
Y199041D01*
Y198041D01*
X-77947D01*
X-76947Y197041D01*
X-70949Y202040D02*
Y206038D01*
X-71949Y208038D02*
Y210037D01*
Y209037D01*
X-77947D01*
X-76947Y208038D01*
X118990Y149803D02*
X112992D01*
X115991D01*
Y145804D01*
X118990D01*
X112992D01*
Y143805D02*
Y141806D01*
Y142805D01*
X118990D01*
X117991Y143805D01*
X111992Y138807D02*
Y134808D01*
X112992Y128810D02*
Y132809D01*
X116991Y128810D01*
X117991D01*
X118990Y129810D01*
Y131809D01*
X117991Y132809D01*
X-120524Y171626D02*
Y165628D01*
Y168627D01*
X-116526D01*
Y171626D01*
Y165628D01*
X-114526D02*
X-112527D01*
X-113527D01*
Y171626D01*
X-114526Y170627D01*
X-109528Y164629D02*
X-105529D01*
X-103530Y165628D02*
X-101531D01*
X-102530D01*
Y171626D01*
X-103530Y170627D01*
X-116054Y241884D02*
X-117054Y242884D01*
X-119053D01*
X-120053Y241884D01*
Y237885D01*
X-119053Y236886D01*
X-117054D01*
X-116054Y237885D01*
X-114055Y236886D02*
X-112055D01*
X-113055D01*
Y242884D01*
X-114055Y241884D01*
X-105058Y242884D02*
X-107057Y241884D01*
X-109056Y239885D01*
Y237885D01*
X-108057Y236886D01*
X-106057D01*
X-105058Y237885D01*
Y238885D01*
X-106057Y239885D01*
X-109056D01*
X-110560Y268208D02*
Y262210D01*
Y265209D01*
X-106561D01*
Y268208D01*
Y262210D01*
X-100563D02*
X-104562D01*
X-100563Y266208D01*
Y267208D01*
X-101563Y268208D01*
X-103562D01*
X-104562Y267208D01*
X-88710Y379324D02*
Y385322D01*
X-86711Y383322D01*
X-84711Y385322D01*
Y379324D01*
X-78713D02*
X-82712D01*
X-78713Y383322D01*
Y384322D01*
X-79713Y385322D01*
X-81712D01*
X-82712Y384322D01*
X687Y275567D02*
Y281565D01*
X3686D01*
X4685Y280565D01*
Y278566D01*
X3686Y277566D01*
X687D01*
X2686D02*
X4685Y275567D01*
X6685D02*
X8684D01*
X7684D01*
Y281565D01*
X6685Y280565D01*
X15682Y275567D02*
X11683D01*
X15682Y279566D01*
Y280565D01*
X14682Y281565D01*
X12683D01*
X11683Y280565D01*
X66044Y217472D02*
X65045Y218472D01*
X63045D01*
X62046Y217472D01*
Y213474D01*
X63045Y212474D01*
X65045D01*
X66044Y213474D01*
X72042Y218472D02*
X70043Y217472D01*
X68044Y215473D01*
Y213474D01*
X69043Y212474D01*
X71043D01*
X72042Y213474D01*
Y214473D01*
X71043Y215473D01*
X68044D01*
X41209Y308335D02*
X40209Y309335D01*
X38210D01*
X37210Y308335D01*
Y304337D01*
X38210Y303337D01*
X40209D01*
X41209Y304337D01*
X43208Y303337D02*
X45208D01*
X44208D01*
Y309335D01*
X43208Y308335D01*
X51206Y303337D02*
Y309335D01*
X48207Y306336D01*
X52205D01*
X14076Y190354D02*
X13076Y191353D01*
X11077D01*
X10077Y190354D01*
Y186355D01*
X11077Y185355D01*
X13076D01*
X14076Y186355D01*
X16075Y190354D02*
X17075Y191353D01*
X19074D01*
X20074Y190354D01*
Y189354D01*
X19074Y188354D01*
X18075D01*
X19074D01*
X20074Y187355D01*
Y186355D01*
X19074Y185355D01*
X17075D01*
X16075Y186355D01*
X-9547Y154970D02*
Y149972D01*
X-8547Y148972D01*
X-6548D01*
X-5548Y149972D01*
Y154970D01*
X-3549Y148972D02*
X-1549D01*
X-2549D01*
Y154970D01*
X-3549Y153970D01*
X37512Y186152D02*
X36513Y187151D01*
X34514D01*
X33514Y186152D01*
Y182153D01*
X34514Y181153D01*
X36513D01*
X37512Y182153D01*
X42511Y181153D02*
Y187151D01*
X39512Y184152D01*
X43511D01*
X-70967Y135850D02*
Y141848D01*
X-67968D01*
X-66968Y140848D01*
Y138849D01*
X-67968Y137849D01*
X-70967D01*
X-68968D02*
X-66968Y135850D01*
X-60970Y141848D02*
X-64969D01*
Y138849D01*
X-62969Y139848D01*
X-61970D01*
X-60970Y138849D01*
Y136849D01*
X-61970Y135850D01*
X-63969D01*
X-64969Y136849D01*
X35414Y149743D02*
Y155741D01*
X38413D01*
X39413Y154742D01*
Y152742D01*
X38413Y151743D01*
X35414D01*
X37413D02*
X39413Y149743D01*
X45411Y155741D02*
X43412Y154742D01*
X41412Y152742D01*
Y150743D01*
X42412Y149743D01*
X44411D01*
X45411Y150743D01*
Y151743D01*
X44411Y152742D01*
X41412D01*
X14779Y159685D02*
Y165683D01*
X17778D01*
X18777Y164683D01*
Y162684D01*
X17778Y161684D01*
X14779D01*
X16778D02*
X18777Y159685D01*
X20777Y165683D02*
X24776D01*
Y164683D01*
X20777Y160685D01*
Y159685D01*
M02*
