M48
;Layer_Color=9474304
;FILE_FORMAT=2:5
INCH,LZ
;TYPE=PLATED
T1F00S00C0.00787
T2F00S00C0.01968
T3F00S00C0.02756
T4F00S00C0.03937
%
T01
X-0002362Y0133957
X0001969
Y0138287
X-0002362
T02
X-0037697Y0278937
X0003051Y0282087
T03
X005813Y022435
X006313
Y022935
Y023435
X005813
Y022935
Y023935
X006313
Y024435
X005813
T04
X-0106595Y0224173
Y0234173
Y0244173
Y0254173
M30
