%FSLAX25Y25*%
%MOIN*%
G70*
G01*
G75*
G04 Layer_Physical_Order=1*
G04 Layer_Color=255*
%ADD10R,0.03189X0.06299*%
%ADD11R,0.08268X0.11811*%
G04:AMPARAMS|DCode=12|XSize=98.43mil|YSize=196.85mil|CornerRadius=24.61mil|HoleSize=0mil|Usage=FLASHONLY|Rotation=180.000|XOffset=0mil|YOffset=0mil|HoleType=Round|Shape=RoundedRectangle|*
%AMROUNDEDRECTD12*
21,1,0.09843,0.14764,0,0,180.0*
21,1,0.04921,0.19685,0,0,180.0*
1,1,0.04921,-0.02461,0.07382*
1,1,0.04921,0.02461,0.07382*
1,1,0.04921,0.02461,-0.07382*
1,1,0.04921,-0.02461,-0.07382*
%
%ADD12ROUNDEDRECTD12*%
%ADD13C,0.05906*%
%ADD14R,0.07087X0.07087*%
%ADD15O,0.00984X0.03543*%
%ADD16O,0.03543X0.00984*%
G04:AMPARAMS|DCode=17|XSize=11.81mil|YSize=47.24mil|CornerRadius=2.95mil|HoleSize=0mil|Usage=FLASHONLY|Rotation=180.000|XOffset=0mil|YOffset=0mil|HoleType=Round|Shape=RoundedRectangle|*
%AMROUNDEDRECTD17*
21,1,0.01181,0.04134,0,0,180.0*
21,1,0.00591,0.04724,0,0,180.0*
1,1,0.00591,-0.00295,0.02067*
1,1,0.00591,0.00295,0.02067*
1,1,0.00591,0.00295,-0.02067*
1,1,0.00591,-0.00295,-0.02067*
%
%ADD17ROUNDEDRECTD17*%
G04:AMPARAMS|DCode=18|XSize=11.81mil|YSize=47.24mil|CornerRadius=2.95mil|HoleSize=0mil|Usage=FLASHONLY|Rotation=90.000|XOffset=0mil|YOffset=0mil|HoleType=Round|Shape=RoundedRectangle|*
%AMROUNDEDRECTD18*
21,1,0.01181,0.04134,0,0,90.0*
21,1,0.00591,0.04724,0,0,90.0*
1,1,0.00591,0.02067,0.00295*
1,1,0.00591,0.02067,-0.00295*
1,1,0.00591,-0.02067,-0.00295*
1,1,0.00591,-0.02067,0.00295*
%
%ADD18ROUNDEDRECTD18*%
G04:AMPARAMS|DCode=19|XSize=145.67mil|YSize=59.06mil|CornerRadius=14.76mil|HoleSize=0mil|Usage=FLASHONLY|Rotation=270.000|XOffset=0mil|YOffset=0mil|HoleType=Round|Shape=RoundedRectangle|*
%AMROUNDEDRECTD19*
21,1,0.14567,0.02953,0,0,270.0*
21,1,0.11614,0.05906,0,0,270.0*
1,1,0.02953,-0.01476,-0.05807*
1,1,0.02953,-0.01476,0.05807*
1,1,0.02953,0.01476,0.05807*
1,1,0.02953,0.01476,-0.05807*
%
%ADD19ROUNDEDRECTD19*%
G04:AMPARAMS|DCode=20|XSize=145.67mil|YSize=59.06mil|CornerRadius=14.76mil|HoleSize=0mil|Usage=FLASHONLY|Rotation=180.000|XOffset=0mil|YOffset=0mil|HoleType=Round|Shape=RoundedRectangle|*
%AMROUNDEDRECTD20*
21,1,0.14567,0.02953,0,0,180.0*
21,1,0.11614,0.05906,0,0,180.0*
1,1,0.02953,-0.05807,0.01476*
1,1,0.02953,0.05807,0.01476*
1,1,0.02953,0.05807,-0.01476*
1,1,0.02953,-0.05807,-0.01476*
%
%ADD20ROUNDEDRECTD20*%
G04:AMPARAMS|DCode=21|XSize=41.34mil|YSize=47.24mil|CornerRadius=10.34mil|HoleSize=0mil|Usage=FLASHONLY|Rotation=270.000|XOffset=0mil|YOffset=0mil|HoleType=Round|Shape=RoundedRectangle|*
%AMROUNDEDRECTD21*
21,1,0.04134,0.02658,0,0,270.0*
21,1,0.02067,0.04724,0,0,270.0*
1,1,0.02067,-0.01329,-0.01034*
1,1,0.02067,-0.01329,0.01034*
1,1,0.02067,0.01329,0.01034*
1,1,0.02067,0.01329,-0.01034*
%
%ADD21ROUNDEDRECTD21*%
G04:AMPARAMS|DCode=22|XSize=41.34mil|YSize=47.24mil|CornerRadius=10.34mil|HoleSize=0mil|Usage=FLASHONLY|Rotation=180.000|XOffset=0mil|YOffset=0mil|HoleType=Round|Shape=RoundedRectangle|*
%AMROUNDEDRECTD22*
21,1,0.04134,0.02658,0,0,180.0*
21,1,0.02067,0.04724,0,0,180.0*
1,1,0.02067,-0.01034,0.01329*
1,1,0.02067,0.01034,0.01329*
1,1,0.02067,0.01034,-0.01329*
1,1,0.02067,-0.01034,-0.01329*
%
%ADD22ROUNDEDRECTD22*%
G04:AMPARAMS|DCode=23|XSize=21.65mil|YSize=39.37mil|CornerRadius=5.41mil|HoleSize=0mil|Usage=FLASHONLY|Rotation=270.000|XOffset=0mil|YOffset=0mil|HoleType=Round|Shape=RoundedRectangle|*
%AMROUNDEDRECTD23*
21,1,0.02165,0.02854,0,0,270.0*
21,1,0.01083,0.03937,0,0,270.0*
1,1,0.01083,-0.01427,-0.00541*
1,1,0.01083,-0.01427,0.00541*
1,1,0.01083,0.01427,0.00541*
1,1,0.01083,0.01427,-0.00541*
%
%ADD23ROUNDEDRECTD23*%
%ADD24C,0.00787*%
%ADD25C,0.00394*%
%ADD26O,0.07087X0.06299*%
G04:AMPARAMS|DCode=27|XSize=37.4mil|YSize=37.4mil|CornerRadius=9.35mil|HoleSize=0mil|Usage=FLASHONLY|Rotation=90.000|XOffset=0mil|YOffset=0mil|HoleType=Round|Shape=RoundedRectangle|*
%AMROUNDEDRECTD27*
21,1,0.03740,0.01870,0,0,90.0*
21,1,0.01870,0.03740,0,0,90.0*
1,1,0.01870,0.00935,0.00935*
1,1,0.01870,0.00935,-0.00935*
1,1,0.01870,-0.00935,-0.00935*
1,1,0.01870,-0.00935,0.00935*
%
%ADD27ROUNDEDRECTD27*%
%ADD28C,0.03740*%
%ADD29C,0.01969*%
%ADD30C,0.03937*%
D10*
X-81890Y157559D02*
D03*
X-86811D02*
D03*
X-96653D02*
D03*
X-106496D02*
D03*
X-101575D02*
D03*
X-91732D02*
D03*
X93405Y145945D02*
D03*
X88484D02*
D03*
X78642D02*
D03*
X68799D02*
D03*
X73721D02*
D03*
X83563D02*
D03*
D11*
X-116535Y146142D02*
D03*
X-71850D02*
D03*
X58760Y134528D02*
D03*
X103445D02*
D03*
D12*
X-6476Y23031D02*
D03*
X7303D02*
D03*
D13*
X51378Y261910D02*
D03*
X59301Y261811D02*
D03*
X84350Y274508D02*
D03*
X-4587Y23031D02*
D03*
X5413D02*
D03*
X-15197Y307480D02*
D03*
X-5197D02*
D03*
X4803D02*
D03*
X14803D02*
D03*
D14*
X-197Y136122D02*
D03*
D15*
X-3150Y142126D02*
D03*
X-1181D02*
D03*
X787D02*
D03*
X2756D02*
D03*
Y130118D02*
D03*
X787D02*
D03*
X-1181D02*
D03*
X-3150D02*
D03*
D16*
X5807Y139075D02*
D03*
Y137106D02*
D03*
Y135138D02*
D03*
Y133169D02*
D03*
X-6201D02*
D03*
Y135138D02*
D03*
Y137106D02*
D03*
Y139075D02*
D03*
D17*
X-10827Y233268D02*
D03*
X-8858D02*
D03*
X-6890D02*
D03*
X-4921D02*
D03*
X-2953D02*
D03*
X984D02*
D03*
X2953D02*
D03*
X4921D02*
D03*
X6890D02*
D03*
X8858D02*
D03*
X10827D02*
D03*
Y199803D02*
D03*
X8858D02*
D03*
X6890D02*
D03*
X4921D02*
D03*
X2953D02*
D03*
X984D02*
D03*
X-984D02*
D03*
X-2953D02*
D03*
X-4921D02*
D03*
X-6890D02*
D03*
X-8858D02*
D03*
X-10827D02*
D03*
X-984Y233268D02*
D03*
D18*
X16732Y227362D02*
D03*
Y225394D02*
D03*
Y223425D02*
D03*
Y221457D02*
D03*
Y219488D02*
D03*
Y217520D02*
D03*
Y213583D02*
D03*
Y209646D02*
D03*
Y207677D02*
D03*
Y205709D02*
D03*
X-16732D02*
D03*
Y207677D02*
D03*
Y209646D02*
D03*
Y211614D02*
D03*
Y213583D02*
D03*
Y215551D02*
D03*
Y217520D02*
D03*
Y219488D02*
D03*
Y221457D02*
D03*
Y223425D02*
D03*
Y225394D02*
D03*
Y227362D02*
D03*
X16732Y215551D02*
D03*
Y211614D02*
D03*
D19*
X-46555Y109646D02*
D03*
X-21949D02*
D03*
D20*
X43012Y142520D02*
D03*
Y117913D02*
D03*
D21*
X66339Y273228D02*
D03*
X59252D02*
D03*
X-61319Y279823D02*
D03*
X-54232D02*
D03*
X689Y162402D02*
D03*
X7776D02*
D03*
X-61122Y129528D02*
D03*
X-68209D02*
D03*
X44685Y191437D02*
D03*
X37598D02*
D03*
X-44783Y257480D02*
D03*
X-51870D02*
D03*
X-31890Y213583D02*
D03*
X-38976D02*
D03*
X-31791Y227362D02*
D03*
X-38878D02*
D03*
X29232D02*
D03*
X36319D02*
D03*
X4134Y115945D02*
D03*
X-2953D02*
D03*
X43307Y174803D02*
D03*
X36220D02*
D03*
X39961Y296949D02*
D03*
X47047D02*
D03*
D22*
X-40256Y171949D02*
D03*
Y179035D02*
D03*
X-33169Y171949D02*
D03*
Y179035D02*
D03*
X-26280Y171949D02*
D03*
Y179035D02*
D03*
X-19390Y171949D02*
D03*
Y179035D02*
D03*
X-3445Y172047D02*
D03*
Y179134D02*
D03*
X3543Y172047D02*
D03*
Y179134D02*
D03*
X-3937Y268799D02*
D03*
Y261713D02*
D03*
X-84941Y175295D02*
D03*
Y182382D02*
D03*
X81693Y166634D02*
D03*
Y159547D02*
D03*
X-75197Y174902D02*
D03*
Y181988D02*
D03*
X95472Y168602D02*
D03*
Y161516D02*
D03*
X17126Y145866D02*
D03*
Y152953D02*
D03*
X18602Y137402D02*
D03*
Y130315D02*
D03*
X28642Y136811D02*
D03*
Y129724D02*
D03*
X3051Y261713D02*
D03*
Y268799D02*
D03*
X7874Y279823D02*
D03*
Y286909D02*
D03*
X28642Y200886D02*
D03*
Y207972D02*
D03*
X90650Y233563D02*
D03*
Y240650D02*
D03*
X-94685Y182972D02*
D03*
Y175886D02*
D03*
X73524Y167815D02*
D03*
Y160728D02*
D03*
X12402Y178642D02*
D03*
Y171555D02*
D03*
X90847Y206004D02*
D03*
Y198917D02*
D03*
X64370Y205709D02*
D03*
Y198622D02*
D03*
X-126181Y230807D02*
D03*
Y223721D02*
D03*
X-117717Y223031D02*
D03*
Y230118D02*
D03*
D23*
X84350Y206201D02*
D03*
Y198721D02*
D03*
X73721D02*
D03*
Y202461D02*
D03*
Y206201D02*
D03*
D24*
X-38583Y279823D02*
X-37697Y278937D01*
X-54232Y279823D02*
X-38583D01*
X3051Y268799D02*
Y282087D01*
D25*
X124016Y157480D02*
X177165Y157480D01*
X124016Y0D02*
Y157480D01*
X-124016Y-0D02*
X124016Y0D01*
X-124016Y-0D02*
Y157480D01*
X-177165Y157480D02*
X-124016Y157480D01*
X-177165Y157480D02*
X-176965Y165910D01*
X-176363Y174321D01*
X-175362Y182694D01*
X-173964Y191009D01*
X-172171Y199249D01*
X-169989Y207394D01*
X-167421Y215425D01*
X-164475Y223326D01*
X-161155Y231077D01*
X-157471Y238662D01*
X-153430Y246063D01*
X-149041Y253263D01*
X-144315Y260246D01*
X-139261Y266997D01*
X-133893Y273499D01*
X-128221Y279738D01*
X-122258Y285701D01*
X-116019Y291373D01*
X-109517Y296742D01*
X-102766Y301795D01*
X-95783Y306521D01*
X-88583Y310910D01*
X-81182Y314951D01*
X-73597Y318636D01*
X-65846Y321955D01*
X-57945Y324902D01*
X-49913Y327469D01*
X-41768Y329652D01*
X-33529Y331444D01*
X-25213Y332842D01*
X-16841Y333843D01*
X-8430Y334445D01*
X-0Y334646D01*
X8430Y334445D01*
X16841Y333843D01*
X25213Y332842D01*
X33529Y331444D01*
X41768Y329652D01*
X49913Y327469D01*
X57945Y324902D01*
X65846Y321955D01*
X73597Y318636D01*
X81182Y314951D01*
X88583Y310910D01*
X95783Y306521D01*
X102766Y301795D01*
X109516Y296742D01*
X116019Y291373D01*
X122258Y285701D01*
X128220Y279738D01*
X133893Y273499D01*
X139261Y266997D01*
X144315Y260246D01*
X149041Y253263D01*
X153430Y246063D01*
X157471Y238662D01*
X161155Y231078D01*
X164474Y223326D01*
X167421Y215425D01*
X169989Y207394D01*
X172171Y199249D01*
X173964Y191009D01*
X175362Y182694D01*
X176363Y174321D01*
X176965Y165910D01*
X177165Y157480D01*
D26*
X-106595Y224173D02*
D03*
Y234173D02*
D03*
Y254173D02*
D03*
Y244173D02*
D03*
D27*
X63130Y224350D02*
D03*
D28*
X58130D02*
D03*
X63130Y229350D02*
D03*
Y234350D02*
D03*
X58130Y229350D02*
D03*
Y234350D02*
D03*
X63130Y239350D02*
D03*
Y244350D02*
D03*
X58130Y239350D02*
D03*
Y244350D02*
D03*
D29*
X1969Y133957D02*
D03*
X-2362D02*
D03*
X1969Y138287D02*
D03*
X-2362D02*
D03*
D30*
X-37697Y278937D02*
D03*
X3051Y282087D02*
D03*
M02*
